SplineFontDB: 3.0
FontName: TudorRoseOblique
FullName: Tudor Rose Oblique
FamilyName: TudorRose
Weight: Medium
Copyright: Created by James Kilfiger with FontForge 2.0 (http://fontforge.sf.net)\nReleased to public domain.
UComments: "2009-7-12: Created." 
Version: 001.000
ItalicAngle: 10
UnderlinePosition: -100
UnderlineWidth: 50
Ascent: 850
Descent: 250
LayerCount: 2
Layer: 0 0 "Back"  1
Layer: 1 0 "Fore"  0
XUID: [1021 73 598634083 4737580]
FSType: 0
OS2Version: 0
OS2_WeightWidthSlopeOnly: 0
OS2_UseTypoMetrics: 1
CreationTime: 1247431371
ModificationTime: 1312027528
PfmFamily: 17
TTFWeight: 500
TTFWidth: 5
LineGap: 90
VLineGap: 90
OS2TypoAscent: 0
OS2TypoAOffset: 1
OS2TypoDescent: 0
OS2TypoDOffset: 1
OS2TypoLinegap: 90
OS2WinAscent: 0
OS2WinAOffset: 1
OS2WinDescent: 0
OS2WinDOffset: 1
HheadAscent: 0
HheadAOffset: 1
HheadDescent: 0
HheadDOffset: 1
OS2Vendor: 'PfEd'
Lookup: 258 0 0 "'kern' Horizontal Kerning in Latin lookup 0"  {"'kern' Horizontal Kerning in Latin lookup 0-1"  } ['kern' ('DFLT' <'dflt' > 'latn' <'dflt' > ) ]
MarkAttachClasses: 1
DEI: 91125

StartChar: C
Encoding: 67 67 1
Width: 717
VWidth: -1282
Flags: W
HStem: 0.0732422 92.1768<229.486 423.492> 456 21G<579.997 624.899> 611.104 92.1279<349.192 523.02>
VStem: 547.021 85.0029<194.046 249.246>
LayerCount: 2
Fore
SplineSet
303.197 0.0732422 m 0
 138.018 0.0732422 24.2783 129.338 57.6191 318.423 c 0
 88.5176 493.656 234.731 680.264 427.6 701 c 4
 434.775 702 440.952 703 447.952 703 c 4
 451.605 703.154 455.245 703.231 458.869 703.231 c 0
 597.684 703.231 669.747 598.698 666.744 509 c 4
 666.392 507 666.863 504 666.511 502 c 4
 662.103 477 637.399 456 612.399 456 c 4
 547.595 456 602.768 541.806 519.203 591 c 4
 497.051 604.041 469.858 611.104 441.225 611.104 c 0
 305.877 611.104 175.219 469.054 148.637 318.298 c 0
 126.235 191.255 194.833 92.25 321.32 92.25 c 0
 424.073 92.25 511.248 163.71 547.021 227 c 4
 555.842 243 577.134 256 594.134 256 c 4
 619.134 256 636.431 235 632.023 210 c 4
 625.584 173.486 502.393 0.0732422 303.197 0.0732422 c 0
EndSplineSet
EndChar

StartChar: D
Encoding: 68 68 2
Width: 758
VWidth: -1282
Flags: W
HStem: -0.103516 92.0674<226.63 445.986> 559.449 91.623<332.406 563.996> 626 88<173.673 215.739> 703 20G<245.438 258.683>
LayerCount: 2
Back
SplineSet
156 714 m 0xb0
 161 714 169 712 174 710 c 0
 214 693 248 663 270 625 c 0
 288 594 298 560 302 528 c 0
 304.354 509.433 305.271 491.208 305.271 473.379 c 0
 305.271 423.029 297.954 375.833 295 333 c 0
 292 292 293 246 285 197 c 0
 278.569 159.331 268.761 128.415 268.761 104.251 c 0
 268.761 102.115 268.838 100.031 269 98 c 0
 270 86 273 73 278 62 c 0
 281 57 284 47 284 41 c 0
 284 16 262 -5 237 -5 c 0
 221 -5 203 7 196 22 c 0
 186 44 179 68 177 92 c 0
 176.715 96.6477 176.584 101.205 176.584 105.676 c 0
 176.584 148.335 188.569 183.035 194 212 c 0
 201 250 200 293 203 339 c 0
 206.777 388.857 213.407 434.719 213.407 476.587 c 0
 213.407 490.144 212.712 503.281 211 516 c 0
 208 539 201 561 191 578 c 0
 179 599 160 616 138 626 c 0
 122 633 109 651 109 668 c 0
 109 693 130 714 155 714 c 0
 156 714 l 0xb0
186 723 m 0
 187 723 187 723 188 723 c 0
 201 723 217 715 225 704 c 0
 244 678 275 658 307 653 c 0
 314.943 651.619 323.482 651.072 332.577 651.072 c 0
 349.816 651.072 369.051 653.036 390 655 c 0
 407.274 656.619 425.714 658.53 445.319 658.53 c 0
 462.032 658.53 479.593 657.142 498 653 c 0
 564 639 616 594 648 540 c 0
 680 487 694 428 698 371 c 0
 698.971 359.111 699.47 347.162 699.47 335.169 c 0
 699.47 297.736 694.603 259.868 684 222 c 0
 670 172 646 125 607 87 c 0
 546.165 27.1304 461.085 -0.103204 380.576 -0.103204 c 0
 377.711 -0.103204 374.852 -0.0687212 372 0 c 0
 290 2 213 28 143 60 c 0
 125 68 107 77 89 87 c 0
 75 94 64 112 64 128 c 0
 64 153 85 174 110 174 c 0
 117 174 127 171 133 168 c 0
 149 159 165 152 182 144 c 0
 245 115 310 93 374 92 c 0x70
 375.5 91.9762 377.001 91.9643 378.501 91.9643 c 0
 440.035 91.9643 501.976 111.976 542 152 c 0
 567 177 586 210 596 247 c 0
 603.55 274.935 607.11 304.58 607.11 335.075 c 0
 607.11 344.97 606.735 354.955 606 365 c 0
 603 412 592 457 570 493 c 0
 549 528 515 555 479 563 c 0
 468 565.5 455.75 566.5 442.375 566.5 c 0
 429 566.5 414.5 565.5 399 564 c 0
 379.553 562.118 357.746 559.449 334.564 559.449 c 0
 320.792 559.449 306.535 560.391 292 563 c 0
 236 572 185 604 151 650 c 0
 146 657 142 669 142 677 c 0
 142 701 162 722 186 723 c 0
EndSplineSet
Fore
SplineSet
77.3799 174 m 0xd0
 91.3398 174 91.8877 170.643 142.07 145.033 c 1
 150.505 170.401 161.046 192.492 168.08 212 c 0
 181.78 250 188.362 293 199.474 339 c 0
 212.042 388.857 226.758 434.719 234.141 476.587 c 0
 247.517 552.447 231.697 602.964 185.079 626 c 0
 170.313 633 160.487 651 163.485 668 c 0
 167.894 693 192.596 714 217.596 714 c 2
 218.596 714 l 2xa0
 219.938 714 221.47 713.856 223.083 713.607 c 1
 231.277 719.134 240.693 722.607 250.183 723 c 2
 252.183 723 l 2
 265.183 723 279.744 714.982 285.833 704 c 0
 294.138 689.021 319.531 651.072 384.077 651.072 c 0
 419.098 651.072 459.901 658.53 498.134 658.53 c 0
 650.625 658.53 728.271 522.335 695.268 335.169 c 0
 657.932 123.423 496.31 -0.103516 317.257 -0.103516 c 0
 285.287 -0.103516 252.847 3.2998 213.107 13.2568 c 1
 202.397 2.23047 187.487 -5 172.817 -5 c 0
 143.686 -5 135.788 21.3799 132.312 40.627 c 1
 113.338 48.6396 75.5615 65.7373 41.0391 87 c 0
 28.2734 94 20.4473 112 23.2686 128 c 0
 27.6768 153 52.3799 174 77.3799 174 c 0xd0
331.283 562.417 m 1
 332.702 545.25 333.282 517.861 325.439 473.379 c 0
 316.561 423.029 300.922 375.833 290.415 333 c 0
 280.187 292 273.075 246 256.435 197 c 0
 244.392 162.299 230.494 133.329 225.047 110.089 c 1
 274.751 93.9375 309.502 91.9639 331.415 91.9639 c 0
 427.417 91.9639 568.598 140.586 602.892 335.075 c 0
 623.027 449.273 598.892 566.5 478.963 566.5 c 0
 443.242 566.5 408.053 559.449 369.908 559.449 c 0xc0
 357.217 559.449 344.254 560.249 331.283 562.417 c 1
EndSplineSet
EndChar

StartChar: E
Encoding: 69 69 3
Width: 625
VWidth: -1282
Flags: W
HStem: -0.662109 91.5742<172.051 381.263> 340.423 89.8516<280.141 423.108> 545 21G<504.149 522.649> 634.885 91.1152<270.982 427.231>
LayerCount: 2
Fore
SplineSet
143.896 552.832 m 0
 162.218 656.733 256.966 726 355.065 726 c 0
 488.265 726 544.824 641.856 558.374 620 c 0
 563.14 613 565.848 600 564.261 591 c 0
 559.853 566 535.149 545 510.149 545 c 0
 498.149 545 483.561 553 477.324 563 c 0
 440.897 620.891 375.767 634.885 342.57 634.885 c 0
 279.294 634.885 242.79 592.927 235.334 550.641 c 0
 224.662 490.12 279.889 430.274 357.987 430.274 c 0
 393.292 430.274 408.823 441 423.812 441 c 0
 448.812 441 466.109 420 461.701 395 c 0
 458.351 376 439.824 356 420.942 351 c 0
 394.133 342.794 366.896 338.484 340.554 338.484 c 0
 331.582 338.484 322.715 338.984 314.003 340 c 1
 306.003 340 l 2
 302.271 340.28 298.494 340.423 294.688 340.423 c 0
 216.391 340.423 148.631 277.989 136.068 206.744 c 0
 132.118 184.341 129.559 156 140.09 142 c 0
 169.724 102.606 225.875 90.9121 278.681 90.9121 c 0
 355.803 90.9121 420.703 131.349 460.675 168 c 0
 470.262 177 485.496 184 497.496 184 c 0
 522.496 184 539.793 163 535.385 138 c 0
 533.621 128 526.153 114 517.919 107 c 0
 448.217 42.2412 355.212 -0.662109 259.396 -0.662109 c 0
 183.025 -0.662109 112.226 18 62.6289 77 c 0
 40.957 102.781 33.4102 148.535 43.5967 206.309 c 0
 57.3281 284.185 110.198 359.033 188.759 401 c 1
 152.561 440.19 133.188 492.099 143.896 552.832 c 0
EndSplineSet
EndChar

StartChar: F
Encoding: 70 70 4
Width: 659
VWidth: -1282
Flags: W
HStem: -19 21G<94.6104 115.11> 312.094 91.9902<274.47 469.351> 556 21G<549.298 578.498> 600.216 91.3086<354.421 526.055> 680 20G<138.801 160.089>
LayerCount: 2
Fore
SplineSet
59.5488 144.322 m 0xf0
 80.123 261.004 151.562 339.81 169.182 439.74 c 0
 176.938 483.723 174.08 526.495 157.88 561 c 0
 155.585 565 153.291 569 150.996 573 c 1
 129.014 586.164 92.7578 622.688 98.2783 654 c 0
 102.687 679 126.213 699 151.39 700 c 1
 152.39 700 l 2xe8
 167.789 700 185.643 693.209 220.221 648 c 0
 221.221 648 223.044 647 224.044 647 c 0
 231.574 644.333 240.672 643 250.746 643 c 0
 309.335 643 387.132 691.524 472.352 691.524 c 0
 525.792 691.524 573.514 672.67 608.457 638 c 0
 617.047 630 621.226 614 619.109 602 c 0
 614.701 577 590.998 556 565.998 556 c 0
 532.599 556 525.556 600.216 453.198 600.216 c 0
 400.059 600.216 329.775 561.027 261.47 553 c 1
 268.113 516.006 267.335 477.046 260.553 438.586 c 0
 258.266 425.612 255.295 412.694 251.694 399.928 c 1
 280.494 383 l 1
 315.861 396.215 352.067 404.084 387.827 404.084 c 0
 419.209 404.084 452.721 397.294 487.965 380 c 0
 501.73 373 509.381 354 506.56 338 c 0
 502.151 313 478.448 292 453.448 292 c 0
 430.696 292 415.294 312.094 368.679 312.094 c 0
 314.4 312.094 287.948 288 265.743 288 c 0
 261.743 288 256.096 290 252.271 291 c 2
 217.358 309.582 l 1
 180.726 229.125 160.376 198.692 151.041 145.749 c 0
 138.871 76.7305 161.138 52.0449 156.722 27 c 0
 152.313 2 127.61 -19 102.61 -19 c 0
 86.6104 -19 69.7266 -7 65.3711 8 c 0
 53.2246 50.8203 51.2588 97.3076 59.5488 144.322 c 0xf0
EndSplineSet
EndChar

StartChar: G
Encoding: 71 71 5
Width: 732
VWidth: -1282
Flags: W
HStem: -252 21G<302.57 332.486> -0.279297 91.4912<280.365 455.818> 260.385 92.3818<399.665 502.774> 502 21G<646.521 667.521> 642.128 91.8721<364.903 547.93>
VStem: 512.891 93.7559<144.577 210.868> 617.959 91.1738<512.382 576.249>
LayerCount: 2
Fore
SplineSet
86.2969 367.877 m 0
 121.545 567.776 293.827 731.771 476.93 734 c 1
 659.76 734 714.396 577.85 709.133 548 c 0
 704.725 523 680.021 502 655.021 502 c 0
 638.021 502 622.313 515 617.959 530 c 0
 602.421 583.513 549.93 642.128 464.141 642.128 c 0
 332.668 642.128 205.385 520.726 178.144 366.23 c 0
 146.675 187.761 265.743 91.2119 368.118 91.2119 c 0
 460.115 91.2119 505.829 151.939 512.891 191.988 c 0
 513.146 193.492 511.946 200.995 513.005 207 c 0
 513.238 208.322 513.528 209.632 513.872 210.929 c 0
 511.139 246.447 483.969 260.385 458.221 260.385 c 0
 440.319 260.385 435.613 254 421.292 254 c 0
 396.292 254 378.995 275 383.403 300 c 0
 390.007 337.45 434.096 352.767 477.521 352.767 c 0
 556.805 352.767 616.711 290.177 606.646 201.285 c 1
 607.649 172.776 605.497 143.727 600.377 114.69 c 0
 559.013 -119.901 349.902 -252 315.07 -252 c 0
 290.07 -252 272.773 -231 277.182 -206 c 0
 279.65 -192 292.824 -174 306.059 -167 c 0
 380.007 -124.776 448.999 -53.6973 485.322 33.6152 c 1
 445.642 11.2939 399.446 -0.279297 353.949 -0.279297 c 0
 189.931 -0.279297 47.1006 145.581 86.2969 367.877 c 0
EndSplineSet
EndChar

StartChar: L
Encoding: 76 76 6
Width: 651
VWidth: -1282
Flags: W
HStem: -3 92<227.67 472.743> 15.1387 91.7461<90.2077 379.788> 690 20G<176.36 204.807>
VStem: 134.75 115.71<365.707 686.717>
LayerCount: 2
Fore
SplineSet
15.3086 49 m 0x70
 22.4111 89.2842 92.7402 116.351 130.979 333.211 c 0
 139.646 382.362 145.986 433.254 154.188 485 c 0
 170.036 587.846 163.347 606.213 142.931 631 c 0
 136.165 638 132.81 653 134.75 664 c 0
 139.158 689 163.86 710 188.86 710 c 0
 220.753 710 241.829 667.391 250.46 634 c 0
 264.291 582 253.122 530 246.54 487 c 0
 238.912 438.608 232.967 388.17 223.876 336.612 c 0
 199.055 195.845 163.602 135.253 146.653 102 c 1
 174.007 104 l 2
 194.319 105.582 214.86 106.885 235.596 106.885 c 0x70
 304.077 106.885 349.891 89 390.361 89 c 0
 464.263 89 489.977 135 523.473 135 c 0
 548.473 135 565.77 114 561.361 89 c 0
 559.246 77 548.601 62 538.19 54 c 0
 488.666 17 430.14 -3 374.14 -3 c 0xb0
 308.917 -3 291.122 15.1387 212.93 15.1387 c 0
 197.682 15.1387 181.985 14.3926 165.961 13 c 2
 57.1973 3 l 1
 53.1973 3 l 2
 28.1973 3 10.9004 24 15.3086 49 c 0x70
EndSplineSet
EndChar

StartChar: H
Encoding: 72 72 7
Width: 680
VWidth: -1282
Flags: W
HStem: -15 22G<106.198 128.198 453.375 475.375> 267.316 91.3584<384.049 450.236> 378 20G<596.12 611.021> 683 18G<184.861 220.712 533.713 554.302>
VStem: 77.5176 92.292<-4.68095 225.05> 424.87 92.1162<-3.74304 39.7693 126.959 261.734> 494.19 88.584<411.543 693.313>
LayerCount: 2
Fore
SplineSet
511.427 487.117 m 0xfc
 532.682 607.661 488.094 622.426 494.19 657 c 0
 498.599 682 521.125 702 546.302 703 c 1
 547.302 703 l 2
 561.302 703 576.715 694 582.774 683 c 0xfa
 606.159 635.31 620.459 579.274 604.433 488.385 c 0
 598.77 456.269 590.147 424.713 581.017 394.335 c 1
 587.238 396.576 593.718 398 598.521 398 c 0
 623.521 398 639.818 377 635.41 352 c 0
 633.295 340 623.474 324 612.062 316 c 0
 591.68 301.19 569.396 289.538 546.497 281.253 c 1
 536.436 246.431 527.657 212.248 521.775 178.889 c 0
 505.055 84.0625 519.585 46.7402 516.986 32 c 0
 512.578 7 487.875 -14 462.875 -14 c 0
 443.875 -14 426.766 2.01855 424.87 20 c 0
 418.31 82.2314 420.694 125.126 430.729 182.029 c 0
 435.809 210.842 442.6 239.269 450.236 267.316 c 1
 364.864 272.873 301.516 319.226 230.212 330.642 c 1
 206.722 263.541 181.689 200.295 171.287 141.297 c 0
 158.646 69.6035 173.699 53.0596 169.81 31 c 0
 165.401 6 140.698 -15 115.698 -15 c 0
 96.6982 -15 79.3438 0 77.5176 18 c 0
 70.4678 67.6953 71.4131 96.8994 79.7627 144.248 c 0
 90.1045 202.902 110.509 259.14 129.818 312.114 c 1
 123.177 307.906 109.93 298 92.8887 298 c 0
 67.8887 298 50.5918 319 55 344 c 0
 62.8965 388.785 146.738 414.34 165.099 418.642 c 1
 169.41 434.315 173.099 449.774 175.754 464.831 c 0
 192.593 560.332 162.152 606.07 150.371 624 c 0
 144.605 631 142.074 645 143.838 655 c 0
 148.069 679 172.772 700 196.949 701 c 1
 197.949 701 l 2
 243.476 701 291.3 596.415 267.52 461.551 c 0
 265.162 448.183 262.203 434.928 258.839 421.832 c 1
 344.602 408.071 407.829 360.481 477.409 358.675 c 1
 491.07 402.646 504.271 446.532 511.427 487.117 c 0xfc
EndSplineSet
EndChar

StartChar: O
Encoding: 79 79 8
Width: 735
VWidth: -1282
Flags: W
HStem: -3.7041 91.749<240.97 421.117> 593.024 90.9756<321.604 496.057>
LayerCount: 2
Fore
SplineSet
60.3428 343.2 m 0
 94.9326 539.367 263.402 684 429.542 684 c 4
 430.542 684 430.719 685 431.719 685 c 6
 436.719 685 l 6
 438.719 685 441.542 684 443.542 684 c 6
 444.542 684 l 5
 608.617 674.69 710.624 527.42 677.881 341.723 c 0
 641.467 135.21 469.213 -3.7041 309.821 -3.7041 c 0
 141.452 -3.7041 25.2734 144.309 60.3428 343.2 c 0
585.629 341.111 m 0
 613.453 498.911 518.308 593.024 415.586 593.024 c 0
 298.084 593.024 177.674 486.445 151.93 340.442 c 0
 127.812 203.662 203.054 88.0449 327.73 88.0449 c 0
 436.123 88.0449 558.848 189.228 585.629 341.111 c 0
EndSplineSet
EndChar

StartChar: Q
Encoding: 81 81 9
Width: 752
VWidth: -1282
Flags: W
HStem: -162.543 92.0908<551.062 683.806> -2.7041 91.749<252.961 373.392> 143.038 91.9619<238.321 350.353> 594.024 90.9756<336.696 511.148>
LayerCount: 2
Fore
SplineSet
184 188 m 1
 225.323 220.098 262.405 233.462 307.287 235 c 1
 396.63 235 443.469 175.486 465.772 130 c 1
 532.196 173.133 584.738 251.472 600.721 342.111 c 0
 628.545 499.911 533.399 594.024 430.678 594.024 c 0
 313.176 594.024 192.766 487.445 167.021 341.442 c 0
 157.695 288.551 162.799 232.648 184 188 c 1
75.4346 344.2 m 0
 110.024 540.367 278.494 685 444.634 685 c 0
 445.634 685 445.811 686 446.811 686 c 2
 451.811 686 l 2
 453.811 686 456.634 685 458.634 685 c 2
 459.634 685 l 1
 623.709 675.69 725.716 528.42 692.973 342.723 c 0
 661.897 166.489 541.589 75.7764 497.49 49 c 1
 519.723 -8.94434 542.352 -70.4521 609.672 -70.4521 c 0
 659.742 -70.4521 704.025 -39.6035 731.792 -6 c 0
 740.908 6 760.495 15 774.495 15 c 0
 799.495 15 816.792 -6 812.384 -31 c 0
 806.109 -66.5879 704.453 -162.543 592.812 -162.543 c 0
 473.85 -162.543 431.26 -57.6963 408.438 9 c 1
 375.71 -0.693359 341.205 -2.7041 324.913 -2.7041 c 0
 259.098 -2.7041 211.757 17.251 169.667 50 c 1
 164.313 48 158.138 47 153.138 47 c 0
 128.138 47 110.841 68 115.249 93 c 0
 115.777 96 117.482 100 119.012 103 c 1
 72.4355 170.974 60.4395 259.157 75.4346 344.2 c 0
237.538 123 m 1
 262.092 104.451 298.314 89.0449 342.822 89.0449 c 0
 349.418 89.0449 356.063 89.3672 362.72 90 c 0
 366.72 90 369.72 90 373.896 91 c 1
 354.564 120.425 330.795 143.038 295.942 143.038 c 0
 268.697 143.038 246.351 130.491 237.538 123 c 1
EndSplineSet
EndChar

StartChar: U
Encoding: 85 85 10
Width: 758
VWidth: -1282
Flags: W
HStem: -2.82812 91.3008<254.722 431.565>
LayerCount: 2
Fore
SplineSet
342.565 88.4727 m 0
 464.906 88.4727 587.347 214.837 613.813 364.935 c 0
 632.666 471.856 595.162 552.66 555.095 600 c 4
 548.505 608 544.15 623 546.09 634 c 4
 550.498 659 574.2 680 599.2 680 c 6
 600.2 680 l 6
 610.2 680 623.966 673 629.732 666 c 4
 683.54 603.388 729.209 501.036 705.061 364.083 c 0
 669.679 163.422 500.389 -2.82812 325.474 -2.82812 c 0
 146.532 -2.82812 29.6455 165.549 67.127 378.119 c 0
 84.7725 478.191 135.814 577.794 213.145 657 c 4
 222.732 666 240.319 675 252.319 675 c 4
 277.319 675 294.616 654 290.208 629 c 4
 288.621 620 282.329 607 275.095 600 c 4
 214.175 538.172 172.93 456.556 158.715 375.941 c 0
 130.723 217.189 213.664 88.4727 342.565 88.4727 c 0
EndSplineSet
EndChar

StartChar: X
Encoding: 88 88 11
Width: 776
VWidth: -1282
Flags: W
HStem: -9 88<15.5429 80.1306> -3 91<542.471 609.884> 592 90<152.57 216.319 626.845 732.314>
LayerCount: 2
Fore
SplineSet
704.098 684 m 2xa0
 705.098 684 l 2
 730.098 684 747.395 663 742.986 638 c 0
 739.283 617 718.757 597 697.052 593 c 0
 585.184 572.193 496.436 480.439 420.083 372 c 1
 444.973 252.507 470.962 125.526 593.007 88 c 0
 611.125 83 623.599 63 620.071 43 c 0
 615.664 18 590.961 -3 565.961 -3 c 0x60
 546.113 -3 498.035 18.2578 465.248 44 c 0
 386.27 106.28 357.893 201.358 347.978 292 c 1
 329.866 246 245.825 121 173.599 63 c 0
 141.062 37.0391 68.9023 -9 45.9023 -9 c 0
 20.9023 -9 3.60547 12 8.01367 37 c 0
 10.835 53 25.1855 72 41.4199 79 c 0
 166.433 140.478 223.12 230.434 320.789 376 c 1
 295.772 482.255 257.373 564.548 168.875 592 c 0
 150.757 597 139.283 617 142.634 636 c 0
 147.042 661 170.745 682 195.745 682 c 2
 196.745 682 l 2
 203.261 682 312.188 666.485 377.18 520 c 0
 382.438 506.693 392.218 462.667 389.032 444.602 c 0
 388.866 443.662 388.665 442.792 388.426 442 c 1
 394.895 456 420.593 511 436.59 528 c 0
 512.898 609.421 591.199 662.769 695.921 683 c 0
 697.921 683 702.098 684 704.098 684 c 2xa0
EndSplineSet
EndChar

StartChar: P
Encoding: 80 80 12
Width: 668
VWidth: -1282
Flags: W
HStem: -19 21G<129.287 151.287> 130.977 91.5264<262.995 432.073> 513 87<57.9845 139.9> 568.044 92.0869<285.92 443.341> 678 20G<209.625 238.789>
VStem: 100.782 92.1152<-8.74304 169.713> 187.417 91.8848<386.865 549.91>
LayerCount: 2
Fore
SplineSet
337.02 660.131 m 0xda
 543.78 660.131 654.731 539.28 627.64 385.635 c 0
 603.367 247.981 472.258 130.977 325.783 130.977 c 0
 284.398 130.977 238.013 140.733 196.965 169.713 c 1
 181.915 80.9414 195.54 41.9844 192.897 27 c 0
 188.489 2 163.787 -19 138.787 -19 c 0
 119.787 -19 102.678 -2.98145 100.782 15 c 0xdc
 94.3145 76.3428 94.1514 110.356 105.361 173.926 c 0
 110.609 203.693 117.735 233.087 125.729 262.05 c 1
 124.214 268.336 123.915 276.636 124.861 282 c 0
 126.768 292.814 132.285 302.879 139.955 310.82 c 1
 153.909 356 l 2
 167.521 399.841 180.359 442.539 187.417 482.566 c 0
 191.556 506.035 193.706 528.586 192.86 549.91 c 1
 119.902 529.542 108.145 513 88.5928 513 c 0
 63.5928 513 46.2959 534 50.7041 559 c 0
 53.3486 574 67.6992 593 82.9336 600 c 0xea
 111.389 613.689 140.678 625.148 170.333 634.266 c 1
 168.752 640.144 168.172 646.724 169.103 652 c 0
 173.511 677 197.037 697 222.213 698 c 1
 223.213 698 l 2
 254.364 698 263.854 665.135 267.646 655.547 c 1
 290.929 658.585 314.127 660.131 337.02 660.131 c 0xda
279.302 480.579 m 0xda
 268.945 421.845 247.793 362.772 224.803 284.471 c 1
 250.331 243.991 295.296 222.503 344.158 222.503 c 0
 426.888 222.503 518.16 289.316 535.156 385.704 c 0
 554.447 495.108 464.231 568.044 323.863 568.044 c 0
 311.284 568.044 298.623 567.538 285.92 566.521 c 1
 287.048 537.708 284.299 508.918 279.302 480.579 c 0xda
EndSplineSet
EndChar

StartChar: S
Encoding: 83 83 13
Width: 625
VWidth: -1282
Flags: W
HStem: 0.918945 92.0811<173.575 378.441> 496 21G<514.534 532.534> 581.286 91.8193<257.471 430.539>
LayerCount: 2
Fore
SplineSet
128.031 513 m 4
 145.778 586.033 225.263 673.105 354.342 673.105 c 0
 356.985 673.105 359.244 673 362.244 673 c 4
 409.47 673 501.64 655.023 566.787 574 c 4
 572.553 567 575.908 552 574.145 542 c 4
 569.736 517 545.034 496 520.034 496 c 4
 509.034 496 495.092 502 489.503 510 c 4
 458.817 548.554 403.972 581.286 338.572 581.286 c 0
 259.693 581.286 222.54 533.963 216.977 502.414 c 0
 204.15 429.669 310.324 396.651 339.638 386 c 4
 412.857 360.069 480.813 333.916 511.95 263 c 4
 522.542 238 527.629 209.748 522.124 178.528 c 0
 503.334 71.9619 391.04 0.918945 270.354 0.918945 c 0
 267.806 0.918945 265.752 1 262.752 1 c 4
 176.929 2 98.042 31 40.3867 84 c 4
 31.7979 92 26.7949 109 28.9111 121 c 4
 29.4404 124 31.498 130 33.0273 133 c 6
 49.9043 172 l 6
 58.2539 191 81.0752 207 101.075 207 c 4
 126.075 207 143.373 186 138.965 161 c 4
 137.483 152.6 132.221 142.075 131.262 140 c 5
 172.972 110 225.15 94 279.975 93 c 5
 382.725 93 423.861 143.4 429.785 177 c 4
 442.692 250.2 333.1 285.942 295.298 299 c 4
 219.604 325.807 157.739 354.071 131.691 426 c 4
 123.746 449 120.909 474.512 125.811 502.312 c 0
 126.433 505.837 127.326 509 128.031 513 c 4
EndSplineSet
EndChar

StartChar: I
Encoding: 73 73 14
Width: 455
VWidth: -1282
Flags: W
HStem: -4.21387 92.2139<240.836 322.971> 25.4316 91.4551<26.9447 146.401> 531 91.1699<332.286 400.435> 578.362 91.6377<153.23 208.911>
VStem: 147.461 95.3574<115 240.838>
LayerCount: 2
Back
SplineSet
185.361 670.481 m 0x18
 191.879 670.607 198.481 670.289 205.021 669.469 c 0
 235.997 665.585 259.717 652.696 278.596 642.722 c 0
 297.29 632.845 311.961 625.594 322.977 623.484 c 0
 331.609 621.831 341.107 622.467 349.471 625.172 c 0
 357.834 627.877 365.887 632.95 371.914 639.347 c 0
 379.445 647.555 394.596 654.215 405.738 654.215 c 0
 431.077 654.215 451.639 633.648 451.639 608.311 c 0
 451.639 598.062 445.858 583.771 438.738 576.403 c 0
 421.954 558.595 401.019 545.293 377.736 537.76 c 0
 354.454 530.227 329.796 528.769 305.765 533.372 c 0
 276.06 539.062 253.694 552.062 235.733 561.553 c 0
 217.956 570.945 203.702 577.07 193.546 578.344 c 0x18
 185.361 579.369 176.243 577.893 168.824 574.294 c 0
 161.398 570.694 154.522 564.396 150.262 557.334 c 0
 142.862 545.084 125.249 535.144 110.938 535.144 c 0x28
 85.583 535.144 65 555.724 65 581.081 c 0
 65 588.146 67.9697 598.789 71.624 604.838 c 0
 85.2451 627.396 105.031 645.4 128.746 656.896 c 0
 146.527 665.519 165.797 670.102 185.361 670.481 c 0x18
178.273 116.56 m 0x48
 188.314 117.385 198.508 117.361 208.648 116.475 c 0
 236.925 114.007 260.424 105.646 280.283 99.1777 c 0
 300.059 92.7393 316.67 88.0986 329.98 87.4502 c 0
 348.174 86.5645 367.863 92.9004 382.124 104.24 c 0
 389.048 109.741 401.841 114.207 410.685 114.207 c 0
 436.023 114.207 456.596 93.6387 456.596 68.2969 c 0
 456.596 56.0654 448.822 39.9629 439.246 32.3535 c 0
 407.025 6.72461 366.631 -6.2666 325.508 -4.26562 c 0x88
 296.572 -2.85742 272.283 5.2793 251.849 11.9346 c 0
 231.493 18.5635 214.486 23.8027 200.633 25.0127 c 0
 181.364 26.6943 160.545 21.3848 144.439 10.6689 c 0
 138.059 6.42383 126.663 2.97754 119 2.97754 c 0
 93.6562 2.97754 73.085 23.5469 73.085 48.8906 c 0
 73.085 62.4668 82.2607 79.5898 93.5615 87.1123 c 0
 118.984 104.029 148.152 114.081 178.273 116.56 c 0x48
234.89 651.497 m 0
 235.274 651.508 235.896 651.518 236.281 651.518 c 0x28
 246.538 651.518 260.846 645.725 268.218 638.588 c 2
 313.695 595.81 l 2
 319.812 590.059 325.978 578.682 327.449 570.412 c 0
 337.605 513.662 340.501 455.684 336.055 398.203 c 0
 330.322 324.116 313.722 256.374 309.309 192.497 c 0
 307.848 171.382 307.905 151.29 310.488 132.675 c 0
 313.016 114.469 318.711 94.8516 325.762 73.6973 c 2
 328.461 65.6816 l 2
 329.947 61.5312 331.161 54.5811 331.161 50.1719 c 0
 331.161 24.833 310.595 4.2666 285.256 4.2666 c 0
 266.546 4.2666 246.892 18.7764 241.387 36.6562 c 2
 238.687 44.6719 l 2
 231.093 67.4531 223.372 92.3516 219.533 120.019 c 0
 215.747 147.274 215.942 173.739 217.677 198.825 c 0
 222.813 273.207 239.546 341.202 244.508 405.291 c 0
 247.973 450.104 246.006 495.348 239.192 539.784 c 1
 205.273 571.763 l 2
 197.047 579.296 190.376 594.459 190.376 605.612 c 0
 190.376 630.197 210.315 650.753 234.89 651.497 c 0
EndSplineSet
Fore
SplineSet
-12.0576 49 m 0x48
 -5.59082 85.6758 56.2227 116.887 117.998 116.887 c 0
 123.935 116.887 129.869 116.599 135.756 116 c 0
 139.756 116 142.756 116 146.58 115 c 1
 147.461 120 l 1
 147.907 135.816 149.725 151.632 152.443 167.047 c 0
 169.025 261.089 214.043 348.164 231.239 445.689 c 0
 236.834 477.42 239.987 509.2 240.519 540 c 1
 212.161 572 l 2
 210.337 573 209.69 575 209.043 577 c 1
 206.219 578 204.219 578 202.219 578 c 0
 200.291 578.247 198.396 578.362 196.54 578.362 c 0
 175.4 578.362 159.299 563.396 154.517 557 c 0
 145.4 545 125.637 535 111.637 535 c 0
 86.6367 535 69.3398 556 73.748 581 c 0
 79.1465 611.619 138.392 670 209.441 670 c 0x58
 283.468 670 311.655 622.17 349.55 622.17 c 0
 354.648 622.17 359.922 623.036 365.506 625 c 0
 389.839 633.559 403.728 654 427.62 654 c 0
 452.62 654 469.917 633 465.509 608 c 0
 459.183 572.12 394.879 531 332.932 531 c 1
 331.058 501.104 327.718 470.747 322.394 440.555 c 0
 304.48 338.964 258.948 250.919 244.617 169.646 c 0
 239.028 137.949 240.175 107.413 242.818 88 c 1
 245.818 88 248.818 88 251.818 88 c 0
 253.105 87.9277 254.409 87.8926 255.726 87.8926 c 0
 298.117 87.8926 307.537 114 337.403 114 c 0
 362.403 114 379.7 93 375.292 68 c 0
 368.494 29.4463 300.447 -4.21387 240.327 -4.21387 c 0xa8
 176.356 -4.21387 146.045 25.4316 103.398 25.4316 c 0
 62.9111 25.4316 49.7549 3 25.8311 3 c 0
 0.831055 3 -16.4658 24 -12.0576 49 c 0x48
EndSplineSet
EndChar

StartChar: J
Encoding: 74 74 15
Width: 386
VWidth: -1282
Flags: W
HStem: -227.481 91.1807<-106.394 45.2505> 664 20G<302.771 326.859>
VStem: 263.248 91.5869<388.823 674.236>
LayerCount: 2
Fore
SplineSet
247.396 429 m 0
 269.049 551.8 261.276 626.819 263.248 638 c 0
 267.656 663 290.183 683 315.359 684 c 1
 316.359 684 l 2
 337.359 684 354.361 667 354.835 647 c 0
 357.14 575 352.268 502 339.396 429 c 0
 326.7 357 306.534 288 295.072 223 c 0
 288.989 188.5 284.297 152.312 277.618 114.438 c 0
 276.615 108.735 l 0
 266.622 52.0596 235.273 -111.505 76.7207 -193 c 0
 31.5352 -216.225 -16.3271 -227.481 -62.7158 -227.481 c 0
 -68.2588 -227.481 -73.7803 -227.32 -79.2744 -227 c 0
 -103.099 -226 -119.396 -205 -115.163 -181 c 0
 -110.755 -156 -86.0527 -135 -61.0527 -135 c 0
 -60.0527 -135 -59.2285 -136 -58.2285 -136 c 0
 -54.8467 -136.201 -51.4277 -136.301 -47.9775 -136.301 c 0
 15.5127 -136.301 138.682 -100.95 179.034 81 c 0
 181.474 92 183.646 103.25 185.668 114.719 c 0
 191.734 149.125 196.46 185.5 203.072 223 c 0
 215.769 295 235.759 363 247.396 429 c 0
EndSplineSet
EndChar

StartChar: M
Encoding: 77 77 16
Width: 739
VWidth: -1282
Flags: W
HStem: -23 29G<66.3447 84.3447 535.756 557.256> 324.421 91.3916<331.142 434.28>
VStem: 146.044 103.766<584.422 629>
LayerCount: 2
Fore
SplineSet
19.1299 41 m 4
 22.0791 57.7275 104.041 204.162 143.84 429.876 c 0
 152.898 481.25 158.773 532.625 161.875 584 c 5
 149.636 611 l 6
 146.694 617 144.81 629 146.044 636 c 4
 150.452 661 175.155 682 200.155 682 c 6
 202.155 682 l 6
 216.155 682 231.392 672 236.276 660 c 6
 249.81 629 l 5
 263.948 615.832 256.516 563.873 308.127 472 c 4
 316.079 458.137 339.376 415.812 376.435 415.812 c 0
 429.246 415.812 517.342 502.155 565.875 584 c 4
 568.934 590 577.521 599 583.226 603 c 5
 613.069 650.648 639.05 678 667.45 678 c 4
 692.45 678 710.924 658 706.516 633 c 4
 700.213 597.26 646.279 584.199 626.876 474.156 c 0
 610.387 380.644 635.429 298.243 616.304 59 c 4
 616.127 58 616.774 56 616.599 55 c 4
 615.717 50 612.482 43 609.601 38 c 6
 596.545 15 l 6
 587.724 -1 566.256 -15 548.256 -15 c 4
 523.256 -15 505.958 6 510.366 31 c 4
 511.248 36 514.658 44 517.54 49 c 6
 524.656 61 l 5
 538.043 249.376 524.985 326.927 527.665 407 c 5
 499.006 378.615 432.034 324.421 361.541 324.421 c 0
 330.036 324.421 274.234 334.25 230.842 408 c 5
 224.67 373 l 5
 201.804 266 164.937 159 118.599 55 c 5
 124.364 48 127.719 33 125.956 23 c 4
 121.548 -2 96.8447 -23 71.8447 -23 c 4
 60.8447 -23 47.9023 -17 42.3135 -9 c 6
 26.4873 9 l 6
 20.7217 16 17.3662 31 19.1299 41 c 4
EndSplineSet
EndChar

StartChar: N
Encoding: 78 78 17
Width: 615
VWidth: -1282
Flags: W
HStem: -24 36G<42.8154 67.8154 418.961 441.461> 667 20G<577.685 596.185>
VStem: 390.132 92.9395<1 101.821>
LayerCount: 2
Fore
SplineSet
412.516 221 m 1
 425.074 272.363 442.72 349.759 465.42 478.5 c 0
 472.737 520 479.555 561.5 485.873 603 c 1
 486.049 604 l 2
 487.812 614 497.457 629 505.691 636 c 2
 548.216 673 l 2
 556.45 680 572.685 687 582.685 687 c 2
 583.685 687 l 2
 608.685 687 625.981 666 621.573 641 c 0
 619.634 630 610.988 615 601.754 608 c 2
 574.699 585 l 1
 568.822 546 562.445 507 555.568 468 c 0
 530.389 325.2 505.268 217.689 477.12 111 c 0
 476.591 108 476.238 106 474.709 103 c 1
 481.417 77.9854 484.192 43.3564 483.071 37 c 0
 478.663 12 453.961 -9 428.961 -9 c 0
 408.961 -9 391.605 6 390.132 26 c 0
 378.812 156.365 282.897 176.301 198.849 359 c 1
 163.101 247 133.352 135 109.427 22 c 0
 105.019 -3 80.3154 -24 55.3154 -24 c 0
 30.3154 -24 13.0186 -3 17.4268 22 c 0
 17.6035 23 18.7793 24 18.9561 25 c 0
 71.2441 274.062 130.63 419.414 141.728 482.353 c 0
 142.241 485.265 142.707 488.147 143.124 491 c 0
 145.77 506 146.414 521 144.883 535 c 2
 142.409 555 l 1
 134.561 594.506 96.3779 600.193 102.691 636 c 0
 106.924 660 129.626 681 153.803 682 c 0
 154.803 682 155.803 682 156.803 682 c 0
 197.083 682 223.512 618.011 223.518 618 c 0
 228.46 612 231.401 606 232.168 599 c 2
 234.228 588 l 2
 236.787 578.456 246.979 437.907 351.917 297 c 1
 412.516 221 l 1
EndSplineSet
EndChar

StartChar: R
Encoding: 82 82 18
Width: 643
VWidth: -1282
Flags: W
HStem: -12 92<476.789 513.856> 219.974 91.5371<254.526 372.174> 518 88<60.9774 153.991> 569.123 91.9971<278.674 450.411> 679 20G<203.213 233.501>
VStem: 185.676 92.998<417.326 548>
LayerCount: 2
Fore
SplineSet
263.366 654 m 1xec
 298.968 659.54 334.732 661.12 352.26 661.12 c 0xdc
 553.877 661.12 613.312 543.541 595.383 441.857 c 0
 582.769 370.314 536.323 306.133 467.423 263 c 1
 467.246 262 l 1
 486.778 230.683 494.114 196.979 486.007 151 c 0
 483.186 135 479.502 121.667 477.621 111 c 0
 476.258 103.27 474.277 80 486.155 80 c 0
 511.155 80 528.452 59 524.044 34 c 0
 519.636 9 494.933 -12 469.933 -12 c 0
 406.333 -12 373.307 41.1621 385.269 109 c 0
 388.574 127.75 392.974 143.125 395.09 155.125 c 0
 397.959 171.398 398.612 203.635 365.546 224 c 1
 349.843 221.334 334.079 219.974 318.542 219.974 c 0
 277.86 219.974 246.203 228.626 220.544 241 c 1
 218.731 229.492 216.864 217.937 214.814 206.315 c 0
 197.648 108.961 169.37 46.3467 147.988 11 c 1
 138.991 -6 116.698 -19 98.6982 -19 c 0
 73.6982 -19 57.4014 2 61.8096 27 c 0
 66.0547 51.0752 98.8018 73.7432 121.13 200.375 c 0
 127.544 236.75 132.539 275 139.592 315 c 1
 137.826 322 136.236 330 137.295 336 c 0
 138.882 345 143.292 353 148.526 360 c 1
 159.356 408.107 172.319 447.516 180.282 492.679 c 0
 183.635 511.692 185.634 530.43 185.676 548 c 1
 127.867 531.964 109.187 518 91.3857 518 c 0
 66.3857 518 49.0889 539 53.4971 564 c 0
 56.4951 581 71.6689 599 88.9033 606 c 0
 113.666 616 139.43 626 164.664 633 c 1
 162.722 639 162.133 647 163.19 653 c 0
 167.422 677 191.125 698 215.302 699 c 1
 217.302 699 l 2
 249.701 699 260.985 660.281 263.366 654 c 1xec
335.743 311.511 m 0
 361.684 311.511 371.298 317 379.944 317 c 1
 447.134 334.792 495.058 390.506 503.698 439.51 c 0
 512.84 491.355 485.23 569.123 336.648 569.123 c 0
 333.248 569.123 329.823 569.082 326.379 569 c 0
 310.379 569 295.026 567 278.674 565 c 1
 278.954 539.888 276.265 515.392 272.054 491.512 c 0
 262.002 434.507 246.256 391.778 237.587 349 c 1
 257.276 328.628 293.837 311.511 335.743 311.511 c 0
EndSplineSet
EndChar

StartChar: K
Encoding: 75 75 19
Width: 697
VWidth: -1282
Flags: W
HStem: -10 92<480.286 566.652> 638 87<562.862 631.602>
VStem: 37.6006 92.7686<-5.92215 132.062> 144.983 93.4688<496.817 715.365>
LayerCount: 2
Fore
SplineSet
48.7988 161.387 m 0
 68.9336 275.576 105.842 373.452 125.977 487.641 c 0
 136.861 549.375 143.271 611.25 144.983 672 c 0
 145.337 674 145.042 678 145.395 680 c 0
 149.803 705 174.506 726 199.506 726 c 2
 201.506 726 l 1
 222.329 725 239.155 707 238.452 686 c 0
 237.175 638.499 227.764 571.921 216.305 506.934 c 0
 206.775 452.893 195.831 399.953 186.97 360 c 1
 208.907 388 242.013 468 276.361 504 c 0
 363.23 594 467.278 668 578.447 720 c 0
 583.977 723 594.329 725 600.329 725 c 2
 601.329 725 l 2
 626.329 725 643.803 705 639.395 680 c 0
 636.573 664 621.223 645 605.988 638 c 0
 512.23 594 425.475 533 350.426 459 c 1
 368.613 440.636 355.87 410.748 400.397 249 c 0
 416.103 190.425 443.762 88.5566 540.951 82 c 0
 564.774 81 581.071 60 576.84 36 c 0
 572.432 11 547.729 -10 522.729 -10 c 2
 520.729 -10 l 1
 366.767 -3.79785 323.807 158.945 309.697 211 c 0
 295.042 264 283.564 318 274.262 373 c 1
 169.648 239.738 154.228 151.728 135.943 133 c 1
 133.417 113 130.891 93 130.54 74 c 2
 130.369 39 l 2
 130.84 36 130.135 32 129.605 29 c 0
 125.197 4 100.494 -17 75.4941 -17 c 0
 29.7871 -17 36.541 31.3281 37.6006 63 c 0
 39.0088 96.1543 43.083 128.968 48.7988 161.387 c 0
EndSplineSet
EndChar

StartChar: Y
Encoding: 89 89 20
Width: 640
VWidth: -1282
Flags: W
HStem: -23 21G<67.7002 83.7002> 625 87<614.751 682.409> 671 20G<111.009 138.618>
LayerCount: 2
Fore
SplineSet
123.098 691 m 1xa0
 125.098 691 l 2xa0
 152.139 691 250.278 627.383 308.943 537 c 0
 329.477 506 335.016 441 340.139 402 c 1
 349.312 420 376.129 470 387.303 488 c 0
 478.33 635.486 621.846 712 650.8 712 c 2
 651.8 712 l 2
 676.8 712 694.098 691 689.689 666 c 0
 687.044 651 672.694 632 657.46 625 c 0xc0
 579.936 588 509.827 525 464.779 451 c 0
 394.402 336.348 367.686 151.013 145.313 6 c 0
 144.137 5 143.137 5 141.961 4 c 2
 105.435 -16 l 2
 98.7285 -20 87.2002 -23 80.2002 -23 c 0
 55.2002 -23 37.9023 -2 42.3105 23 c 0
 44.9561 38 58.1299 56 72.3643 63 c 2
 105.538 81 l 1
 147.548 108.28 238.344 180.593 263.571 257 c 0
 267.511 268 270.627 280 272.743 292 c 0
 285.861 366.4 259.03 428.939 227.54 478 c 1
 192.709 530 145.467 574 89.7568 604 c 0
 75.9912 611 68.165 629 70.9863 645 c 0
 75.2178 669 98.9209 690 123.098 691 c 1xa0
EndSplineSet
EndChar

StartChar: W
Encoding: 87 87 21
Width: 717
VWidth: -1282
Flags: W
HStem: -31 21G<100.818 123.818 376.227 399.227> 578 20G<391.228 410.728> 616 92<117.167 118.896 728.492 834.561>
LayerCount: 2
Fore
SplineSet
379.137 416 m 1
 306.831 268.083 205.621 145.841 199.822 142 c 1
 194.004 109 186.538 78 178.719 45 c 0
 178.366 43 177.014 41 176.661 39 c 2
 164.843 6 l 2
 157.14 -15 134.318 -31 113.318 -31 c 0
 88.3184 -31 71.0215 -10 75.4297 15 c 0
 75.958 18 76.4873 21 78.0166 24 c 2
 89.1299 53 l 1
 96.6504 83.8555 103.09 114.71 108.53 145.566 c 0
 139.628 321.927 136.093 476.489 117.167 609 c 1
 81.165 626 l 2
 67.3994 633 57.75 652 60.7471 669 c 0
 65.1553 694 89.6816 714 114.682 714 c 2
 115.682 714 l 2
 120.682 714 128.329 712 132.977 710 c 2
 186.392 684 l 2
 195.511 679 204.57 668 206.631 657 c 0
 232.464 498.804 224.671 344.388 221.648 327.245 c 0
 219.49 315.005 210.992 279.992 208.835 267.754 c 0
 208.521 265.974 208.341 264.676 208.335 264 c 1
 217.979 279 249.912 341 258.557 356 c 0
 292.607 413 313.187 473 336.943 534 c 1
 336.648 538 336.354 542 337.059 546 c 0
 339.88 562 350.349 576 363.76 584 c 1
 373.347 593 385.228 598 397.228 598 c 2
 398.228 598 l 2
 423.228 598 440.701 578 436.293 553 c 2
 435.588 549 l 1
 468.893 477 475.204 354 477.393 270 c 1
 539.554 404.537 554.446 586.098 696.629 674 c 0
 730.332 695 767.271 706 803.624 708 c 0
 804.624 708 805.624 708 806.624 708 c 0
 831.624 708 848.921 687 844.513 662 c 0
 840.104 637 816.401 616 791.401 616 c 1
 680.789 610.232 642.248 463.851 612.142 382 c 1
 574.919 290 516.345 196 469.122 104 c 0
 467.594 101 464.24 99 461.712 96 c 1
 456.009 75 448.13 53 440.427 32 c 0
 432.724 11 409.727 -6 388.727 -6 c 0
 363.727 -6 346.43 15 350.838 40 c 0
 353.139 53.0498 373.042 92.2002 386.848 170.5 c 0
 403.459 264.705 396.639 345.616 379.137 416 c 1
EndSplineSet
EndChar

StartChar: V
Encoding: 86 86 22
Width: 683
VWidth: -1282
Flags: W
HStem: -34 21G<156.73 180.73> 692 1G<76.9199 102.122 583.182 605.27>
LayerCount: 2
Fore
SplineSet
595.77 712 m 1
 596.77 712 l 2
 613.77 712 631.654 700 634.833 684 c 2
 645.898 639 l 2
 647.017 634 646.605 626 645.725 621 c 0
 643.961 611 636.492 597 629.258 590 c 2
 435.403 398 l 1
 352.083 312.101 263.396 214.604 234.742 88 c 0
 233.684 82 230.449 75 226.568 70 c 1
 223.399 18 l 2
 223.047 16 222.693 14 222.341 12 c 0
 217.933 -13 193.23 -34 168.23 -34 c 0
 145.23 -34 128.58 -15 130.636 8 c 0
 145.023 244.074 189.283 376.929 144.507 495 c 0
 126.618 541 93.4951 580 52.0791 606 c 0
 40.3135 613 32.6641 632 35.3086 647 c 0
 39.7168 672 64.4199 693 89.4199 693 c 2
 90.4199 693 l 2
 113.823 693 196.975 633.078 232.441 540 c 0
 255.038 481 260.577 416 257.469 353 c 0
 256.529 342 255.59 331 254.649 320 c 1
 291.29 369 333.048 413 373.454 455 c 1
 549.135 629 l 1
 543.485 648 l 2
 542.367 653 541.777 661 542.659 666 c 0
 547.067 691 570.594 711 595.77 712 c 1
EndSplineSet
EndChar

StartChar: Z
Encoding: 90 90 23
Width: 828
VWidth: -1282
Flags: W
HStem: -7.84473 91.8242<435.71 629.817> 14 87<31.6471 96.104> 40.5361 91.4639<271.38 401.628> 508.876 92.124<160.315 249.438> 538 92.1689<429.716 518.969> 629.041 92.2002<195.335 310.981> 673 20G<751.299 767.799>
LayerCount: 2
Fore
SplineSet
102.455 606.763 m 0x14
 113.713 670.612 181.033 721.241 255.184 721.241 c 0x14
 258.237 721.241 261.256 721.158 264.236 721 c 0
 363.785 721 402.737 630.169 535.694 630.169 c 0
 615.224 630.169 689.938 662.958 726.889 685 c 0
 734.771 690 747.299 693 755.299 693 c 0
 780.299 693 797.596 672 793.188 647 c 0
 785.207 601.74 700.176 580.766 666.848 560 c 0
 540.655 481.674 512.948 315.468 271.38 132 c 1x2a
 422.76 128.767 473.932 83.9795 551.313 83.9795 c 0
 624.215 83.9795 644.217 130 681.027 130 c 0
 706.027 130 723.324 109 718.916 84 c 0
 711.798 43.6318 619.576 -7.84473 533.794 -7.84473 c 0x80
 433.406 -7.84473 388.128 40.5361 248.617 40.5361 c 0x20
 139.798 40.5361 80.71 14 62.5732 14 c 0
 37.5732 14 20.2764 35 24.6846 60 c 0
 27.5059 76 41.6797 94 56.9131 101 c 0
 344.229 235.005 445.038 453.636 518.969 538 c 1x48
 356.894 538 321.377 629.041 240.34 629.041 c 0
 208.606 629.041 195.14 612.698 194.664 610 c 2
 194.135 607 l 1
 195.236 605.08 195.477 601 205.077 601 c 0
 215.822 601 222.468 611 240.84 611 c 0
 265.84 611 283.138 590 278.729 565 c 0
 272.239 528.195 227.071 508.876 189.389 508.876 c 0
 131.242 508.876 92.8252 552.149 102.455 606.763 c 0x14
EndSplineSet
EndChar

StartChar: T
Encoding: 84 84 24
Width: 627
VWidth: -1282
Flags: W
HStem: -14 21G<253.509 274.009> 484.876 92.124<52.9565 142.08> 510.064 91.835<378.742 507.928> 606 91.5195<87.678 204.97> 660.201 91.3203<482.953 550.915>
LayerCount: 2
Fore
SplineSet
555.408 751.521 m 0xa8
 612.338 751.521 653.395 714.622 643.636 659.274 c 0
 628.399 572.865 486.646 510.064 398.743 510.064 c 0xa8
 391.448 510.064 384.241 510.394 377.081 511 c 1
 377.083 510.983 388.588 369.934 375.301 294.577 c 0
 359.516 205.059 320.452 140.408 312.561 95.6484 c 0
 306.516 61.3662 319.777 55.5752 315.62 32 c 0
 311.212 7 286.509 -14 261.509 -14 c 0
 245.509 -14 228.625 -2 224.27 13 c 0
 218.004 35.5215 214.534 62.375 220.338 95.291 c 0
 232.682 165.296 266.685 202.526 283.104 295.646 c 0
 295.289 364.753 286.655 499.732 276.373 524 c 0
 265.98 548.529 253.036 546.378 246.368 558 c 1
 229.702 567.981 175.214 606 134.684 606 c 0
 102.752 606 87.8691 589.2 87.1289 585 c 2
 86.7764 583 l 1
 87.8779 581.08 88.1182 577 97.7178 577 c 0
 108.464 577 115.108 587 133.481 587 c 0
 158.481 587 175.778 566 171.37 541 c 0
 164.881 504.195 119.713 484.876 82.0303 484.876 c 0
 23.8828 484.876 -14.5342 528.149 -4.9043 582.763 c 0
 7.2373 651.617 78.7119 697.52 150.475 697.52 c 0xd0
 266.075 697.52 314.074 601.899 415.998 601.899 c 0
 423.727 601.899 489.594 609.01 519.006 624 c 0
 534.084 631.828 543.446 651.578 551.001 658 c 1
 549.177 659 547.354 660 543.354 660 c 0
 542.015 660.136 540.716 660.201 539.454 660.201 c 0
 517.111 660.201 506.042 640 481.827 640 c 0
 456.827 640 439.529 661 443.938 686 c 0
 450.17 721.341 504.083 751.521 555.408 751.521 c 0xa8
EndSplineSet
EndChar

StartChar: A
Encoding: 65 65 25
Width: 832
VWidth: -1282
Flags: W
HStem: -12 91.752<153.223 236.125 640.653 682.882> 196 92<411.962 520.468> 275 93<222.745 292.741> 459 120<199.227 247.317> 522 21G<342.562 380.798> 609 92<202.004 288.25 480.337 536.101>
VStem: 682.891 92.7051<80.7696 123.646>
LayerCount: 2
Fore
SplineSet
99.7617 570 m 0x96
 111.426 636.15 179.127 701 258.86 701 c 0
 342.693 701 382.356 627.553 389.401 619 c 0
 391.049 617 392.873 616 393.696 615 c 1
 409.071 628.07 445.869 696 512.979 696 c 0
 568.896 696 589.914 653.953 592.104 640 c 1
 605.137 628.737 643.318 516.106 634.317 386 c 0
 628.23 287.88 591.89 154.171 646.007 95 c 0
 658.751 81.5654 665.547 79.752 670.854 79.752 c 0
 672.818 79.752 674.578 80 676.361 80 c 0
 678.361 80 679.538 81 680.538 81 c 0
 681.538 81 682.714 82 682.891 83 c 0
 683.243 85 683.596 87 683.948 89 c 0
 688.356 114 713.06 135 738.06 135 c 0
 762.06 135 779.709 116 776.478 92 c 1
 775.596 87 l 2
 767.869 43.1787 727.239 -12 656.14 -12 c 0
 589.739 -12 525.953 51.0283 523.465 177 c 0
 523.758 190 524.873 202 525.166 215 c 1
 501.227 204 474.992 197 449.815 196 c 0
 447.815 196 445.815 196 443.815 196 c 0xd6
 421.815 196 402.697 201 385.579 206 c 1
 385.402 205 384.05 203 383.873 202 c 0
 361.458 127.611 329.497 61.0537 264.782 20 c 0
 240.961 4 212.021 -7 183.668 -9 c 1
 173.668 -9 l 2
 98.0312 -9 53.127 50.3105 59.9482 89 c 0
 64.3564 114 88.0596 135 113.06 135 c 0
 129.06 135 145.943 123 150.475 109 c 0
 155.788 92.584 170.178 82.7812 188.204 82.7812 c 0
 208.125 82.7812 232.484 94.7529 253.943 123 c 0
 285.533 164.583 300.18 233.083 303.632 246 c 1
 244.092 277.098 231.276 273.535 222.745 275 c 1
 223.04 271 223.982 265 223.276 261 c 0
 222.924 259 221.571 257 221.219 255 c 0
 207.138 209.528 165.716 188 133.405 188 c 0
 103.438 188 62.3477 210.363 72.335 267 c 0
 83.0205 327.6 150.688 368 224.144 368 c 0
 268.943 368 312.541 351.171 331.56 342 c 1
 389.899 510.1 491.876 519.604 503.936 588 c 0
 506.075 600.132 500.24 604.188 498.602 604.188 c 0
 497.402 604.188 494.913 603.469 492.052 600 c 2
 475.525 580 l 2
 456.516 557.451 428.162 528.019 390.475 523 c 0
 386.475 523 382.298 522 379.298 522 c 0xae
 305.827 522 300.289 601.138 253.462 608 c 0
 251.462 608 248.639 609 246.639 609 c 0
 214.505 609 193.925 584.831 190.826 567.26 c 0
 189.542 559.974 191.263 553.823 196.411 551 c 1
 205.232 567 227.349 579 244.349 579 c 0
 269.349 579 286.646 558 282.237 533 c 0
 279.434 517.1 247.89 459 181.189 459 c 2
 174.189 459 l 1
 120.487 462.623 89.8838 513.981 99.7617 570 c 0x96
463.037 288 m 0
 476.237 288 512.096 294 536.443 330 c 1
 541.938 380.113 546.785 415.121 537.421 483 c 1
 494.51 434.818 452.388 424.108 416.68 320 c 0
 414.622 314 413.388 307 411.33 301 c 0
 411.524 300.931 430.928 288 463.037 288 c 0
EndSplineSet
EndChar

StartChar: B
Encoding: 66 66 26
Width: 614
VWidth: -1282
Flags: W
HStem: -1.44336 86.1699<186.308 369.238> 347 86<270.726 366.999> 643.16 77.8398<269.477 379.777> 728 20G<146.887 170.546>
LayerCount: 2
Fore
SplineSet
159.387 748 m 0
 181.706 748 203.059 727.737 219.216 713 c 1
 225.745 716 233.098 718 241.098 718 c 0
 250.098 718 262.392 714 268.334 708 c 1
 291.921 717 316.626 721 340.626 721 c 0
 450.333 721 519.566 634.413 501.053 529.417 c 0
 496.286 502.384 485.349 475.737 469.018 451 c 0
 459.55 437 428.552 420 411.965 411 c 1
 427.378 402 466.791 393 479.499 380 c 0
 510.979 346.816 539.013 287.987 525.346 210.479 c 0
 503.853 88.5879 394.544 -1.44336 270.539 -1.44336 c 0
 249.479 -1.44336 215.987 0.816406 168.492 17 c 1
 158.2 4 141.613 -5 125.613 -5 c 0
 92.6133 -5 83.9912 27.1885 81.7217 58 c 1
 49.2549 78.6309 27.8076 92.5156 32.4775 119 c 0
 36.709 143 60.0596 162 84.0596 162 c 0
 89.0596 162 93.8828 161 99.5303 159 c 1
 146.058 282.635 113.018 176.495 152.27 339 c 0
 164.283 389.705 179.7 436.279 187.184 478.721 c 0
 206.574 588.688 159.478 639.24 123.223 662 c 0
 110.457 669 102.808 688 105.452 703 c 0
 109.86 728 134.387 748 159.387 748 c 0
438.356 206.557 m 0
 452.755 288.215 401.085 344.312 335.386 351 c 0
 333.386 351 330.562 352 328.738 353 c 1
 314.209 350 299.68 347 285.68 347 c 0
 272.68 347 259.856 348 247.386 351 c 1
 245.327 345 244.27 339 243.211 333 c 0
 232.982 292 224.871 246 208.23 197 c 0
 196.236 163 184.299 135 178.243 112 c 1
 225.441 89.4199 261.915 84.7266 284.035 84.7266 c 0
 365.486 84.7266 426.516 139.408 438.356 206.557 c 0
269.168 639 m 1
 283.325 595.259 290.083 540.331 278.484 474.551 c 0
 276.307 462.196 273.672 450.012 270.726 438 c 1
 280.197 435 289.844 433 299.844 433 c 0
 356.15 433 405.617 479.351 414.567 530.112 c 0
 427.24 601.983 360.984 641 326.521 641 c 0
 316.32 641 303.621 643.16 291.549 643.16 c 0
 283.501 643.16 275.731 642.2 269.168 639 c 1
EndSplineSet
EndChar

StartChar: p
Encoding: 112 112 27
Width: 383
VWidth: -1282
Flags: W
HStem: -255 21G<2.92773 22.4277> -3.25 86.6943<144.703 246.225> 239 86.2549<230.191 310.856> 361 20G<106.072 137.449>
VStem: 67.4902 108.538<274.554 360.409>
LayerCount: 2
Fore
SplineSet
84.5801 199.198 m 0
 102.324 299.829 61.9834 306.77 67.4902 338 c 4
 71.7217 362 94.0723 381 118.072 381 c 6
 119.072 381 l 6
 155.825 381 174.912 320.177 176.028 273 c 5
 199.014 297.812 239.654 325.255 289.096 325.255 c 0
 332.617 325.255 393.615 300.957 371.457 175.289 c 0
 364.137 133.776 344.585 35.0273 204.42 3 c 4
 183.686 -1.16699 163.318 -3.25 142.739 -3.25 c 0
 138.624 -3.25 134.5 -3.16699 130.362 -3 c 5
 128.341 -22.7656 125.501 -44.1387 121.587 -66.335 c 0
 112.908 -115.553 97.1357 -171.07 59.3359 -230 c 4
 50.8672 -244 29.9277 -255 14.9277 -255 c 4
 -9.07227 -255 -24.7217 -236 -20.4902 -212 c 4
 -16.5605 -189.715 19.6982 -155.347 33.9482 -74.5283 c 0
 38.6436 -47.9043 41.2783 -18.9434 45.1836 13 c 5
 40.2275 21.6396 38.2617 41.7998 39.5312 49 c 4
 42.7598 67.3096 51.1943 68.9111 59.1133 92 c 5
 69.5293 134.864 78.9131 167.059 84.5801 199.198 c 0
284.595 169.875 m 0
 289.932 200.138 292.233 239 274.033 239 c 4
 245.927 239 224.561 209.178 210.923 193 c 4
 183.928 159 161.58 123 144.703 84 c 5
 150.645 83.667 156.716 83.4443 162.864 83.4443 c 0
 230.769 83.4443 270.963 115.589 280.693 152 c 4
 282.163 157.5 283.471 163.5 284.595 169.875 c 0
EndSplineSet
EndChar

StartChar: n
Encoding: 110 110 28
Width: 355
VWidth: -1282
Flags: W
HStem: -5 21G<44.1123 67.1123 237.314 255.465> 242.215 86.7852<157.22 220.077>
VStem: 199.221 95.0029<3.82959 68.6675>
LayerCount: 2
Fore
SplineSet
31.2715 113 m 1
 36.9492 145.2 32.5166 131.4 37.3828 159 c 0
 41.4961 188 47.1963 226 48.7812 252 c 1
 46.4863 256 40.7207 263 41.0713 282 c 0
 41.4238 284 40.9531 287 41.3057 289 c 0
 45.3613 312 67.7109 331 90.8877 332 c 1
 92.8877 332 l 2
 118.237 332 129.294 305.95 128.598 302 c 2
 128.598 302 127.598 302 128.421 301 c 0
 128.245 300 129.068 299 129.893 298 c 1
 155.346 313.184 182.815 329 216.358 329 c 0
 293.346 329 315.47 250.235 309.609 217 c 2
 307.67 206 l 1
 306.378 193 301.97 168 299.148 152 c 0
 293.683 121 288.511 86 287.514 69 c 1
 293.279 62 295.987 49 294.224 39 c 0
 289.992 15 267.465 -5 243.465 -5 c 0
 231.164 -5 197.863 7.83594 199.221 56 c 0
 200.158 84 206.33 119 211.973 151 c 0
 214.794 167 218.025 191 219.965 202 c 0
 221.199 209 220.434 216 220.609 217 c 0
 216.434 229.903 215.136 242.215 203.369 242.215 c 0
 199.583 242.215 194.712 240.94 188.312 238 c 0
 178.431 233 154.609 217 152.081 214 c 0
 140.612 200 127.146 169 123.501 154 c 1
 120.68 138 119.211 124 116.566 109 c 0
 113.335 85 110.103 61 106.4 40 c 2
 105.694 36 l 2
 101.463 12 79.1123 -7 55.1123 -7 c 0
 33.1123 -7 16.4629 12 19.3418 34 c 1
 19.5186 35 l 1
 23.1025 61 27.6875 87 31.2715 113 c 1
EndSplineSet
EndChar

StartChar: m
Encoding: 109 109 29
Width: 493
VWidth: -1282
Flags: W
HStem: -5 21G<39.5537 63.0537 203.554 227.054 362.057 394.201> 238.247 86.6572<154.033 223.017 309.931 369.243>
VStem: 16.1357 85.6475<3.0405 165.1>
LayerCount: 2
Fore
SplineSet
207.113 191 m 1
 207.391 219.663 206.826 238.247 194.103 238.247 c 0
 189.945 238.247 184.491 236.264 177.343 232 c 1
 158.58 222 139.877 201 128.526 182 c 1
 126.058 168 124.59 154 122.121 140 c 0
 117.36 113 112.423 85 106.485 57 c 0
 105.251 50 103.018 43 101.783 36 c 0
 96.7275 13 74.5537 -5 51.5537 -5 c 0
 27.5537 -5 11.9033 14 16.1357 38 c 2
 16.8408 42 l 2
 18.0752 49 19.957 54 21.1914 61 c 0
 26.7754 87 31.3604 113 35.9443 139 c 0
 38.0605 151 39.3525 164 41.4688 176 c 1
 40.998 179 40.8789 184 41.4082 187 c 0
 41.9375 190 43.6426 194 45.1719 197 c 1
 47.1689 214 50.0479 236 52.0459 253 c 1
 45.3564 261.121 38.2998 271.455 41.2168 288 c 0
 45.2725 311 67.623 330 90.7988 331 c 1
 91.7988 331 l 2
 101.799 331 113.918 326 119.684 319 c 2
 133.038 304 l 1
 136.333 300 l 1
 139.686 302 143.038 304 146.391 306 c 0
 163.564 315.826 185.02 324.904 210.938 324.904 c 0
 239.252 324.904 260.651 314.08 276.099 293 c 1
 297.275 311.002 331.823 330 364.623 330 c 0
 410.623 330 473.763 296.766 453.174 180 c 0
 448.942 156 443.415 136 440.241 118 c 0
 439.472 114.635 438.801 111.301 438.216 107.987 c 0
 433.209 79.5918 435.211 44.0986 433.959 37 c 0
 429.728 13 406.201 -7 382.201 -7 c 0
 341.912 -7 340.353 41.2793 351.388 103.862 c 0
 355.415 126.703 361.804 149.545 367.174 180 c 0
 376.508 232.938 359.308 243 349.282 243 c 0
 340.482 243 338.358 240.249 325.167 231 c 1
 312.227 220 300.053 202 293.408 187 c 1
 292.292 169.883 290.04 153.167 287.164 136.854 c 0
 285.503 127.435 283.634 118.151 281.654 109 c 2
 265.783 36 l 2
 260.728 13 238.554 -5 215.554 -5 c 0
 191.554 -5 175.903 14 180.136 38 c 2
 180.312 39 l 1
 185.544 63 189.775 87 195.008 111 c 1
 202.766 155 l 1
 201.647 160 201.234 169 202.116 174 c 0
 202.292 175 202.469 176 202.645 177 c 0
 203.526 182 205.231 186 207.113 191 c 1
EndSplineSet
EndChar

StartChar: f
Encoding: 102 102 30
Width: 314
VWidth: -1282
Flags: W
HStem: 279.505 86.1992<235.441 299.403> 311 85.9492<79.6777 141.005> 389 20G<333.769 355.269> 666 86.1074<283.027 385.531>
LayerCount: 2
Fore
SplineSet
322.584 666 m 0x50
 302.878 666 269.861 646.394 259.528 587.794 c 0
 251.812 544.035 259.397 565.992 235.215 369 c 1
 240.039 368 244.687 366 248.687 366 c 0
 250.642 365.801 252.57 365.704 254.47 365.704 c 0
 270.377 365.704 284.33 372.498 296.684 383 c 1
 305.152 397 326.269 409 341.269 409 c 2
 343.269 409 l 2
 367.269 409 382.741 389 378.51 365 c 0
 373.243 335.132 311.404 279.505 238.757 279.505 c 0xb0
 234.655 279.505 230.574 279.671 226.522 280 c 0
 225.522 280 224.522 280 223.522 280 c 2
 219.408 251 l 2
 215.961 227.667 212.618 203.667 208.309 179.222 c 0
 196.59 112.762 161.93 -61.8662 -17.709 -158 c 0
 -24.2383 -161 -33.7676 -164 -40.7676 -164 c 0
 -64.7676 -164 -80.417 -145 -76.1855 -121 c 0
 -64.8984 -56.9873 76.0381 -80.3193 123.692 189.942 c 0
 127.82 213.354 139.837 295.311 141.283 307 c 1
 131.812 310 122.988 311 116.988 311 c 0
 85.5283 308.185 78.334 271 43.9346 271 c 0
 19.9346 271 4.28516 290 8.51758 314 c 0
 13.4072 341.735 63.1904 396.949 136.297 396.949 c 0
 141.73 396.949 147.294 396.644 152.976 396 c 1
 165.32 490.329 165.908 546.81 172.556 584.512 c 0
 194.682 709.996 281.611 752.107 334.614 752.107 c 0
 386.294 752.107 425.389 721.604 419.64 689 c 0
 415.408 665 392.058 646 368.058 646 c 0
 343.558 646 342.185 666 322.584 666 c 0x50
EndSplineSet
EndChar

StartChar: k
Encoding: 107 107 31
Width: 390
VWidth: -1282
Flags: W
HStem: -39.2373 103.237<219 258.417> -9 21G<-7.7793 14.2207> 237.27 88.8574<133.051 204.985> 736 20G<212.135 235.523>
VStem: -31.1973 324.657
LayerCount: 2
Fore
SplineSet
126.488 174 m 1x38
 134.488 174 l 2
 137.488 174 141.312 173 145.136 172 c 1
 178.53 172 203.087 184.491 206.466 203.659 c 0
 207.25 208.105 206.896 212.909 205.247 218 c 1
 199.813 228.099 184.912 237 173.598 237 c 1
 171.803 237.183 170.041 237.27 168.312 237.27 c 0
 130.191 237.27 108.5 194.717 108.016 194 c 0
 107.134 189 106.075 183 104.194 178 c 1
 111.841 176 118.665 175 126.488 174 c 1x38
189.949 326.127 m 0
 256.095 326.127 305.006 268.036 293.46 202.558 c 0
 280.459 128.826 206.538 100.933 205.44 100 c 1
 216.499 75.3525 217.667 60.5371 218.682 56 c 1
 225.388 60 238.093 64 245.093 64 c 0
 269.093 64 284.742 45 280.511 21 c 0
 275.896 -5.16602 242.514 -39.2373 200.779 -39.2373 c 0xb8
 148.535 -39.2373 136.832 1.76172 129.037 41 c 0
 125.211 59 114.855 74 103.148 87 c 1
 94.3242 88 85.6768 90 77.0303 92 c 1
 76.501 89 l 1
 68.7979 68 62.0947 47 53.3926 26 c 0
 45.8652 6 24.2207 -9 4.2207 -9 c 0x78
 -19.7793 -9 -35.4287 10 -31.1973 34 c 0
 -28.7256 48.0176 17.0439 145.743 40.3379 277.85 c 0
 68.4541 437.307 39.8711 475.846 57.126 573.701 c 0
 82.9912 720.39 202.159 756 222.111 756 c 2
 224.111 756 l 1
 246.935 755 261.761 737 257.705 714 c 0
 254.531 696 238.181 677 220.3 672 c 0
 179.872 658.567 152.729 625.811 142.789 569.438 c 0
 130.991 502.527 152.322 466.774 132.175 314 c 1
 150.847 321.319 170.751 326.127 189.949 326.127 c 0
EndSplineSet
EndChar

StartChar: c
Encoding: 99 99 32
Width: 303
VWidth: -1282
Flags: W
HStem: -1.87695 87.4961<100.095 178.662> 240.085 86.915<127.909 210.981>
VStem: 13.459 272.959
LayerCount: 2
Fore
SplineSet
13.459 154.177 m 0
 34.708 274.685 125.352 327 190.995 327 c 4
 253.507 327 291.849 280.8 286.418 250 c 4
 282.186 226 258.836 207 234.836 207 c 4
 201.495 207 208.437 240.085 172.332 240.085 c 0
 164.199 240.085 138.622 228.394 127.423 216 c 4
 110.979 198.247 106.072 192.313 100.697 161.831 c 0
 100.017 157.972 99.3291 153.72 98.6084 149 c 4
 89.0547 94.8135 117.146 85.6191 136.954 85.6191 c 0
 160.933 85.6191 175.735 101.212 178.203 107 c 4
 187.024 123 207.316 136 224.316 136 c 4
 248.316 136 263.966 117 259.734 93 c 4
 253.955 60.2217 198.262 -1.87695 121.847 -1.87695 c 0
 55.7812 -1.87695 -5.18457 48.4453 13.459 154.177 c 0
EndSplineSet
EndChar

StartChar: h
Encoding: 104 104 33
Width: 334
VWidth: -1282
Flags: W
HStem: -171 83<13.8639 78.7691> -8 21G<1.89551 24.3955> 726 20G<222.7 247.846>
VStem: -22.5225 302.512
LayerCount: 2
Fore
SplineSet
68.4473 567.082 m 0
 92.2812 702.248 212.554 746 232.846 746 c 4
 233.846 746 234.846 746 235.846 746 c 4
 259.846 746 275.496 727 271.264 703 c 4
 268.09 685 250.74 666 232.858 661 c 4
 203.381 651.383 165.637 626.402 155.112 566.717 c 0
 148.467 529.029 148.396 424.552 129.262 306 c 5
 144.693 313.09 162.855 319.792 183.63 319.792 c 0
 249.13 319.792 297.203 254.626 279.989 157 c 4
 276.193 135.473 249.332 18.9912 197.608 -55 c 4
 149.97 -122.263 69.9541 -171 43.1543 -171 c 4
 19.1543 -171 3.68066 -151 7.91211 -127 c 4
 10.5576 -112 24.7314 -94 39.7891 -88 c 4
 132.516 -46.6602 161.399 45.1777 176.352 91 c 4
 184.407 114 190.11 135 193.637 155 c 4
 195.913 167.908 201.35 225.165 171.391 233 c 4
 167.889 234.24 152.267 230.168 145.627 223 c 5
 128.403 208.358 94.165 126.602 83.5859 98 c 5
 77.5303 75 69.4746 52 62.4199 29 c 4
 55.7168 8 34.8955 -8 13.8955 -8 c 4
 -10.1045 -8 -26.7549 11 -22.5225 35 c 4
 -22.3467 36 -22.1699 37 -21.9932 38 c 4
 -12.3027 82.4541 13.0713 132.333 39.2852 280.999 c 0
 66.4619 435.127 59.2754 515.062 68.4473 567.082 c 0
EndSplineSet
EndChar

StartChar: b
Encoding: 98 98 34
Width: 385
VWidth: -1282
Flags: W
HStem: 1.63184 86.7598<105.445 202.853> 240.01 86.2451<179.857 236.844> 723 20G<164.27 186.27>
LayerCount: 2
Fore
SplineSet
57.5547 229.138 m 0
 74.2783 323.982 55.2705 418.826 77.5684 545.284 c 0
 87.2871 600.404 103.43 655.393 125.774 709 c 0
 133.125 728 154.77 743 173.77 743 c 2
 174.77 743 l 2
 197.77 743 213.243 723 209.188 700 c 0
 205.475 678.942 180.029 635.314 163.817 543.372 c 0
 147.857 452.858 156.831 384.438 151.128 297 c 1
 174.859 313.075 202.639 326.255 238.14 326.255 c 0
 281.332 326.255 342.125 303.608 318.901 171.896 c 0
 294.883 35.6846 181.818 1.63184 127.405 1.63184 c 0
 104.694 1.63184 83.4404 6.54199 63.4043 15 c 1
 54.6406 5 37.2305 -3 25.2305 -3 c 0
 1.23047 -3 -14.2432 17 -10.0117 41 c 2
 -9.12988 46 l 1
 -6.71973 54 -3.30859 62 -0.898438 70 c 1
 -15.1895 94.29 -23.8828 126.8 -21.3789 141 c 0
 -17.1475 165 5.20312 184 29.2031 184 c 0
 34.2031 184 41.8506 182 46.498 180 c 1
 50.8018 196.105 54.6641 212.746 57.5547 229.138 c 0
233.035 173.353 m 0
 243.189 230.945 231.762 240 223.077 240 c 0
 222.627 240 222.103 240.01 221.503 240.01 c 0
 211.465 240.01 180.36 237.214 121.092 138 c 1
 116.624 124 110.331 111 104.862 97 c 1
 115.817 91.4297 129.753 88.3916 143.229 88.3916 c 0
 167.882 88.3916 219.844 98.5449 233.035 173.353 c 0
EndSplineSet
EndChar

StartChar: s
Encoding: 115 115 35
Width: 302
VWidth: -1282
Flags: W
HStem: -2.65137 87.082<89.3383 169.251> 245 86.126<134.716 199.252>
VStem: 2.08594 283.626
LayerCount: 2
Fore
SplineSet
134.304 233.996 m 0
 128.283 199.729 274.846 200.734 256.838 98.6084 c 0
 246.125 37.8525 181.421 -2.65137 119.108 -2.65137 c 0
 44.4609 -2.65137 -3.9541 56.7422 2.08594 91 c 0
 6.31836 115 28.668 134 52.668 134 c 0
 93.0605 134 80.7959 84.4307 134.593 84.4307 c 0
 155.951 84.4307 169.842 95.2861 170.32 98 c 2
 170.497 99 l 1
 164.259 118.272 29.2588 133.123 47.3789 235.887 c 0
 54.9121 278.609 103.653 331.126 176.196 331.126 c 0
 249.559 331.126 290.385 268.503 285.712 242 c 0
 281.479 218 258.13 199 234.13 199 c 0
 195.831 199 203.023 245 158.24 245 c 0
 148.44 245 135.106 238.566 134.304 233.996 c 0
EndSplineSet
EndChar

StartChar: e
Encoding: 101 101 36
Width: 351
VWidth: -1282
Flags: W
HStem: -2 86<103.74 187.164> 242.657 86.3428<132.852 195.001>
VStem: 12.6191 346.693
LayerCount: 2
Fore
SplineSet
12.6191 150 m 4
 29.7334 247.06 109.218 329 187.182 329 c 4
 241.832 329 276.671 286.4 271.663 258 c 5
 300.804 276.486 314.295 282 323.895 282 c 4
 347.895 282 363.545 263 359.312 239 c 4
 357.373 228 347.552 212 337.317 205 c 4
 256.498 148.094 174.271 124.938 99.3301 120 c 5
 104.296 95.0059 118.182 84 134.982 84 c 4
 145.382 84 172.646 92.5225 191.743 111 c 4
 200.33 120 216.564 127 227.564 127 c 4
 251.564 127 267.214 108 262.982 84 c 4
 256.088 44.9004 178.509 -2 119.818 -2 c 4
 34.8037 -2 -0.989258 72.8232 12.6191 150 c 4
195.491 223 m 5
 190.709 226.612 186.104 242.657 172.929 242.657 c 1
 144.271 238.956 142.288 229.875 123.847 208 c 5
 152.438 211.984 131.733 204.116 195.491 223 c 5
EndSplineSet
EndChar

StartChar: r
Encoding: 114 114 37
Width: 344
VWidth: -1282
Flags: W
HStem: -4 21G<44.4648 67.4648> 240.404 87.5957<155.112 218.142>
VStem: 19.6943 290.152
LayerCount: 2
Fore
SplineSet
30.624 116 m 1
 36.8086 151.07 29.6211 115.982 37.7354 162 c 1
 41.8486 191 46.8438 225 48.4287 251 c 1
 46.1338 255 39.3682 262 39.7188 281 c 1
 40.9531 288 l 2
 45.0078 311 66.5352 331 91.5352 331 c 3
 123.535 331 127.068 300 129.54 297 c 1
 154.993 312.184 182.463 328 216.006 328 c 0
 308.537 328 312.615 223.701 309.847 208 c 0
 305.65 184.205 290.929 138 251.504 138 c 0
 227.504 138 210.854 157 215.086 181 c 0
 215.438 183 216.968 186 217.32 188 c 0
 221.26 199 221.494 206 221.847 208 c 0
 222.773 213.256 214.984 233.837 214.607 235 c 0
 211.452 238.831 207.158 240.404 202.237 240.404 c 0
 185.655 240.404 161.956 222.545 150.729 213 c 1
 139.436 200 127.499 172 123.854 157 c 1
 121.032 141 119.564 127 116.919 112 c 0
 113.688 88 110.455 64 106.753 43 c 2
 106.047 39 l 2
 101.815 15 79.4648 -4 55.4648 -4 c 0
 33.4648 -4 16.8154 15 19.6943 37 c 1
 19.8711 38 l 1
 23.4551 64 27.04 90 30.624 116 c 1
EndSplineSet
EndChar

StartChar: o
Encoding: 111 111 38
Width: 315
VWidth: -1282
Flags: W
HStem: -3.15137 86.1514<104.124 169.492> 241.094 86.9062<133.258 197.048>
VStem: 14.4697 271.101
LayerCount: 2
Fore
SplineSet
116.804 -3.15137 m 0
 53.3213 -3.15137 -3.37598 52.8887 14.4697 154.099 c 0
 29.916 241.699 104.786 328 191.195 328 c 5
 252.24 324.996 301.047 264.771 285.57 177 c 4
 285.269 174.938 284.936 172.871 284.571 170.802 c 0
 271.209 95.0215 208.461 -3.15137 116.804 -3.15137 c 0
169.776 241.094 m 0
 158.977 241.094 110.694 212.265 100.689 155.523 c 0
 90.6387 98.5264 118.65 83 132.995 83 c 4
 142.995 83 186.055 100.35 199.394 176 c 4
 208.737 228.99 177.365 241.094 169.776 241.094 c 0
EndSplineSet
EndChar

StartChar: j
Encoding: 106 106 39
Width: 209
VWidth: -1282
Flags: W
HStem: -248.996 86.6152<-117.775 -33.4355> -103 86<-117.129 -54.389> 310 20G<80.2383 111.578> 456 93<82.1253 153.275>
VStem: 72.0664 91<465.628 538.989>
LayerCount: 2
Fore
SplineSet
163.066 502 m 4
 158.482 476 133.956 456 108.956 456 c 4
 83.9561 456 67.4824 476 72.0664 502 c 4
 76.6514 528 100.354 549 125.354 549 c 4
 150.354 549 167.651 528 163.066 502 c 4
53.3301 197.17 m 0
 62.7275 250.468 37.0859 258.241 41.9805 286 c 0
 46.0352 309 68.7383 330 91.7383 330 c 2
 92.7383 330 l 2
 130.418 330 152.017 264.765 139.498 193.765 c 0
 132.306 152.979 119.2 123.517 113.486 91.1152 c 0
 106.336 50.5615 105.689 -1.71094 97.2803 -49.4053 c 0
 70.9473 -198.746 -35.2715 -248.996 -100.178 -248.996 c 0
 -173.046 -248.996 -216.248 -191.681 -204.667 -126 c 0
 -195.573 -74.4277 -143.234 -20.3643 -85.4473 -17 c 1
 -81.4473 -17 l 2
 -57.4473 -17 -41.7969 -36 -46.0293 -60 c 0
 -49.9082 -82 -71.2588 -101 -93.6113 -103 c 1
 -106.211 -103 -117.626 -120.1 -119.02 -128 c 0
 -122.345 -146.859 -107.303 -162.381 -83.1094 -162.381 c 0
 -76.8027 -162.381 -69.873 -161.326 -62.4854 -159 c 1
 -25.3271 -144.735 1.67188 -101.938 11.8203 -44.3848 c 0
 18.7559 -5.04883 16.2422 34.2861 25.4902 86.7324 c 0
 32.5176 126.586 48.3135 168.717 53.3301 197.17 c 0
EndSplineSet
EndChar

StartChar: i
Encoding: 105 105 40
Width: 214
VWidth: -1282
Flags: W
HStem: -4.49512 21G<27.7251 64.2207> 449 93<68.9522 140.101>
VStem: -7.16211 124.472<14.5403 95.7739> 37.8066 90.1709<202.992 313.861> 58.8936 91<458.628 531.989>
LayerCount: 2
Fore
SplineSet
149.894 495 m 4xc8
 145.309 469 120.782 449 95.7822 449 c 4
 70.7822 449 54.3086 469 58.8936 495 c 4
 63.4785 521 87.1807 542 112.181 542 c 4
 137.181 542 154.479 521 149.894 495 c 4xc8
40.5518 200.991 m 0
 48.166 244.173 33.7275 255.866 37.8066 279 c 4
 42.0391 303 64.3887 322 88.3887 322 c 6
 90.3887 322 l 5
 143.215 318.436 130.897 217.051 127.978 200.492 c 0xd0
 120.749 159.495 103.192 128.423 89.8916 98 c 5
 108.187 94 120.66 74 117.31 55 c 6
 116.604 51 l 5
 109.802 22.0703 80.3994 -4.49512 48.042 -4.49512 c 0
 7.4082 -4.49512 -13.7783 28.9814 -7.16211 66.5 c 0xe0
 0.170898 108.092 34.457 166.425 40.5518 200.991 c 0
EndSplineSet
EndChar

StartChar: d
Encoding: 100 100 41
Width: 325
VWidth: -1282
Flags: W
HStem: -4 87<69.0992 141.304> 672 86<187.089 269.531>
VStem: -23.8496 346.098
LayerCount: 2
Fore
SplineSet
77.3213 600 m 0
 94.002 694.605 171.093 758 238.181 758 c 2
 243.181 758 l 5
 294.628 756.151 327.129 723.68 322.248 696 c 4
 318.017 672 294.666 653 270.666 653 c 4
 246.113 653 244.071 672 225.017 672 c 4
 185.816 672 166.29 616.839 162.969 598 c 0
 160.321 582.987 147.761 486.871 194.471 374 c 5
 216.278 318.262 262.293 242.55 245.974 150 c 0
 230.431 61.8525 160.34 -4 87.8193 -4 c 0
 11.6426 -4 -38.6484 67.0713 -23.8496 151 c 0
 -18.875 179.215 2.69141 254.622 94.7148 313 c 4
 101.42 317 108.126 321 114.831 325 c 4
 114.801 325.093 52.46 459.005 77.3213 600 c 0
103.16 83 m 0
 128.871 83 153.649 114.134 160.15 151 c 0
 167.133 190.6 155.039 224.445 145.606 250 c 5
 125.614 240.814 72.2852 202.808 63.1504 151 c 0
 55.6025 108.195 78.6309 83 103.16 83 c 0
EndSplineSet
EndChar

StartChar: a
Encoding: 97 97 42
Width: 379
VWidth: -1282
Flags: W
HStem: -1.32422 86.3242<96.3284 152.933> 243 86.4443<144.347 224.261>
VStem: 9.52832 328.268
LayerCount: 2
Fore
SplineSet
9.52832 133.57 m 0
 20.4795 195.679 84.707 329 207.083 329 c 0
 210.416 329 213.829 329.444 217.162 329.444 c 0
 222.646 328.949 241.591 328.173 269.262 313 c 1
 277.496 320 291.378 325 301.378 325 c 0
 325.378 325 342.028 306 337.796 282 c 0
 334.754 264.746 305.314 228.229 292.402 155 c 0
 290.463 144 288.699 134 287.76 123 c 1
 290.937 124 296.112 125 299.112 125 c 0
 323.112 125 338.763 106 334.53 82 c 0
 333.473 76 328.709 66 324.651 60 c 2
 307.596 37 l 2
 303.714 32 296.48 25 290.951 22 c 2
 262.13 6 l 2
 255.425 2 244.896 -1 237.896 -1 c 0
 229.641 -1 201.813 2.46191 200.83 44 c 1
 196.135 40.0078 157.19 -1.32422 103.719 -1.32422 c 0
 35.6016 -1.32422 -4.15625 55.9609 9.52832 133.57 c 0
95.1709 131 m 0
 90.9629 107.135 100.204 88.623 114.06 85 c 1
 141.139 85 170.999 122.26 224.627 230 c 1
 216.861 237 206.743 242 196.919 243 c 1
 185.919 243 l 1
 137.079 238.989 102.04 169.961 95.1709 131 c 0
EndSplineSet
EndChar

StartChar: g
Encoding: 103 103 43
Width: 359
VWidth: -1282
Flags: W
HStem: -249.593 86.5537<72.6223 153.634> -99 86<100.499 137.183> -0.324219 86.3242<121.533 177.701> 244 86.4443<169.324 249.238>
LayerCount: 2
Fore
SplineSet
34.5049 134.57 m 0
 45.4561 196.679 109.684 330 232.06 330 c 4
 235.393 330 238.805 330.444 242.138 330.444 c 0
 247.729 329.94 267.129 329.413 295.238 314 c 5
 303.473 321 316.354 326 326.354 326 c 4
 350.354 326 367.004 307 362.772 283 c 4
 362.243 280 360.361 275 358.833 272 c 5
 358.48 270 l 6
 358.304 269 357.128 268 356.951 267 c 4
 330.804 211.793 318.42 166.173 310.799 122.953 c 0
 302.987 78.6514 298.527 31.5098 289.714 -18.4717 c 0
 276.487 -93.4824 255.572 -156.674 197.549 -206 c 4
 172.812 -227.028 134.907 -249.593 89.5898 -249.593 c 0
 19.1641 -249.593 -26.4717 -194.054 -14.8779 -128.303 c 0
 -6.30859 -79.707 37.6006 -25.6816 100.403 -14 c 4
 102.403 -14 107.58 -13 109.58 -13 c 4
 133.58 -13 149.053 -33 144.821 -57 c 4
 141.295 -77 121.944 -96 101.415 -99 c 4
 86.6865 -101.385 73.1953 -117.263 71.4785 -127 c 4
 68.3047 -144.997 80.1787 -163.039 104.357 -163.039 c 0
 128.264 -163.039 156.242 -143.278 172.418 -116 c 4
 186.474 -93 194.939 -62 201.582 -30 c 4
 205.108 -10 208.988 12 211.69 33 c 5
 184.346 11.7598 162.368 -0.324219 128.899 -0.324219 c 0
 57.9912 -0.324219 21.7959 62.4971 34.5049 134.57 c 0
121.147 132 m 4
 116.602 106.219 125.54 89.5293 139.036 86 c 5
 166.115 86 195.975 123.26 249.604 231 c 5
 241.838 238 231.72 243 221.896 244 c 5
 210.896 244 l 5
 160.205 239.837 127.257 166.65 121.147 132 c 4
EndSplineSet
EndChar

StartChar: l
Encoding: 108 108 44
Width: 192
VWidth: -1282
Flags: W
HStem: -6.49512 21G<9.19531 46.9219>
VStem: -23.6279 204.33
LayerCount: 2
Fore
SplineSet
25.6748 238.329 m 0
 41.2588 326.711 28.3604 415.094 49.1396 532.938 c 0
 59.0566 589.177 75.1846 645.308 97.29 700 c 4
 104.64 719 126.284 734 145.285 734 c 4
 169.285 734 184.935 715 180.702 691 c 4
 177.933 675.293 152.315 628.173 135.698 533.933 c 0
 115.161 417.459 133.182 351.942 113.928 242.748 c 0
 103.577 184.049 84.9951 139.932 70.7881 96 c 5
 90.2588 93 102.732 73 99.2061 53 c 4
 99.0293 52 98.8535 51 98.6768 50 c 4
 92.3516 23.0996 64.833 -6.49512 29.0107 -6.49512 c 0
 -10.6201 -6.49512 -31.3848 25.583 -23.6279 69.5723 c 0
 -16.7451 108.606 15.3691 179.88 25.6748 238.329 c 0
EndSplineSet
EndChar

StartChar: t
Encoding: 116 116 45
Width: 326
VWidth: -1282
Flags: W
HStem: -4.06836 87.0684<104.017 164.607> 287 94<24.372 111.933> 295 86<24.372 111.108> 374 21G<116.106 124.899> 488 20G<151.558 173.146>
VStem: 124.518 87.5293<377 480.406>
LayerCount: 2
Fore
SplineSet
124.518 374 m 1x9c
 125.28 420.685 111.354 446.8 114.563 465 c 0
 118.619 488 139.97 507 163.146 508 c 1
 165.146 508 l 2
 181.146 508 197.03 496 200.562 482 c 0
 209.566 448 213.395 413 212.047 377 c 1
 263.746 383.735 258.434 386 269.634 386 c 0
 293.634 386 310.283 367 306.052 343 c 0
 302.701 324 283.352 305 264.646 301 c 0
 242.765 296 221.06 292 199.706 290 c 1
 178.617 202.435 136.547 156.08 129.679 117.13 c 0
 126.068 96.6523 131.879 83 144.207 83 c 0
 153.106 83 158.37 89.5996 159.146 94 c 0
 164.85 115 187.847 132 208.847 132 c 0
 232.847 132 248.497 113 244.265 89 c 2
 243.383 84 l 1
 225.896 24.9844 169.317 -4.06836 130.292 -4.06836 c 0
 79.4121 -4.06836 29.249 37.9795 42.8818 115.295 c 0
 54.3506 180.333 90.9814 208.947 112.178 287 c 1xcc
 89.3535 288 66.8828 291 44.5879 295 c 0xac
 25.293 299 12.4678 317 15.9941 337 c 0
 20.2256 361 43.752 381 67.752 381 c 0xcc
 69.752 381 72.5762 380 74.5762 380 c 0
 91.0469 377 107.694 375 124.518 374 c 1x9c
EndSplineSet
EndChar

StartChar: u
Encoding: 117 117 46
Width: 320
VWidth: -1282
Flags: W
HStem: -2.75586 86.6289<96.6103 175.333> 315 20G<100.777 124.777 222.602 244.726>
LayerCount: 2
Fore
SplineSet
115.245 -2.75586 m 3
 47.0986 -2.75586 -3.99512 52.9873 9.30078 128.392 c 0
 9.51172 129.589 9.73926 130.792 9.9834 132 c 0
 10.9619 141.333 12.2949 150.778 13.9658 160.259 c 0
 24.3154 218.955 43.8848 266.405 67.8408 307 c 0
 74.3535 318.3 88.7773 335 112.777 335 c 0
 136.777 335 153.428 316 149.195 292 c 0
 146.355 275.89 112.795 236.51 98.7188 156.678 c 0
 96.8799 146.249 96.2275 139.057 94.9834 132 c 0
 89.6924 101.995 109.361 83.873 131.626 83.873 c 3
 135.771 83.873 188.827 87.6885 203.289 169.704 c 0
 221.405 272.45 176.049 245.798 184.02 291 c 0
 188.251 315 210.602 334 234.602 334 c 3
 254.85 334 313.298 303.922 288.67 164.25 c 0
 266.381 37.8438 162.829 -2.75586 115.245 -2.75586 c 3
EndSplineSet
EndChar

StartChar: y
Encoding: 121 121 47
Width: 401
VWidth: -1282
Flags: W
HStem: -251.962 86.5518<118.057 197.77> -48 20G<99.4722 128.653> -3.1416 87.1416<167.454 221.498> 316 20G<126.249 145.837 362.66 383.66>
VStem: 88.0781 84.8799<87.0035 327.084>
LayerCount: 2
Fore
SplineSet
99.6221 193 m 0
 107.791 239.329 84.4238 271.272 88.0781 292 c 0
 92.1338 315 114.66 335 137.837 336 c 1
 138.837 336 l 2
 152.837 336 168.073 326 172.958 314 c 0
 186.786 279 192.499 232 185.445 192 c 0
 180.509 164.003 170.417 136.005 167.949 122.006 c 0
 161.323 84.4307 180.265 84.2979 181.402 84 c 0
 229.343 84 263.486 175.289 323.842 302 c 0
 324.018 303 324.842 302 325.018 303 c 0
 333.016 320 353.66 335 371.66 335 c 0
 395.66 335 412.311 316 408.078 292 c 0
 407.55 289 405.491 283 403.963 280 c 0
 403.786 279 402.786 279 402.609 278 c 0
 388.046 249.424 364.568 180.493 353.106 115.488 c 0
 345.596 72.8936 340.558 27.5205 332.263 -19.5205 c 0
 331.356 -24.6611 330.41 -29.8213 329.42 -35 c 0
 299.194 -206.413 196.516 -251.962 133.416 -251.962 c 0
 57.4492 -251.962 19.6084 -187.997 29.5791 -131.45 c 0
 38.9443 -78.334 82.291 -28 116.653 -28 c 0
 140.653 -28 156.304 -47 152.071 -71 c 0
 146.882 -100.434 120.652 -103.902 116.239 -128.929 c 0
 115.854 -131.111 115.635 -133.458 115.61 -136 c 0
 116.325 -151.568 130.396 -165.41 151.428 -165.41 c 0
 179.523 -165.41 203.675 -139.124 215.608 -119 c 0
 229.663 -96 237.777 -67 243.596 -34 c 0
 247.299 -13 251.002 8 253.881 30 c 1
 212.412 -2.20996 181.515 -3.1416 169.9 -3.1416 c 0
 117.691 -3.1416 66.5498 34.7412 81.6357 120.296 c 0
 86.3701 147.147 96.6064 175.896 99.6221 193 c 0
EndSplineSet
EndChar

StartChar: q
Encoding: 113 113 48
Width: 381
VWidth: -1282
Flags: W
HStem: -256.249 86.249<245.289 286.941> -2.32422 86.3242<118.715 175.124> 242 86.4443<166.735 246.648>
VStem: 288.126 85.8877<-149.862 -104.469>
LayerCount: 2
Fore
SplineSet
31.915 132.57 m 0
 42.8672 194.679 107.095 328 229.471 328 c 4
 232.804 328 236.216 328.444 239.549 328.444 c 0
 245.032 327.949 263.978 327.173 291.649 312 c 5
 299.884 319 313.765 324 323.765 324 c 4
 347.765 324 364.415 305 360.183 281 c 4
 357.415 265.303 326.313 220.669 311.93 139.09 c 0
 306.205 106.624 303.418 71.7002 296.856 34.4912 c 0
 282.259 -48.2969 249.643 -97.835 243.576 -132.239 c 0
 241.65 -143.157 242.399 -152.551 247.246 -161 c 4
 250.365 -166 256.659 -170 262.659 -170 c 4
 278.995 -170 286.072 -157.893 287.459 -150.031 c 0
 288.089 -146.454 287.718 -141.311 288.126 -139 c 4
 292.357 -115 315.708 -96 339.708 -96 c 4
 351.991 -96 382.477 -103.436 374.014 -151.432 c 0
 364.8 -203.687 314.747 -256.249 248.171 -256.249 c 0
 194.898 -256.249 143.183 -215.842 158.548 -128.697 c 0
 169.107 -68.8105 195.021 -48.8486 209.102 31 c 5
 188.546 13.5264 159.157 -2.32422 126.105 -2.32422 c 0
 57.9883 -2.32422 18.2305 54.9609 31.915 132.57 c 0
117.558 130 m 4
 113.35 106.135 122.592 87.623 136.446 84 c 5
 163.525 84 193.386 121.26 247.014 229 c 5
 239.248 236 229.13 241 219.307 242 c 5
 208.307 242 l 5
 159.466 237.989 124.428 168.961 117.558 130 c 4
EndSplineSet
EndChar

StartChar: x
Encoding: 120 120 49
Width: 404
VWidth: -1282
Flags: W
HStem: -2.15137 86.1514<40.0469 135.717 250.692 333.739> 242.094 86.9062<100.373 162.69 280.046 377.205>
LayerCount: 2
Fore
SplineSet
23.8555 242 m 4
 28.459 268.108 84.4229 329 157.195 329 c 5
 193.02 328 218.492 308 234.261 284 c 5
 279.223 325.774 319.087 328.729 332.468 328.729 c 0
 369.676 328.729 416.794 304.037 410.264 267 c 4
 406.031 243 383.681 224 359.681 224 c 4
 333.831 224 333.48 242 315.855 242 c 5
 302.366 239.816 257.317 211.13 247.689 156.523 c 0
 240.423 115.314 253.339 84 280.995 84 c 4
 293.646 84 308.495 103 330.346 103 c 4
 354.346 103 370.995 84 366.764 60 c 4
 361.062 27.6641 312.207 -2.15137 263.804 -2.15137 c 0
 223.908 -2.15137 196.748 18.1064 181.413 41 c 5
 174.545 33.9658 137.404 -2.15137 82.8037 -2.15137 c 0
 34.3457 -2.15137 -11.9648 33.1846 -5.47363 70 c 4
 -1.24121 94 21.1084 113 45.1084 113 c 4
 75.9756 113 72.0576 84 99.9951 84 c 4
 109.795 84 152.275 102.6 165.394 177 c 4
 174.737 229.99 143.365 242.094 135.776 242.094 c 0
 116.289 242.094 92.2178 199 59.2725 199 c 4
 35.2725 199 19.623 218 23.8555 242 c 4
EndSplineSet
EndChar

StartChar: v
Encoding: 118 118 50
Width: 356
VWidth: -1282
Flags: W
HStem: -8 21G<152.539 165.819> 320 20G<67.3281 85.3281 314.681 337.681>
VStem: 273.536 84.9062<213.226 329.785>
LayerCount: 2
Fore
SplineSet
326.681 340 m 0
 348.681 340 364.331 321 361.451 299 c 0
 360.694 291.898 359.692 284.797 358.442 277.709 c 0
 342.342 186.398 305.502 145.617 200.021 13 c 0
 191.082 2 172.319 -8 159.319 -8 c 7
 145.758 -8 82.5859 9.60449 66.7129 119 c 0
 59.9658 165.495 67.9141 208.139 32.8086 267 c 0
 29.043 274 26.1592 286 27.5703 294 c 0
 31.8018 318 55.3281 338 79.3281 338 c 0
 91.3281 338 104.918 330 110.154 320 c 0
 167.657 222.594 138.574 158.71 167.362 100 c 1
 173.597 107 178.008 115 184.241 122 c 0
 218.912 163.696 261.348 210.894 273.536 280.015 c 0
 274.299 284.339 274.919 288.67 275.394 293 c 0
 275.57 294 274.746 295 274.923 296 c 0
 279.154 320 302.681 340 326.681 340 c 0
EndSplineSet
EndChar

StartChar: w
Encoding: 119 119 51
Width: 530
VWidth: -1282
Flags: W
HStem: -8 21G<134.949 153.819 321.819 333.819> 320 20G<53.1523 71.1523 272.505 289.505 482.681 506.681>
LayerCount: 2
Fore
SplineSet
349.36 117 m 5
 363.037 137.222 426.977 197.446 441.536 280.015 c 0
 442.299 284.339 442.919 288.67 443.394 293 c 4
 443.57 294 443.746 295 443.923 296 c 4
 448.154 320 470.681 340 494.681 340 c 6
 495.681 340 l 6
 517.681 340 533.331 321 530.451 299 c 4
 529.694 291.898 528.692 284.797 527.442 277.709 c 0
 512.383 192.304 473.276 144.412 417.954 75 c 6
 368.021 13 l 6
 359.082 2 340.319 -8 327.319 -8 c 4
 316.319 -8 302.729 0 297.316 9 c 4
 267.381 57 255.87 104.501 251.002 149 c 5
 227.496 98.124 229.956 97.2402 191.609 22 c 4
 182.788 6 162.319 -8 145.319 -8 c 4
 124.579 -8 73.3955 19.2285 55.5361 118 c 5
 46.7783 178.357 50.1934 210.771 17.9854 268 c 4
 14.043 274 13.1592 286 14.5703 294 c 4
 18.8018 318 41.1523 337 65.1523 337 c 4
 77.1523 337 91.918 330 97.1543 320 c 4
 143.264 237.22 133.08 168.843 148.889 120 c 5
 188.405 208 l 6
 203.4 242 218.22 275 234.038 308 c 4
 242.036 325 263.505 339 281.505 339 c 4
 297.505 339 312.389 327 315.92 313 c 4
 337.919 228.77 332.974 189.581 344.062 138 c 4
 345.828 131 347.595 124 349.36 117 c 5
EndSplineSet
EndChar

StartChar: z
Encoding: 122 122 52
Width: 405
VWidth: -1282
Flags: W
HStem: -252.461 87.1045<89.3569 198.638> -50 20G<80.2856 107.434> 217.14 85.5518<170.866 297.229> 241 86.6367<216.719 342.156>
LayerCount: 2
Fore
SplineSet
192.873 217.14 m 1xe0
 134.395 217.14 90.2432 258.156 96.2109 292 c 1
 100.442 316 122.793 335 146.793 335 c 1
 179.203 335 177.469 302.691 208.938 302.691 c 1xe0
 230.594 302.691 268.558 327.637 310.543 327.637 c 1
 373.77 327.637 398.993 285.098 390.336 236 c 1
 375.152 149.89 263.837 116.489 247.119 110 c 1
 342.46 78.1172 359.109 -3.4834 349.496 -58 c 1
 327.328 -183.719 191.476 -252.461 114.111 -252.461 c 1
 34.5254 -252.461 -9.2168 -193.965 1.92285 -130.791 c 1
 11.918 -74.1035 65.1377 -30 95.4336 -30 c 1
 119.434 -30 136.083 -49 131.852 -73 c 1
 129.383 -87 116.562 -103 103.327 -110 c 1
 95.2988 -113.689 90.21 -121.077 88.7627 -129.286 c 1
 85.8711 -145.684 97.5078 -165.356 129.26 -165.356 c 1
 174.053 -165.356 252.067 -122.814 263.319 -59 c 1
 269.945 -21.4248 244.577 32 179.365 32 c 1
 130.166 32 120.137 10 93.4863 10 c 1
 69.4863 10 53.8369 29 58.0684 53 c 1
 64.1533 87.5088 143.194 153.034 213.167 184 c 1
 265.444 205.999 295.09 214.311 304.336 236 c 0
 305.328 238.577 306.238 241 300.218 241 c 1xd0
 271.573 241 242.729 217.14 192.873 217.14 c 1xe0
EndSplineSet
EndChar

StartChar: bracketleft
Encoding: 91 91 53
Width: 443
VWidth: -1282
Flags: W
HStem: -166.109 92.1094<247.866 336.456> 611.873 92.1787<363.328 471.529>
LayerCount: 2
Fore
SplineSet
426.375 611.873 m 0
 424.35 611.873 422.388 612.222 416.313 612.222 c 0
 399.244 612.222 369.285 609.175 363.017 598 c 0
 334.185 547.971 300.597 368.766 268.898 189 c 0
 262.022 150 263.321 112 256.974 76 c 9
 252.981 25 239.812 -27 246.699 -56 c 0
 249.406 -69 297.701 -73 311.524 -74 c 1
 331.228 -74 351.923 -92.126 347.129 -119.316 c 0
 342.178 -147.392 314.128 -166.109 291.778 -166.109 c 0
 290.929 -166.109 290.101 -166.074 289.303 -166 c 0
 222.714 -158 169.653 -147 160.704 -90 c 0
 152.52 -40 153.336 10 162.329 61 c 2
 164.798 75 l 2
 171.146 111 169.67 148 176.37 186 c 2
 200.703 324 l 1
 244.873 548.979 244.576 527.963 285.364 634 c 0
 307.793 690.005 412.33 704.052 441.846 704.052 c 0
 442.896 704.052 443.854 704.034 444.707 704 c 0
 460.229 704 486.624 688.818 481.135 657.684 c 0
 476.494 631.369 452.21 611.873 426.375 611.873 c 0
EndSplineSet
EndChar

StartChar: backslash
Encoding: 92 92 54
Width: 492
VWidth: 0
Flags: W
HStem: 672.849 20G<138.133 161.339>
VStem: 97.0039 93.1719<635.157 682.359> 301.824 93.1719<-182.359 -135.157>
LayerCount: 2
Fore
SplineSet
394.996 -146.156 m 0
 390.752 -170.225 367.976 -192.849 339.758 -192.849 c 0
 321.563 -192.849 306.092 -182.756 301.824 -165 c 6
 97.4756 627 l 6
 95.9746 633.244 95.875 639.758 97.0039 646.156 c 0
 101.247 670.225 124.023 692.849 152.242 692.849 c 0
 170.437 692.849 185.908 682.756 190.176 665 c 6
 394.524 -127 l 6
 396.025 -133.244 396.124 -139.758 394.996 -146.156 c 0
EndSplineSet
EndChar

StartChar: bracketright
Encoding: 93 93 55
Width: 443
VWidth: -1282
Flags: W
HStem: -166 92<-32.4003 81.947> 612 92<108.267 195.633>
VStem: -41.5908 326.95
LayerCount: 2
Fore
SplineSet
-41.5908 -120 m 0
 -35.1025 -83.2002 -1.37988 -74 9.51953 -74 c 4
 23.6963 -73 73.4014 -69 80.6934 -56 c 4
 97.8076 -27 102.977 25 116.969 76 c 21
 123.316 112 138.018 150 144.894 189 c 4
 201.262 508.676 200.904 571.654 195.012 598 c 4
 192.951 609 162.48 612 145.48 612 c 0
 142.48 612 139.48 612 136.48 612 c 0
 111.18 612 93.7246 630.4 98.5908 658 c 0
 105.08 694.8 141.902 704 150.702 704 c 6
 154.702 704 l 2
 185.702 704 283.058 689 285.359 634 c 4
 288.753 527.963 295.867 548.979 260.698 324 c 5
 236.365 186 l 6
 229.664 148 215.141 111 208.793 75 c 6
 206.324 61 l 6
 197.331 10 180.515 -40 154.698 -90 c 4
 125.648 -147 68.708 -158 -0.702148 -166 c 4
 -1.70215 -166 -2.70215 -166 -3.70215 -166 c 0
 -28.1514 -166 -46.3047 -146.733 -41.5908 -120 c 0
EndSplineSet
EndChar

StartChar: asciicircum
Encoding: 94 94 56
Width: 498
VWidth: 0
Flags: W
HStem: 413.622 195.433
VStem: 109.859 258.441
LayerCount: 2
Fore
SplineSet
148.009 413.622 m 0
 124.118 413.622 105.235 434.669 109.859 460.893 c 0
 111.982 472.932 118.839 484.878 130.075 494 c 0
 130.818 494.604 225.611 609.055 268.896 609.055 c 0
 310.153 609.055 360.723 492 360.723 492 c 2
 367.948 482.628 370.366 470.824 368.301 459.107 c 0
 364.009 434.767 338.227 412.122 311.781 412.122 c 0
 300.07 412.122 289.311 416.628 282.085 426 c 2
 242.901 476 l 1
 183.261 427 l 2
 172.323 418.122 159.727 413.622 148.009 413.622 c 0
EndSplineSet
EndChar

StartChar: underscore
Encoding: 95 95 57
Width: 625
VWidth: 0
Flags: W
HStem: -165 94<-36.6537 661.654>
LayerCount: 2
Fore
SplineSet
633.287 -71 m 6
 659.287 -71 676.584 -92 672 -118 c 4
 667.415 -144 642.713 -165 616.713 -165 c 6
 -8.28711 -165 l 6
 -34.2871 -165 -51.585 -144 -47 -118 c 4
 -42.415 -92 -17.7129 -71 8.28711 -71 c 6
 633.287 -71 l 6
EndSplineSet
EndChar

StartChar: grave
Encoding: 96 96 58
Width: 379
VWidth: -1282
Flags: W
HStem: 427.278 160.178
VStem: 103.404 97.5264<541 577.394>
LayerCount: 2
Fore
SplineSet
102.482 541.046 m 0
 106.625 564.542 130.562 587.456 158.168 587.456 c 0
 175.738 587.456 190.37 577.413 195.28 560 c 2
 200.931 541 l 1
 275.228 520 l 2
 295.032 514.167 305.565 495.139 301.925 474.491 c 0
 297.267 448.072 270.573 427.278 246.369 427.278 c 0
 242.239 427.278 238.143 427.833 234.182 429 c 2
 139.942 456 l 2
 126.647 460 118.235 469 114.527 482 c 2
 103.404 521 l 2
 101.546 527.587 101.311 534.4 102.482 541.046 c 0
EndSplineSet
EndChar

StartChar: dollar
Encoding: 36 36 60
Width: 625
VWidth: -1282
Flags: W
HStem: 6 93<158.889 208.341 319.034 389.763> 496 21G<501.945 533.241> 580 92<255.24 318.553>
LayerCount: 2
Fore
SplineSet
373.229 374 m 1
 490.129 332.6 536.6 257 522.846 179 c 0
 506.568 86.6846 412.335 11.0908 301.636 2 c 1
 291.644 -49 l 2
 287.059 -75 261.532 -95 235.532 -95 c 0
 209.532 -95 193.411 -73 197.996 -47 c 2
 208.341 6 l 1
 144.104 16 86.8652 43 41.0947 84 c 0
 32.5049 92 27.5029 109 29.6191 121 c 0
 30.1475 124 32.2061 130 33.7344 133 c 2
 50.6113 172 l 2
 58.9619 191 81.7832 207 101.783 207 c 0
 126.783 207 144.08 186 139.672 161 c 0
 138.19 152.6 132.928 142.075 131.969 140 c 1
 159.442 120 190.974 106 225.739 99 c 1
 266.769 309 l 1
 152.099 353.555 113.187 424.8 126.799 502 c 2
 128.739 513 l 1
 145.279 581.071 216.044 663.842 335.774 672 c 1
 344.356 715 l 2
 348.941 741 374.468 761 400.468 761 c 0
 426.468 761 442.589 739 438.004 713 c 2
 428.364 664 l 1
 484.72 649 533.253 618 567.495 574 c 0
 573.261 567 576.615 552 574.853 542 c 0
 570.444 517 545.741 496 520.741 496 c 0
 483.149 496 486.373 539.421 410.437 568 c 1
 373.229 374 l 1
319.034 95 m 1
 386.648 104.422 424.709 144.2 430.493 177 c 0
 437.476 216.6 403.276 255.405 353.949 276 c 1
 319.034 95 l 1
318.553 580 m 1
 238.655 570.229 220.338 516.4 217.799 502 c 0
 211.169 464.4 238.915 431.765 285.225 408 c 1
 318.553 580 l 1
EndSplineSet
EndChar

StartChar: zero
Encoding: 48 48 61
Width: 315
VWidth: -1282
Flags: W
HStem: -3 86<103.935 168.825> 241.063 86.9365<132.876 196.867>
VStem: 13.6191 271.938
LayerCount: 2
Fore
SplineSet
116.818 -3 m 0
 46.5713 -3 0.147461 58.7676 13.6191 149 c 1
 14.501 154 l 2
 29.5732 239.477 102.781 328 191.182 328 c 1
 252.227 324.996 301.033 264.771 285.557 177 c 0
 285.204 175 284.852 173 284.499 171 c 0
 271.177 95.4473 209.605 0.193359 122.818 -3 c 0
 120.818 -3 118.818 -3 116.818 -3 c 0
132.982 83 m 0
 142.982 83 186.041 100.35 199.381 176 c 0
 208.902 230 176.842 241 168.842 241 c 0
 168.638 241.042 168.41 241.063 168.157 241.063 c 0
 157.695 241.063 110.545 210.961 100.854 156 c 0
 91.3496 102.1 114.982 83 132.982 83 c 0
EndSplineSet
EndChar

StartChar: four
Encoding: 52 52 62
Width: 405
VWidth: -1282
Flags: W
HStem: -134.532 86.0479<99.2739 178.974> 314.352 20G<280.389 304.123>
VStem: 255.87 79.7627<217.544 330.057>
LayerCount: 2
Fore
SplineSet
179.752 -121 m 1
 167.361 -124.37 141.41 -134.532 117.439 -134.532 c 0
 58.9258 -134.532 52.3496 -124.99 47.9287 -120 c 0
 25.5176 -95.4961 18.084 -77.6387 23.0635 -49.3975 c 0
 36.2617 25.4521 115.182 59.9629 149.191 97 c 0
 245.358 199.974 230.971 231.344 255.87 288 c 0
 262.882 303.442 265.818 334.352 294.959 334.352 c 0
 313.287 334.352 334.325 318.538 335.633 298 c 0
 336.867 280.193 335.667 262.972 332.749 246.428 c 0
 326.329 210.014 311.59 176.879 296.184 148 c 1
 254.841 78 225.728 49 178.556 14 c 1
 122.526 -17.542 99.9482 -34.2227 98.542 -42.1953 c 0
 97.7344 -46.7773 103.918 -48.4844 114.764 -48.4844 c 0
 138.896 -48.4844 186.111 -40.0332 230.74 -36 c 1
 281.713 52.4453 288.58 92.8633 333.685 92.8633 c 0
 355.578 92.8633 369.646 78.7783 365.315 54.2227 c 0
 361.992 35.3779 352.976 24.4941 317.034 -40 c 1
 344.038 -48.125 347.87 -67.2354 345.247 -82.1104 c 0
 342.949 -95.1426 328.866 -125.4 293.872 -125.4 c 0
 283.734 -125.4 278.91 -122.732 277.575 -122 c 1
 268.049 -142 259.699 -161 244.352 -197 c 0
 235.425 -218.441 212.954 -233.262 191.634 -233.262 c 0
 162.855 -233.262 149.206 -207.68 153.086 -185.677 c 0
 154.196 -179.38 167.955 -146.531 179.752 -121 c 1
EndSplineSet
EndChar

StartChar: one
Encoding: 49 49 63
Width: 360
VWidth: 0
Flags: W
HStem: -17 21G<188.967 217.505> 315 20G<230.533 252.885>
VStem: 100.464 177.987
LayerCount: 2
Fore
SplineSet
139.177 160 m 0
 113.994 160 96.0332 181.873 100.464 207 c 0
 102.756 220 111.048 233 123.812 243 c 2
 157.043 267 l 1
 193.802 311 l 1
 204.623 327 222.033 335 239.033 335 c 0
 266.736 335 280.391 314.704 278.451 292 c 2
 256.959 34 l 2
 256.834 32.7412 256.66 31.4902 256.441 30.248 c 0
 252.135 5.82324 230.044 -15.0967 204.967 -17 c 1
 200.967 -17 l 2
 176.967 -17 159.141 1 161.549 26 c 2
 174.469 173 l 1
 163.733 166.596 154.827 160 139.177 160 c 0
EndSplineSet
EndChar

StartChar: two
Encoding: 50 50 64
Width: 307
VWidth: 0
Flags: W
HStem: -4 81<97.3614 164.836> 244 86<113.676 181.387>
VStem: -2.09668 272.026
LayerCount: 2
Fore
SplineSet
-28.3984 70 m 2,0,-1
260.485 58 m 0,1,-1
 251.74 8.40039 171.941 -2.78809 153.554 -4 c 1,4,-1
 112.554 -4 l 2,5,-1
 95.5537 -4 69.2588 0 55.2588 0 c 0,8,-1
 42.2588 0 32.9062 -2 23.9062 -2 c 0,11,-1
 13.9062 -2 6.43457 1 -2.09668 15 c 0,14,-1
 -5.21484 20 -4.74609 34 -2.10156 49 c 0,17,-1
 18.7559 167.284 65.8799 178.229 131.877 202 c 0,20,-1
 163.058 212.787 180.25 226.8 181.343 233 c 0,23,-1
 182.507 239.6 168.982 244 161.282 244 c 0,26,-1
 116.526 244 107.464 198 69.1719 198 c 0,29,-1
 45.1719 198 28.5215 217 32.7539 241 c 0,32,-1
 38.0967 271.3 103.21 330 173.446 330 c 0,35,-1
 175.446 330 177.446 330 179.446 330 c 0,38,-1
 250.72 327.008 273.4 273.642 269.93 242 c 1,41,-1
 268.695 235 l 2,42,-1
 250.009 129.02 100.67 115.759 97.3623 97 c 0,45,-1
 97.1865 96 107.188 79 108.012 78 c 1,48,-1
 110.012 78 112.012 78 114.012 78 c 0,51,-1
 126.012 78 144.836 77 157.836 77 c 2,54,-1
 164.836 77 l 1,55,-1
 192.362 97 l 2,56,-1
 200.42 103 209.949 106 219.949 106 c 0,59,-1
 246.388 106 265.126 84.3184 260.485 58 c 0,1,-1
EndSplineSet
EndChar

StartChar: three
Encoding: 51 51 65
Width: 405
VWidth: -1282
Flags: W
HStem: -155.816 71.8418<84.0336 185.902> 233.328 71.6719<143.163 264.185> 254 71<131.498 269.165>
VStem: 8.64746 335.166
LayerCount: 2
Fore
SplineSet
171.924 233.328 m 0xd0
 117.271 233.328 82.2217 270.331 86.5713 295 c 0
 90.0986 315 109.919 331 130.919 331 c 0
 159.946 331 154.062 305 186.335 305 c 0
 187.335 305 188.335 305 189.335 305 c 0xd0
 206.867 306.723 239.533 325 277.861 325 c 0
 279.861 325 281.861 325 283.861 325 c 0
 320.498 322.822 351.591 295.107 343.813 251 c 0
 331.163 179.259 245.649 154.112 220.123 145 c 1
 294.226 120.492 320.312 61 310.437 5 c 0
 293.656 -90.167 183.595 -155.816 107.516 -155.816 c 0
 45.0293 -155.816 -2.22559 -114.704 8.64746 -53.0371 c 0
 17.1387 -4.88379 64.3027 29 88.6689 29 c 0
 109.669 29 123.848 13 120.321 -7 c 0
 115.726 -33.0635 86.4902 -36.624 83.3662 -54.3408 c 0
 83.1104 -55.792 83.0303 -57.3389 83.1523 -59 c 0
 83.5996 -77.9199 101.729 -83.9746 117.846 -83.9746 c 0
 159.939 -83.9746 226.465 -45.8809 235.437 5 c 0
 240.727 35 217.611 80 161.661 80 c 0
 119.062 80 108.787 62 87.4873 62 c 0
 66.4873 62 52.1328 77 55.6592 97 c 0
 61.5137 130.205 135.176 182.98 189.879 206 c 0
 221.669 219.207 258.221 228.908 268.461 249 c 1
 269.166 253 l 1
 269.166 253 268.342 254 265.342 254 c 0xb0
 240.654 254 216.812 233.328 171.924 233.328 c 0xd0
EndSplineSet
EndChar

StartChar: five
Encoding: 53 53 66
Width: 405
VWidth: -1282
Flags: W
HStem: -212.219 77.2549<81.7771 184.761> -34 20G<76.7236 98.9121> 41 74.8496<144.016 221.294> 216.789 110.211<252.695 334.318> 244.793 82.207<190.156 247.162>
VStem: 4.18262 345.013
LayerCount: 2
Fore
SplineSet
349.195 264.917 m 0xf4
 344.471 238.123 318.157 216.789 291.711 216.789 c 0xf4
 282.579 216.789 274.081 219.651 267.73 226 c 2
 247.257 246 l 1
 245.232 246.146 242.807 246.207 240.107 246.207 c 0
 227.071 246.207 207.641 244.793 196.105 244.793 c 0
 193.716 244.793 191.666 244.854 190.081 245 c 0
 189.969 244.905 173.05 227.812 172.554 225 c 0
 171.841 219.459 170.93 213.623 169.873 207.629 c 0
 162.147 163.814 146.614 111.585 143.395 105 c 1
 149.434 109 170.747 115.85 203.656 115.85 c 0
 223.199 115.85 244.375 112.687 262.042 103 c 1
 272.468 94.6738 331.104 35.292 318.004 -39 c 0
 300.477 -138.403 188.512 -212.219 106.307 -212.219 c 0
 37.7246 -212.219 -6.42871 -164.383 4.18262 -104.204 c 0
 14.0693 -48.1318 65.0352 -14 88.4121 -14 c 0
 109.412 -14 124.414 -31 120.712 -52 c 0
 118.596 -64 106.774 -80 94.7168 -86 c 0
 87.9482 -89.1104 83.3174 -95.9209 81.9805 -103.503 c 0
 79.4502 -117.853 88.7207 -134.964 117.631 -134.964 c 0
 162.702 -134.964 230.616 -92.2373 239.827 -40 c 0
 248.299 8.04395 203.273 41 164.11 41 c 0
 116.01 41 108.783 21 86.583 21 c 0
 65.583 21 50.7568 39 54.46 60 c 0
 57.2051 75.5684 80.4805 184.543 85.9707 215.679 c 0
 90.3203 240.351 90.332 267.26 93.709 286.413 c 0
 99.4023 318.703 124.038 325.311 134.515 325.311 c 0
 142.936 325.311 152.001 323 164.834 323 c 0
 178.834 323 206.539 327 223.539 327 c 2xec
 264.539 327 l 1
 283.305 325.734 357.953 314.583 349.195 264.917 c 0xf4
EndSplineSet
EndChar

StartChar: six
Encoding: 54 54 67
Width: 326
VWidth: -1282
Flags: W
HStem: -4.26172 87.2959<87.2551 160.687> 592.286 20G<269.3 293.79>
VStem: 230.725 85.1914<502.814 603.293>
LayerCount: 2
Fore
SplineSet
101.188 -4.26172 m 0
 26.167 -4.26172 -17.0654 66.9092 -2.43164 149.902 c 0
 13.9033 242.54 80.9844 310.34 128.341 374 c 5
 175.097 435 211.734 501 230.725 569 c 4
 237.656 592.395 257.983 612.286 280.617 612.286 c 0
 306.962 612.286 319.746 585.186 315.916 563.46 c 0
 312.827 545.942 283.59 447.173 195.759 331 c 4
 194.406 329 192.054 327 190.701 325 c 5
 195.995 321 201.29 317 206.585 313 c 4
 254.069 274.195 279.084 215.976 267.679 151.294 c 0
 252.412 64.7109 177.672 -4.26172 101.188 -4.26172 c 0
116.697 83.0342 m 0
 144.027 83.0342 173.836 110.621 180.952 150.98 c 0
 189.544 199.705 154.63 238.4 133.477 250 c 5
 97.7998 200.571 87.751 170.834 84.2617 151.042 c 0
 77.665 113.632 91.4238 83.0342 116.697 83.0342 c 0
EndSplineSet
EndChar

StartChar: seven
Encoding: 55 55 68
Width: 405
VWidth: -1282
Flags: W
HStem: 224.409 86.3301<116.142 286.628> 250.752 84.8848<216.438 341.274>
VStem: 44.7979 83.6777<-129.618 26.84>
LayerCount: 2
Fore
SplineSet
309.661 335.637 m 0x60
 372.887 335.637 398.111 293.098 389.454 244 c 0
 382.424 204.128 356.742 197.708 325.111 174 c 24
 274.498 137.053 189.445 113.475 141.841 8 c 16
 137.519 -1.67871 135.076 -10.3994 133.615 -18.6807 c 0
 130.333 -37.2949 132.015 -53.6924 128.476 -73.7666 c 0
 122.273 -108.938 111.094 -136.352 85.708 -136.352 c 0
 68.0234 -136.352 48.5703 -120.538 44.7979 -100 c 0
 39.5996 -69.2646 39.5996 -39.1543 44.5225 -11.2383 c 0
 58.8564 70.0566 128.34 154.85 212.285 192 c 1
 270.978 224.929 303.271 243.669 304.227 249.09 c 0
 304.423 250.201 303.304 250.752 300.827 250.752 c 0x60
 291.161 250.752 260.819 242.353 207.28 226 c 1
 197.673 224.93 189.262 224.409 181.602 224.409 c 0
 152.005 224.409 92.9805 240.831 85.8047 263 c 0
 83.1445 269.732 82.6309 276.977 83.8887 284.11 c 0
 87.667 305.539 107.056 326.788 133.188 326.788 c 0
 148.914 326.788 179.508 310.739 208.152 310.739 c 0xa0
 229.823 310.739 267.703 335.637 309.661 335.637 c 0x60
EndSplineSet
EndChar

StartChar: eight
Encoding: 56 56 69
Width: 350
VWidth: -1282
Flags: W
HStem: -244.405 80.3174<106.378 181.326> 253.086 80.9404<163.719 238.597>
VStem: 12.0332 321.838
LayerCount: 2
Fore
SplineSet
159.864 -7 m 1
 156.335 -10 152.807 -13 149.277 -16 c 0
 129.635 -32.6982 104.675 -60.5059 98.9189 -93.1504 c 0
 91.6562 -134.337 117.086 -164.088 144.366 -164.088 c 0
 161.365 -164.088 179.083 -152.536 190.058 -125 c 0
 191.473 -120.567 192.622 -115.934 193.458 -111.195 c 0
 197.133 -90.3564 198.556 -61.2998 159.864 -7 c 1
186.202 97 m 1
 195.134 104.593 238.776 135.673 246.985 182.226 c 0
 254.294 223.676 228.945 253.086 201.72 253.086 c 0
 184.625 253.086 166.789 241.491 155.833 214 c 0
 154.418 209.567 153.286 205.034 152.475 200.433 c 0
 144.612 155.842 171.004 118.329 186.202 97 c 1
236.799 38 m 1
 257.58 20.0391 292 -42.7773 280.127 -110.111 c 0
 265.468 -193.248 197.385 -244.405 132.043 -244.405 c 0
 50.8115 -244.405 -2.53809 -176.177 12.0332 -93.5391 c 0
 22.2979 -35.3232 63.9727 18.1406 112.268 52 c 1
 81.3486 72.7461 55.4639 140.702 65.8086 199.37 c 0
 80.6816 283.722 149.267 334.026 216.09 334.026 c 0
 294.752 334.026 348.699 266.711 333.871 182.619 c 0
 319.761 102.593 248.103 45.9248 236.799 38 c 1
EndSplineSet
EndChar

StartChar: nine
Encoding: 57 57 70
Width: 326
VWidth: -1282
Flags: W
HStem: 245.966 86.2959<146.724 219.84>
VStem: -1.43945 85.5928<-229.947 -150.829>
LayerCount: 2
Fore
SplineSet
206.18 332.262 m 0
 279.821 332.262 324.805 264.6 309.583 178.278 c 0
 293.765 88.5664 224.355 15.2666 178.779 -46 c 1
 132.023 -107 114.263 -134 84.1533 -197 c 0
 73.6152 -219.518 56.3447 -240.275 34.041 -240.275 c 0
 7.12402 -240.275 -4.69336 -211.204 -1.43945 -192.749 c 0
 10.4355 -125.405 114.736 1.25098 116.596 4 c 0
 116.086 4.38477 19.0098 60.834 39.6172 177.706 c 0
 56.0938 271.149 136.901 332.262 206.18 332.262 c 0
190.599 245.966 m 0
 161.491 245.966 132.833 214.823 126.168 177.02 c 0
 117.576 128.295 152.49 89.5996 173.644 78 c 1
 194.061 106.287 215.787 136.853 222.888 177.124 c 0
 231.224 224.399 208.369 245.966 190.599 245.966 c 0
EndSplineSet
EndChar

StartChar: bar
Encoding: 124 124 71
Width: 285
VWidth: 0
Flags: W
VStem: 18.8271 246.346
LayerCount: 2
Fore
SplineSet
112.827 -182 m 2
 108.242 -208 83.5391 -229 57.5391 -229 c 0
 31.5391 -229 14.2422 -208 18.8271 -182 c 2
 171.173 682 l 2
 175.758 708 200.461 729 226.461 729 c 0
 252.461 729 269.758 708 265.173 682 c 2
 112.827 -182 l 2
EndSplineSet
EndChar

StartChar: numbersign
Encoding: 35 35 72
Width: 657
VWidth: 0
Flags: W
HStem: -19 21G<133.054 159.054 353.054 379.054> 195 94<33.4211 136.788 247.362 356.788 467.362 569.729> 445 94<77.5031 180.869 291.444 400.869 511.444 613.811>
LayerCount: 2
Fore
SplineSet
201.341 28 m 2
 196.757 2 172.054 -19 146.054 -19 c 0
 120.054 -19 102.757 2 107.341 28 c 2
 136.788 195 l 1
 61.7881 195 l 2
 35.7881 195 18.4902 216 23.0752 242 c 0
 27.6592 268 52.3623 289 78.3623 289 c 2
 153.362 289 l 1
 180.869 445 l 1
 105.869 445 l 2
 79.8691 445 62.5723 466 67.1572 492 c 0
 71.7412 518 96.4443 539 122.444 539 c 2
 197.444 539 l 1
 222.659 682 l 2
 227.243 708 251.946 729 277.946 729 c 0
 303.946 729 321.243 708 316.659 682 c 2
 291.444 539 l 1
 417.444 539 l 1
 442.659 682 l 2
 447.243 708 471.946 729 497.946 729 c 0
 523.946 729 541.243 708 536.659 682 c 2
 511.444 539 l 1
 585.444 539 l 2
 611.444 539 628.741 518 624.157 492 c 0
 619.572 466 594.869 445 568.869 445 c 2
 494.869 445 l 1
 467.362 289 l 1
 541.362 289 l 2
 567.362 289 584.659 268 580.075 242 c 0
 575.49 216 550.788 195 524.788 195 c 2
 450.788 195 l 1
 421.341 28 l 2
 416.757 2 392.054 -19 366.054 -19 c 0
 340.054 -19 322.757 2 327.341 28 c 2
 356.788 195 l 1
 230.788 195 l 1
 201.341 28 l 2
274.869 445 m 1
 247.362 289 l 1
 373.362 289 l 1
 400.869 445 l 1
 274.869 445 l 1
EndSplineSet
EndChar

StartChar: period
Encoding: 46 46 73
Width: 340
VWidth: 0
Flags: W
HStem: -24 138<67.4636 154.536>
VStem: 42 138<1.1543 88.8457>
LayerCount: 2
Fore
SplineSet
42 45 m 0
 48.7002 83 85.167 114 123.167 114 c 0
 161.167 114 186.7 83 180 45 c 0
 173.3 7 136.833 -24 98.833 -24 c 0
 60.833 -24 35.2998 7 42 45 c 0
EndSplineSet
EndChar

StartChar: colon
Encoding: 58 58 74
Width: 340
VWidth: 0
Flags: W
HStem: -24 138<44.6294 131.702> 235 138<90.2984 177.371>
VStem: 19.166 183.668
LayerCount: 2
Fore
SplineSet
64.834 304 m 0
 71.5352 342 108.001 373 146.001 373 c 0
 184.001 373 209.535 342 202.834 304 c 0
 196.134 266 159.668 235 121.668 235 c 0
 83.668 235 58.1338 266 64.834 304 c 0
19.166 45 m 0
 25.8662 83 62.332 114 100.332 114 c 0
 138.332 114 163.866 83 157.166 45 c 0
 150.465 7 113.999 -24 75.999 -24 c 0
 37.999 -24 12.4648 7 19.166 45 c 0
EndSplineSet
EndChar

StartChar: parenright
Encoding: 41 41 75
Width: 397
VWidth: -1282
Flags: W
HStem: 690 20G<163.232 191.678>
VStem: 121.621 115.711<602.05 686.717>
LayerCount: 2
Fore
SplineSet
68.9414 76 m 17
 75.2891 112 89.9893 150 96.8662 189 c 0
 166.405 583.376 155.222 600.139 129.803 631 c 0
 123.037 638 119.682 653 121.621 664 c 0
 126.029 689 150.732 710 175.732 710 c 0
 207.624 710 228.701 667.391 237.332 634 c 0
 253.484 575.939 227.93 421.61 212.67 324 c 1
 188.337 186 l 2
 181.637 148 167.112 111 160.765 75 c 2
 158.296 61 l 2
 148.121 3.29297 131.735 -73.793 59.7363 -135 c 0
 51.3252 -143 35.2676 -149 24.2676 -149 c 0
 -0.732422 -149 -18.0293 -128 -13.6211 -103 c 0
 -8.39941 -73.3828 18.376 -66.665 35.0166 -37 c 0
 52.1299 -8 55.1826 32 68.9414 76 c 17
EndSplineSet
EndChar

StartChar: parenleft
Encoding: 40 40 76
Width: 397
VWidth: -1282
Flags: W
HStem: 690 20G<366.232 384.232>
VStem: 158.668 115.711<-125.717 195.736>
LayerCount: 2
Fore
SplineSet
254.941 76 m 9
 252.15 6.18457 231.834 -28.2793 266.197 -70 c 0
 272.963 -77 276.318 -92 274.379 -103 c 0
 269.971 -128 245.268 -149 220.268 -149 c 0
 188.376 -149 167.299 -106.391 158.668 -73 c 0
 146.132 -25 151.479 11 160.296 61 c 2
 162.765 75 l 2
 169.112 111 167.637 148 174.337 186 c 2
 198.67 324 l 1
 245.104 560.516 262.82 633.565 336.264 696 c 0
 344.675 704 360.732 710 371.732 710 c 0
 396.732 710 414.029 689 409.621 664 c 0
 400.729 613.568 359.792 655.971 323.178 480 c 1
 300.125 363.612 292.521 334.496 266.866 189 c 0
 259.989 150 261.289 112 254.941 76 c 9
EndSplineSet
EndChar

StartChar: plus
Encoding: 43 43 77
Width: 498
VWidth: 0
Flags: W
HStem: -1 21G<205.259 231.259> 114 94<94.468 192.889 305.287 401.657>
VStem: 86.5293 325.118
LayerCount: 2
Fore
SplineSet
374.111 208 m 2
 400.111 208 416.231 186 411.647 160 c 0
 407.062 134 381.536 114 355.536 114 c 2
 286.713 115 l 1
 274.37 45 l 2
 269.785 19 244.259 -1 218.259 -1 c 0
 192.259 -1 175.962 20 180.546 46 c 2
 192.889 116 l 1
 124.065 117 l 2
 98.0654 117 81.9443 139 86.5293 165 c 0
 91.1133 191 116.64 211 142.64 211 c 2
 211.464 210 l 1
 224.63 279 l 2
 229.215 305 253.741 325 279.741 325 c 0
 305.741 325 322.038 304 317.454 278 c 2
 305.287 209 l 1
 374.111 208 l 2
EndSplineSet
EndChar

StartChar: hyphen
Encoding: 45 45 78
Width: 498
VWidth: 0
Flags: W
HStem: 114 95<95.0421 401.568>
VStem: 86.4404 325.119
LayerCount: 2
Fore
SplineSet
305.199 209 m 1
 374.022 208 l 2
 400.022 208 416.144 186 411.56 160 c 0
 406.975 134 381.448 114 355.448 114 c 2
 192.801 116 l 1
 123.978 117 l 2
 97.9775 117 81.8564 139 86.4404 165 c 0
 91.0254 191 116.552 211 142.552 211 c 2
 305.199 209 l 1
EndSplineSet
EndChar

StartChar: comma
Encoding: 44 44 79
Width: 340
VWidth: 0
Flags: W
HStem: -131 245<27.4004 132.6>
VStem: 16.6875 172.746
LayerCount: 2
Fore
SplineSet
51.4336 45 m 0
 58.1338 83 94.5996 114 132.6 114 c 0
 170.6 114 196.134 83 189.434 45 c 0
 182.733 7 65.4004 -131 27.4004 -131 c 0
 13.4004 -131 11.9268 -111 16.6875 -84 c 0
 24.2695 -41 47.2012 21 51.4336 45 c 0
EndSplineSet
EndChar

StartChar: semicolon
Encoding: 59 59 80
Width: 340
VWidth: 0
Flags: W
HStem: -131 245<4.56543 109.766> 235 138<99.7319 186.804>
VStem: -6.1123 218.38
LayerCount: 2
Fore
SplineSet
28.5996 45 m 0
 35.2998 83 71.7656 114 109.766 114 c 0
 147.766 114 173.3 83 166.6 45 c 0
 159.898 7 42.5654 -131 4.56543 -131 c 0
 -9.87402 -131 -10.8369 -111.073 -6.1123 -84.2783 c 0
 1.59668 -40.5596 24.4453 21.4404 28.5996 45 c 0
74.2676 304 m 0
 80.9688 342 117.435 373 155.435 373 c 0
 193.435 373 218.969 342 212.268 304 c 0
 205.567 266 169.102 235 131.102 235 c 0
 93.1016 235 67.5674 266 74.2676 304 c 0
EndSplineSet
EndChar

StartChar: quotesingle
Encoding: 39 39 81
Width: 107
VWidth: 0
Flags: W
HStem: 481 243<31.9227 60.9591>
VStem: 12.6943 108<575.855 704.908>
LayerCount: 2
Fore
SplineSet
12.6943 655 m 0
 19.3955 693 42.8613 724 80.8613 724 c 0
 118.861 724 127.396 693 120.694 655 c 4
 113.994 617 70.0137 481 32.0137 481 c 0
 -5.98633 481 5.99414 617 12.6943 655 c 0
EndSplineSet
EndChar

StartChar: quotedbl
Encoding: 34 34 82
Width: 388
VWidth: 0
Flags: W
HStem: 478 243
VStem: 51.5215 138<590.577 698.846> 225.992 138<587.577 695.846>
LayerCount: 2
Fore
SplineSet
225.992 652 m 4
 232.693 690 269.159 721 307.159 721 c 4
 345.159 721 370.693 690 363.992 652 c 4
 357.292 614 296.312 478 258.312 478 c 4
 220.312 478 219.292 614 225.992 652 c 4
51.5215 655 m 4
 58.2217 693 94.6885 724 132.688 724 c 4
 170.688 724 196.222 693 189.521 655 c 4
 182.821 617 121.841 481 83.8408 481 c 4
 45.8408 481 44.8213 617 51.5215 655 c 4
EndSplineSet
EndChar

StartChar: exclam
Encoding: 33 33 83
Width: 235
VWidth: 0
Flags: W
HStem: -24 138<13.6841 100.756> 704 20G<163.946 201.946>
VStem: -11.7793 251.559
LayerCount: 2
Fore
SplineSet
-11.7793 45 m 0
 -5.0791 83 31.3867 114 69.3867 114 c 0
 107.387 114 132.921 83 126.221 45 c 0
 119.52 7 83.0537 -24 45.0537 -24 c 0
 7.05371 -24 -18.4805 7 -11.7793 45 c 0
101.779 655 m 0
 108.48 693 144.946 724 182.946 724 c 0
 220.946 724 246.48 693 239.779 655 c 0
 233.079 617 118.848 179 80.8477 179 c 0
 42.8477 179 95.0791 617 101.779 655 c 0
EndSplineSet
EndChar

StartChar: asciitilde
Encoding: 126 126 84
Width: 455
VWidth: -1282
Flags: W
HStem: 354.274 91.8955<251.648 359.678> 402.854 91.1465<110.835 210.01> 458 20G<373.551 397.997>
LayerCount: 2
Fore
SplineSet
31.626 405 m 0x40
 37.0244 435.619 96.2695 494 167.318 494 c 0x40
 241.346 494 269.533 446.17 307.427 446.17 c 0
 312.526 446.17 317.8 447.036 323.384 449 c 0
 347.693 457.551 361.605 478 385.497 478 c 0
 410.497 478 427.795 457 423.387 432 c 0
 416.314 391.891 344.12 354.274 290.343 354.274 c 0xa0
 227.032 354.274 190.649 402.854 153.725 402.854 c 0
 147.343 402.854 140.946 401.403 134.392 398 c 0
 126.686 394 117.628 388 112.394 381 c 0
 103.278 369 83.5146 359 69.5146 359 c 0
 44.5146 359 27.2178 380 31.626 405 c 0x40
EndSplineSet
EndChar

StartChar: braceleft
Encoding: 123 123 85
Width: 397
VWidth: -1282
Flags: W
HStem: 690 20G<366.232 384.232>
VStem: 158.668 115.711<-125.717 125.604>
LayerCount: 2
Fore
SplineSet
230.994 320.214 m 0
 223.591 278.232 310.781 277.44 293.681 180.455 c 0
 287.332 144.45 264.824 109.366 258.941 76 c 9
 252.88 5.04688 231.309 -27.6426 266.197 -70 c 0
 272.963 -77 276.318 -92 274.379 -103 c 0
 269.971 -128 245.268 -149 220.268 -149 c 0
 188.376 -149 167.299 -106.391 158.668 -73 c 0
 149.029 -36.7578 151.791 -7.31543 157.813 26.8359 c 0
 160.432 41.6846 163.666 57.4238 166.765 75 c 0
 173.112 111 194.637 148 201.337 186 c 0
 209.448 232 114.735 279 122.67 324 c 0
 132.486 374 235.95 422 245.532 465 c 0
 250.035 486.195 253.498 504.873 256.439 521.554 c 0
 258.771 534.778 260.775 546.748 262.711 557.724 c 0
 273.691 619.997 282.454 650.256 336.264 696 c 0
 344.675 704 360.732 710 371.732 710 c 0
 396.732 710 414.029 689 409.621 664 c 0
 404.399 634.382 377.625 627.665 360.983 598 c 0
 358.912 594.404 356.945 586.282 354.854 574.424 c 0
 351.355 554.576 342.156 485.108 340.406 475.184 c 0
 324.694 386.076 241.24 378.328 230.994 320.214 c 0
EndSplineSet
EndChar

StartChar: braceright
Encoding: 125 125 86
Width: 397
VWidth: -1282
Flags: W
HStem: 690 20G<224.232 252.678>
VStem: 207.983 90.3486<388.225 644.362>
LayerCount: 2
Fore
SplineSet
128.038 180.455 m 0
 145.132 277.395 232.615 278.266 240.012 320.214 c 0
 250.259 378.328 169.538 386.076 185.25 475.184 c 0
 187 485.108 202.299 554.576 205.799 574.424 c 0
 207.89 586.282 208.788 594.404 207.983 598 c 0
 201.77 627.836 177.378 634.265 182.621 664 c 0
 187.029 689 211.732 710 236.732 710 c 0
 268.624 710 289.701 667.391 298.332 634 c 0
 304.452 612 288.168 548 276.532 465 c 0
 270.95 422 357.486 374 349.67 324 c 0
 341.735 279 230.448 232 222.337 186 c 0
 215.637 148 224.112 111 217.765 75 c 0
 214.666 57.4238 212.35 41.6846 209.731 26.8359 c 0
 199.919 -28.8105 177.767 -86.5176 120.736 -135 c 0
 112.325 -143 96.2676 -149 85.2676 -149 c 0
 60.2676 -149 42.9707 -128 47.3789 -103 c 0
 52.6006 -73.3828 79.375 -66.665 96.0166 -37 c 0
 113.13 -8 114.183 32 125.941 76 c 17
 131.824 109.366 121.689 144.45 128.038 180.455 c 0
EndSplineSet
EndChar

StartChar: equal
Encoding: 61 61 87
Width: 498
VWidth: 0
Flags: W
HStem: 54 95<81.8175 388.344> 204 95<108.266 414.793>
VStem: 73.2158 351.568
LayerCount: 2
Fore
SplineSet
291.975 149 m 1
 360.799 148 l 2
 386.799 148 402.919 126 398.335 100 c 0
 393.75 74 368.224 54 342.224 54 c 2
 179.576 56 l 1
 110.753 57 l 2
 84.7529 57 68.6318 79 73.2158 105 c 0
 77.8008 131 103.327 151 129.327 151 c 2
 291.975 149 l 1
318.424 299 m 1
 387.247 298 l 2
 413.247 298 429.368 276 424.784 250 c 0
 420.199 224 394.673 204 368.673 204 c 2
 206.025 206 l 1
 137.201 207 l 2
 111.201 207 95.0811 229 99.665 255 c 0
 104.25 281 129.776 301 155.776 301 c 2
 318.424 299 l 1
EndSplineSet
EndChar

StartChar: ampersand
Encoding: 38 38 88
Width: 727
VWidth: -1282
Flags: W
HStem: -1 92<172.676 363.036> 56 87<496.532 531.813> 341 89<282.325 406.966 408.238 476.018> 351 90<354.131 479.023 581.519 663.837> 351 79<295.675 406.966> 545 21G<448.344 479.18> 548 20G<528.235 540.235> 635 91<271.457 411.082>
VStem: 491.607 87.5293<437 524.141>
LayerCount: 2
Fore
SplineSet
143.59 553 m 0x8180
 158.867 639.638 240.57 726 355.095 726 c 0
 443.078 726 471.136 705.922 524.404 620 c 0
 529.17 613 531.878 600 530.291 591 c 0
 528.527 581 523.94 572 517.706 565 c 1
 521.883 566 526.235 568 530.235 568 c 2
 532.235 568 l 2
 548.235 568 563.119 556 566.65 542 c 0
 575.655 508 580.484 473 579.137 437 c 1
 630.836 443.735 625.523 446 636.724 446 c 0
 660.724 446 693.373 427 689.142 403 c 0
 687.272 392.4 670.424 359.706 566.796 350 c 1
 545.043 259.679 503.753 216.547 496.669 176.375 c 0
 496.175 173.574 495.848 170.787 495.704 168 c 1
 505.06 153 497.296 143 511.296 143 c 0
 520.196 143 525.46 149.6 526.236 154 c 0
 531.938 175 554.937 192 575.937 192 c 0
 599.937 192 631.586 173 627.354 149 c 2
 626.473 144 l 1
 619.064 119 588.186 97 566.364 81 c 0
 545.719 66 520.956 56 496.956 56 c 0
 495.956 56 494.956 56 493.956 56 c 0x4380
 474.132 57 458.19 63 443.953 73 c 1
 405.109 44.3994 347.576 -1 245.905 -1 c 0
 131.905 -1 63.6006 71 55.5986 88 c 0
 39.5938 122 36.1758 165 43.4053 206 c 0
 59.2764 296.011 123.069 365.893 188.789 401 c 1
 130.811 463.769 140.287 534.264 143.59 553 c 0x8180
295.209 341 m 0x2180
 223.243 341 150.15 283.957 136.581 207 c 0
 136.131 204.444 135.661 201.852 135.201 199.24 c 0
 131.517 178.346 128.405 156.222 140.12 142 c 0
 172.243 103 226.127 91 279.127 91 c 0
 294.127 91 310.479 93 326.009 96 c 0
 366.596 105 372.596 105 407.356 132 c 1
 407.473 144 409.646 162 412.644 179 c 0
 425.901 254.187 456.112 261.735 479.267 347 c 1
 408.796 350 412.973 351 402.973 351 c 2
 386.973 351 l 1x9180
 358.796 350 362.738 344 312.032 340 c 1
 312.032 340 305.209 341 295.209 341 c 0x2180
352.902 430 m 0x2580
 379.38 430 389.009 441 407.842 441 c 0
 416.842 441 390.665 440 434.665 440 c 2
 441.665 440 l 1
 458.137 437 474.783 435 491.607 434 c 1
 492.369 480.685 478.444 506.8 481.653 525 c 0
 483.24 534 487.475 541 492.709 548 c 1x1380
 487.356 546 482.18 545 476.18 545 c 0
 420.509 545 447.525 635 343.049 635 c 0
 275.605 635 241.835 588.414 235.237 551 c 0
 222.682 479.793 296.097 430 352.902 430 c 0x2580
EndSplineSet
EndChar

StartChar: asterisk
Encoding: 42 42 89
Width: 498
VWidth: 0
Flags: W
HStem: 116 96<96.4109 169.025 328.801 403.463>
VStem: 161.897 93.0557<231.156 299.577> 243.047 93.0557<25.4232 94.5>
LayerCount: 2
Fore
SplineSet
165.992 15 m 0xa0
 135.992 15 120.329 39.5996 124.632 64 c 0
 126.042 72 129.453 80 135.688 87 c 2
 169.74 127 l 1
 123.978 117 l 2
 121.801 116 118.801 116 116.801 116 c 0
 94.8008 116 82.209 141 86.4404 165 c 0
 90.4961 188 112.729 212 134.729 212 c 0
 137.729 212 139.729 212 142.552 211 c 2
 183.436 199 l 1
 164.842 241 l 2
 161.076 248 160.486 256 161.897 264 c 0
 166.976 292.8 197.361 312 221.361 312 c 0
 238.361 312 252.773 303 254.953 287 c 2xc0
 262.078 231 l 1
 289.776 286 l 2
 297.598 302 315.008 310 332.008 310 c 0
 362.008 310 377.671 285.4 373.368 261 c 0
 371.958 253 368.547 245 362.312 238 c 2
 328.083 197 l 1
 374.022 208 l 2
 376.199 209 379.199 209 381.199 209 c 0
 403.199 209 415.791 184 411.56 160 c 0
 407.504 137 385.271 113 363.271 113 c 0
 360.271 113 358.271 113 355.448 114 c 2
 313.564 126 l 1
 333.158 84 l 2
 336.924 77 337.514 69 336.103 61 c 0
 331.024 32.2002 300.639 13 276.639 13 c 0
 259.639 13 245.226 22 243.047 38 c 2
 236.098 95 l 1
 208.224 39 l 2
 200.402 23 182.992 15 165.992 15 c 0xa0
EndSplineSet
EndChar

StartChar: slash
Encoding: 47 47 90
Width: 492
VWidth: 0
Flags: W
HStem: 673 20G<487.113 509.038>
LayerCount: 2
Fore
SplineSet
496.113 693 m 0
 521.963 693 539.798 674.2 534.825 646 c 0
 533.768 640 531.533 633 527.476 627 c 2
 43.8242 -165 l 2
 33.6504 -183 13.8867 -193 -4.11328 -193 c 0
 -29.9629 -193 -47.7979 -174.2 -42.8252 -146 c 0
 -41.7676 -140 -39.5332 -133 -35.4756 -127 c 2
 448.176 665 l 2
 458.35 683 478.113 693 496.113 693 c 0
EndSplineSet
EndChar

StartChar: question
Encoding: 63 63 92
Width: 486
VWidth: -1282
Flags: W
HStem: -23.5967 138.192<130.969 220.288> 507.617 21G<65.5288 87.7524> 640.328 96.6523<207.584 357.009>
VStem: 106.435 138.388<1.80732 89.1923> 210.918 64.9727<226.585 279>
LayerCount: 2
Fore
SplineSet
106.435 44.9434 m 0xf0
 113.193 83.2754 148.763 114.596 187.255 114.596 c 0
 225.587 114.596 251.61 84.5488 244.822 46.0566 c 0
 238.063 7.72461 202.494 -23.5967 164.002 -23.5967 c 0
 125.67 -23.5967 99.6475 6.4502 106.435 44.9434 c 0xf0
216.089 177.987 m 0
 195.253 177.987 204.086 232.442 210.918 271.188 c 0
 211.393 273.875 211.856 276.487 212.301 279 c 8
 221.608 331.673 247.994 368 275.047 408 c 0
 328.472 489.214 351.01 515.674 361.804 576.891 c 0
 367.389 608.565 362.565 640.328 286.92 640.328 c 0
 221.901 640.328 150.779 592.678 128.322 540 c 0
 119.615 521.72 97.4424 507.617 78.0625 507.617 c 0
 52.9951 507.617 36.082 529.15 40.3848 553.548 c 0
 40.7021 555.35 41.1299 557.17 41.6729 559 c 0
 43.2812 568.123 92.8867 671.207 206.827 713 c 0
 245.774 727.286 286.463 736.98 324.349 736.98 c 0
 379.229 736.98 488.942 707.923 485.665 610 c 0
 485.298 599.024 484.267 588.812 482.555 579.099 c 0
 467.883 495.89 403.126 449.197 275.891 271 c 0xe8
 250.93 236.293 239.508 177.987 216.089 177.987 c 0
EndSplineSet
EndChar

StartChar: percent
Encoding: 37 37 93
Width: 789
VWidth: 0
Flags: W
HStem: -111 94<500.433 613.243> 147 94<521.516 634.326> 306 94<168.961 281.771> 564 94<190.044 302.855> 673 20G<622.113 644.038>
LayerCount: 2
Fore
SplineSet
598.413 241 m 0
 695.413 241 760.483 162 743.38 65 c 0
 726.275 -32 633.346 -111 536.346 -111 c 0
 439.346 -111 374.275 -32 391.38 65 c 0
 408.483 162 501.413 241 598.413 241 c 0
485.38 65 m 0
 477.444 20 507.921 -17 552.921 -17 c 0
 597.921 -17 641.445 20 649.38 65 c 0
 657.314 110 626.838 147 581.838 147 c 0
 536.838 147 493.314 110 485.38 65 c 0
266.941 658 m 4
 363.941 658 429.012 579 411.908 482 c 4
 394.804 385 301.874 306 204.874 306 c 4
 107.874 306 42.8037 385 59.9082 482 c 4
 77.0117 579 169.941 658 266.941 658 c 4
153.908 482 m 4
 145.973 437 176.449 400 221.449 400 c 4
 266.449 400 309.973 437 317.908 482 c 4
 325.843 527 295.366 564 250.366 564 c 4
 205.366 564 161.843 527 153.908 482 c 4
631.113 693 m 0
 656.963 693 674.798 674.2 669.825 646 c 0
 668.768 640 666.533 633 662.476 627 c 2
 178.824 -165 l 2
 168.65 -183 148.887 -193 130.887 -193 c 0
 105.037 -193 87.2021 -174.2 92.1748 -146 c 0
 93.2324 -140 95.4668 -133 99.5244 -127 c 2
 583.176 665 l 2
 593.35 683 613.113 693 631.113 693 c 0
EndSplineSet
EndChar

StartChar: less
Encoding: 60 60 94
Width: 430
VWidth: 0
Flags: W
HStem: 75 340<261.024 320.976>
VStem: 52.8232 305.218
LayerCount: 2
Fore
SplineSet
320.976 415 m 0
 345.996 415 362.598 395.845 358.041 370 c 0
 355.396 355 345.928 341 331.341 332 c 2
 181.823 244 l 1
 300.659 158 l 2
 312.072 149 316.604 135 313.959 120 c 0
 309.562 95.0654 287.166 75 261.024 75 c 0
 253.024 75 244.377 77 237.259 82 c 2
 67.123 206 l 2
 54.71 215 50.002 228 52.8232 244 c 0
 55.6445 260 65.9375 273 80.5244 282 c 2
 294.741 408 l 2
 303.623 413 311.976 415 320.976 415 c 0
EndSplineSet
EndChar

StartChar: greater
Encoding: 62 62 95
Width: 430
VWidth: 0
Flags: W
HStem: 75 340<112.024 171.976>
VStem: 73.959 304.864
LayerCount: 2
Fore
SplineSet
112.024 75 m 0
 86.6221 75 69.6602 95.6182 73.959 120 c 0
 76.6045 135 87.0723 149 101.659 158 c 6
 249.823 244 l 5
 132.341 332 l 6
 120.928 341 115.396 355 118.041 370 c 0
 122.025 392.6 144.376 415 171.976 415 c 0
 180.976 415 188.623 413 195.741 408 c 6
 365.524 282 l 6
 376.938 273 381.645 260 378.823 244 c 0
 376.002 228 366.71 215 351.123 206 c 6
 137.259 82 l 6
 128.377 77 120.024 75 112.024 75 c 0
EndSplineSet
EndChar

StartChar: at
Encoding: 64 64 96
Width: 954
VWidth: 0
Flags: W
HStem: -173.5 91<286.888 544.763> 88.6758 86.3242<375.986 432.591> 333 86.4443<423.825 503.919> 594.5 91<399.237 657.112>
LayerCount: 2
Fore
SplineSet
547.732 685.5 m 4
 792.264 685.5 959.553 494.491 917.5 256 c 4
 875.446 17.502 640.8 -173.5 396.268 -173.5 c 4
 151.736 -173.5 -15.5527 17.5088 26.5 256 c 4
 68.5537 494.498 303.2 685.5 547.732 685.5 c 4
117.5 256 m 4
 84.8008 70.5557 215.245 -82.5 412.313 -82.5 c 4
 609.38 -82.5 793.803 70.5625 826.5 256 c 4
 859.199 441.444 728.755 594.5 531.687 594.5 c 4
 334.62 594.5 150.197 441.438 117.5 256 c 4
289.186 223.57 m 0
 300.014 284.977 363.907 419 486.741 419 c 0
 490.074 419 493.486 419.444 496.819 419.444 c 0
 502.304 418.949 521.248 418.173 548.92 403 c 1
 557.154 410 571.036 415 581.036 415 c 0
 605.036 415 621.686 396 617.454 372 c 0
 614.411 354.746 584.973 318.229 572.061 245 c 0
 570.121 234 568.357 224 567.418 213 c 1
 570.594 214 575.771 215 578.771 215 c 0
 602.771 215 618.42 196 614.188 172 c 0
 613.131 166 608.367 156 604.31 150 c 2
 587.254 127 l 2
 583.372 122 576.138 115 570.609 112 c 2
 541.788 96 l 2
 535.082 92 524.554 89 517.554 89 c 0
 509.299 89 481.472 92.4619 480.488 134 c 1
 475.792 130.008 436.849 88.6758 383.376 88.6758 c 0
 315.258 88.6758 275.501 145.962 289.186 223.57 c 0
374.828 221 m 0
 370.62 197.135 379.862 178.624 393.718 175 c 1
 420.797 175 450.656 212.26 504.285 320 c 1
 496.52 327 486.4 332 476.577 333 c 1
 465.577 333 l 1
 416.737 328.989 381.698 259.961 374.828 221 c 0
EndSplineSet
EndChar

StartChar: dotlessi
Encoding: 305 305 98
Width: 214
VWidth: -1282
Flags: W
HStem: -4.49512 326.495<65.5471 108.969>
VStem: 12.2334 124.473<14.5403 95.7739> 57.2031 90.1709<202.992 313.861>
LayerCount: 2
Fore
SplineSet
59.9482 200.991 m 0xc0
 67.5615 244.173 53.124 255.866 57.2031 279 c 0
 61.4346 303 83.7852 322 107.785 322 c 2
 109.785 322 l 1
 162.61 318.436 150.294 217.051 147.374 200.492 c 0xa0
 140.145 159.495 122.588 128.423 109.288 98 c 1
 127.582 94 140.056 74 136.706 55 c 2
 136 51 l 1
 129.197 22.0703 99.7949 -4.49512 67.4375 -4.49512 c 0
 26.8047 -4.49512 5.61816 28.9814 12.2334 66.5 c 0
 19.5674 108.092 53.8525 166.425 59.9482 200.991 c 0xc0
EndSplineSet
EndChar

StartChar: dieresis
Encoding: 168 168 99
Width: 296
VWidth: -1282
Flags: W
HStem: 449 93<28.9703 100.12 188.97 260.12>
VStem: 18.9121 91<458.628 531.989> 178.912 91<458.628 531.989>
LayerCount: 2
Fore
SplineSet
269.912 495 m 4
 265.327 469 240.801 449 215.801 449 c 4
 190.801 449 174.327 469 178.912 495 c 4
 183.496 521 207.199 542 232.199 542 c 4
 257.199 542 274.496 521 269.912 495 c 4
109.912 495 m 0
 105.327 469 80.8008 449 55.8008 449 c 0
 30.8008 449 14.3271 469 18.9121 495 c 0
 23.4961 521 47.1992 542 72.1992 542 c 0
 97.1992 542 114.496 521 109.912 495 c 0
EndSplineSet
EndChar

StartChar: acute
Encoding: 180 180 100
Width: 379
VWidth: -1282
Flags: W
HStem: 427.278 160.178
VStem: 78.4814 222.913
LayerCount: 2
Fore
SplineSet
301.395 541.046 m 4
 300.223 534.4 297.585 527.587 293.404 521 c 6
 268.527 482 l 6
 260.234 469 248.647 460 233.942 456 c 6
 130.182 429 l 6
 125.809 427.833 121.517 427.278 117.387 427.278 c 4
 93.1826 427.278 73.8232 448.072 78.4814 474.491 c 4
 82.1221 495.139 99.3662 514.167 121.228 520 c 6
 202.931 541 l 5
 215.28 560 l 6
 226.332 577.413 244.506 587.456 262.076 587.456 c 4
 289.681 587.456 305.537 564.542 301.395 541.046 c 4
EndSplineSet
EndChar

StartChar: Euro
Encoding: 8364 8364 216
Width: 717
VWidth: -1282
Flags: W
HStem: 0.0732422 92.1768<226.626 423.492> 211.245 94.457<-5.89987 58.7307 152.785 300.849> 373 95<35.3579 71.7422 211.045 341.885> 456 21G<579.997 624.899> 611.104 92.1279<347.318 523.02>
VStem: 54.5225 98.2627<162.505 211.245> 71.7422 91.709<307 374.627> 547.021 85.0029<194.046 249.246>
LayerCount: 2
Fore
SplineSet
245.516 468 m 1xeb
 314.339 467 l 2
 340.339 467 356.46 445 351.875 419 c 0
 347.291 393 321.765 373 295.765 373 c 2
 163.451 374.627 l 1xeb
 156.992 356.167 151.987 337.302 148.637 318.298 c 0
 147.891 314.067 147.246 309.867 146.7 305.702 c 1
 203.774 305 l 1
 272.598 304 l 2
 298.598 304 314.719 282 310.134 256 c 0
 305.55 230 280.022 210 254.022 210 c 2
 152.785 211.245 l 1
 173.826 139.785 233.676 92.25 321.32 92.25 c 0
 424.073 92.25 511.248 163.71 547.021 227 c 0
 555.842 243 577.134 256 594.134 256 c 0
 619.134 256 636.431 235 632.023 210 c 0
 625.584 173.486 502.393 0.0732422 303.197 0.0732422 c 0
 171.111 0.0732422 71.918 82.7305 54.5225 212.535 c 1xed
 22.5518 213 l 2
 -3.44824 213 -19.5693 235 -14.9844 261 c 0
 -10.4004 287 15.127 307 41.127 307 c 2
 55.7461 306.82 l 1
 56.3086 310.662 56.9326 314.53 57.6191 318.423 c 0
 60.9863 337.521 65.7236 356.753 71.7422 375.892 c 1
 64.293 376 l 2
 38.293 376 22.1729 398 26.7568 424 c 0
 31.3418 450 56.8682 470 82.8682 470 c 2
 112.041 469.642 l 1
 177.385 588.06 290.747 686.286 427.6 701 c 0
 434.775 702 440.952 703 447.952 703 c 0
 451.605 703.154 455.245 703.231 458.869 703.231 c 0
 597.684 703.231 669.747 598.698 666.744 509 c 0
 666.392 507 666.863 504 666.511 502 c 0
 662.103 477 637.399 456 612.399 456 c 0xdb
 547.595 456 602.768 541.806 519.203 591 c 0
 497.051 604.041 469.858 611.104 441.225 611.104 c 0
 353.512 611.104 267.77 551.446 211.045 468.424 c 1
 245.516 468 l 1xeb
EndSplineSet
EndChar

StartChar: multiply
Encoding: 215 215 217
Width: 498
VWidth: 0
Flags: W
HStem: 31.8867 258.474
VStem: 104.185 289.048
LayerCount: 2
Fore
SplineSet
319.528 277.259 m 2
 329.926 286.098 342.132 290.36 353.687 290.36 c 0
 366.165 290.36 377.884 285.39 385.746 275.844 c 0
 393.027 267.004 395.271 255.55 393.232 243.994 c 0
 391.032 231.517 383.841 218.921 372.612 209.376 c 2
 314.636 161.293 l 1
 355.406 111.796 l 2
 362.687 102.956 364.93 91.502 362.892 79.9463 c 0
 360.691 67.4688 353.5 54.873 342.271 45.3271 c 0
 331.666 36.3115 319.319 31.8867 307.704 31.8867 c 0
 295.633 31.8867 284.353 36.665 276.635 46.0342 c 2
 235.866 95.5322 l 1
 177.89 47.4482 l 2
 167.491 38.6094 155.286 34.3467 143.73 34.3467 c 0
 131.253 34.3467 119.533 39.3174 111.671 48.8633 c 0
 104.391 57.7031 102.147 69.1572 104.185 80.7129 c 0
 106.385 93.1904 113.577 105.786 124.805 115.331 c 2
 182.781 163.414 l 1
 143.426 212.912 l 2
 136 221.928 133.615 233.493 135.663 245.108 c 0
 137.791 257.18 144.707 269.304 155.729 278.673 c 0
 166.334 287.688 178.681 292.113 190.296 292.113 c 0
 202.367 292.113 213.647 287.335 221.365 277.966 c 2
 261.552 229.175 l 1
 319.528 277.259 l 2
EndSplineSet
EndChar

StartChar: exclamdown
Encoding: 161 161 218
Width: 235
VWidth: 0
Flags: W
HStem: 391 20G<128.152 166.152> 476 138<127.244 214.316>
VStem: -11.7793 251.559
LayerCount: 2
Fore
SplineSet
239.779 545 m 4
 233.079 507 196.613 476 158.613 476 c 4
 120.613 476 95.0791 507 101.779 545 c 4
 108.48 583 144.946 614 182.946 614 c 4
 220.946 614 246.48 583 239.779 545 c 4
126.221 -65 m 4
 119.52 -103 83.0537 -134 45.0537 -134 c 4
 7.05371 -134 -18.4805 -103 -11.7793 -65 c 4
 -5.0791 -27 109.152 411 147.152 411 c 4
 185.152 411 132.921 -27 126.221 -65 c 4
EndSplineSet
EndChar

StartChar: questiondown
Encoding: 191 191 219
Width: 486
VWidth: -1282
Flags: W
HStem: -143.597 96.6523<92.0021 241.428> 395.396 20G<221.213 243.341> 478.787 138.193<228.723 318.042>
VStem: 173.121 64.9717<314.384 366.798> 204.188 138.389<504.191 591.576>
LayerCount: 2
Fore
SplineSet
342.577 548.44 m 0xe8
 335.818 510.108 300.248 478.787 261.756 478.787 c 0
 223.424 478.787 197.401 508.834 204.188 547.327 c 0
 210.947 585.659 246.517 616.98 285.009 616.98 c 0
 323.341 616.98 349.364 586.934 342.577 548.44 c 0xe8
232.923 415.396 m 0
 253.759 415.396 244.925 360.941 238.093 322.195 c 0
 237.619 319.509 237.155 316.896 236.711 314.384 c 8
 227.402 261.711 201.018 225.384 173.965 185.384 c 0
 120.54 104.17 98.001 77.71 87.207 16.4922 c 0
 81.6221 -15.1816 86.4453 -46.9443 162.092 -46.9443 c 0
 227.109 -46.9443 298.231 0.706055 320.689 53.3838 c 0
 329.396 71.6641 351.568 85.7666 370.948 85.7666 c 0
 396.016 85.7666 412.929 64.2334 408.627 39.8359 c 0
 408.309 38.0332 407.881 36.2139 407.339 34.3838 c 0
 405.73 25.2607 356.125 -77.8232 242.185 -119.616 c 0
 203.236 -133.902 162.549 -143.597 124.662 -143.597 c 0
 69.7822 -143.597 -39.9316 -114.539 -36.6533 -16.6162 c 0
 -36.2861 -5.64062 -35.2559 4.57129 -33.5439 14.2842 c 0
 -18.8721 97.4932 45.8848 144.187 173.121 322.384 c 0xf0
 198.082 357.091 209.504 415.396 232.923 415.396 c 0
EndSplineSet
EndChar

StartChar: sterling
Encoding: 163 163 220
Width: 651
VWidth: -1282
Flags: W
HStem: -3 92<222.718 447.804> 15.1387 91.7461<85.2697 354.865> 327 95<62.9826 125.382 232.26 369.51> 520.044 21G<472.924 483.925> 674.038 91.9756<290.418 436.033>
VStem: 125.382 92.0615<234.956 328.303>
LayerCount: 2
Fore
SplineSet
273.14 422 m 1x7c
 341.964 421 l 2
 367.964 421 384.085 399 379.5 373 c 0
 374.915 347 349.389 327 323.389 327 c 2
 217.443 328.303 l 1
 192.713 193.444 158.325 134.591 141.716 102 c 1
 169.068 104 l 2
 189.371 105.484 209.922 106.885 230.658 106.885 c 0x7c
 299.139 106.885 324.952 89 365.423 89 c 0
 439.324 89 465.038 135 498.534 135 c 0
 523.534 135 540.831 114 536.423 89 c 0
 534.308 77 523.662 62 513.252 54 c 0
 463.728 17 405.201 -3 349.201 -3 c 0xbc
 283.979 -3 286.184 15.1387 207.991 15.1387 c 0
 192.743 15.1387 177.047 14.3926 161.022 13 c 2
 52.2588 3 l 1
 48.2588 3 l 2
 23.2588 3 5.96191 24 10.3701 49 c 0
 17.4326 89.0537 87.001 116.041 125.382 329.514 c 1
 91.918 330 l 2
 65.918 330 49.7969 352 54.3818 378 c 0
 58.9658 404 84.4922 424 110.492 424 c 2
 140.977 423.625 l 1
 144.586 447.813 147.726 471.644 149.855 493.397 c 0
 152.146 516.792 151.197 544.17 156.638 575.024 c 0
 161.912 604.937 173.191 638.117 199.249 674.101 c 0
 243.196 734.788 304.967 765.492 369.434 765.999 c 0
 370.719 766.009 372.006 766.014 373.293 766.014 c 0
 437.707 766.014 504.328 752.865 534.067 676.679 c 0
 543.656 652.115 543.155 627.604 539.316 605.837 c 0
 536.22 588.271 530.949 572.494 527.056 559.921 c 0
 519.033 534.015 493.996 520.044 473.854 520.044 c 0
 471.993 520.044 470.173 520.163 468.412 520.403 c 0
 449.188 523.027 432.057 540.751 436.464 565.746 c 0
 436.828 567.81 437.339 569.922 438.007 572.079 c 0
 441.625 583.763 444.286 594.316 445.88 603.357 c 0
 448.103 615.96 448.251 625.626 446.028 631.321 c 0
 431.292 669.071 414.677 674.038 362.383 674.038 c 0
 359.666 674.038 356.852 674.024 353.938 674.001 c 0
 318.013 673.719 296.174 663.086 272.142 629.899 c 0
 262.231 616.215 257.322 600.929 253.929 581.683 c 0
 249.71 557.756 247.833 527.707 241.602 487 c 0
 238.366 465.867 235.368 444.342 232.26 422.503 c 1
 273.14 422 l 1x7c
EndSplineSet
EndChar

StartChar: copyright
Encoding: 169 169 221
Width: 954
VWidth: 0
Flags: W
HStem: -173.5 91<286.888 544.763> 86.123 87.4961<420.136 498.703> 328.085 86.915<447.95 531.022> 594.5 91<399.237 657.112>
LayerCount: 2
Fore
SplineSet
333.5 242.177 m 4
 354.749 362.685 445.393 415 511.036 415 c 4
 573.548 415 611.89 368.8 606.459 338 c 4
 602.227 314 578.877 295 554.877 295 c 4
 521.536 295 528.478 328.085 492.374 328.085 c 4
 484.241 328.085 458.663 316.394 447.464 304 c 4
 431.019 286.247 426.113 280.313 420.738 249.831 c 4
 420.058 245.972 419.37 241.72 418.649 237 c 4
 409.096 182.813 437.187 173.619 456.995 173.619 c 4
 480.974 173.619 495.776 189.212 498.244 195 c 4
 507.065 211 527.357 224 544.357 224 c 4
 568.357 224 584.008 205 579.775 181 c 4
 573.996 148.222 518.303 86.123 441.888 86.123 c 4
 375.822 86.123 314.856 136.445 333.5 242.177 c 4
547.732 685.5 m 0
 792.264 685.5 959.553 494.491 917.5 256 c 0
 875.446 17.502 640.8 -173.5 396.268 -173.5 c 0
 151.736 -173.5 -15.5527 17.5088 26.5 256 c 0
 68.5537 494.498 303.2 685.5 547.732 685.5 c 0
117.5 256 m 0
 84.8008 70.5557 215.245 -82.5 412.313 -82.5 c 0
 609.38 -82.5 793.803 70.5625 826.5 256 c 0
 859.199 441.444 728.755 594.5 531.687 594.5 c 0
 334.62 594.5 150.197 441.438 117.5 256 c 0
EndSplineSet
EndChar

StartChar: registered
Encoding: 174 174 222
Width: 954
VWidth: 0
Flags: W
HStem: -173.5 91<286.888 544.763> -26.1846 75.5986<596.246 626.774> 164.436 75.2188<419.889 516.282> 409.332 72.3115<275.956 357.235> 451.341 75.5967<446.496 585.922> 538.064 20G<389.284 412.709> 594.5 91<399.237 657.112>
VStem: 374.438 72.0586<310.609 433.983>
LayerCount: 2
Fore
SplineSet
435.42 521.087 m 5xf7
 462.997 525.639 490.666 526.938 504.22 526.938 c 4xef
 660.127 526.938 705.083 430.319 690.35 346.763 c 4
 679.983 287.975 643.521 235.235 589.872 199.791 c 5
 589.727 198.969 l 5
 604.563 173.235 609.949 145.54 603.286 107.757 c 4
 600.969 94.6094 598.005 83.6533 596.46 74.8877 c 4
 595.34 68.5361 593.609 49.4141 602.794 49.4141 c 4
 622.126 49.4141 635.322 32.1582 631.7 11.6152 c 4
 628.078 -8.92773 608.796 -26.1846 589.464 -26.1846 c 4
 540.283 -26.1846 515.199 17.5 525.028 73.2451 c 4
 527.745 88.6523 531.277 101.286 533.016 111.146 c 4
 535.374 124.52 536.155 151.01 510.76 167.743 c 5
 498.594 165.553 486.393 164.436 474.378 164.436 c 4
 442.919 164.436 418.514 171.545 398.777 181.713 c 5
 397.277 172.257 395.735 162.762 394.052 153.212 c 4
 379.945 73.2129 357.543 21.7617 340.707 -7.28516 c 5
 333.604 -21.2539 316.256 -31.9365 302.336 -31.9365 c 4
 283.004 -31.9365 270.581 -14.6807 274.204 5.86328 c 4
 277.692 25.6475 303.208 44.2734 321.556 148.33 c 4
 326.826 178.221 331.015 209.651 336.811 242.521 c 5
 335.506 248.272 334.345 254.847 335.214 259.777 c 4
 336.518 267.173 339.997 273.746 344.104 279.498 c 5
 352.889 319.029 363.251 351.413 369.795 388.525 c 4
 372.549 404.148 374.255 419.546 374.438 433.983 c 5
 329.598 420.807 315.032 409.332 301.269 409.332 c 4
 281.937 409.332 268.74 426.588 272.362 447.131 c 4
 274.826 461.101 286.713 475.892 300.101 481.644 c 4
 319.335 489.861 339.342 498.078 358.915 503.83 c 5
 357.465 508.761 357.077 515.335 357.946 520.265 c 4
 361.424 539.986 379.933 557.243 398.636 558.064 c 5
 400.183 558.064 l 6
 425.236 558.064 433.632 526.248 435.42 521.087 c 5xf7
488.462 239.654 m 4
 508.521 239.654 516.001 244.164 522.688 244.164 c 5
 574.797 258.784 612.331 304.566 619.432 344.835 c 4
 626.943 387.438 606.258 451.341 491.361 451.341 c 4
 488.732 451.341 486.084 451.308 483.42 451.24 c 4
 471.047 451.24 459.159 449.597 446.496 447.953 c 5
 446.498 427.318 444.21 407.189 440.749 387.566 c 4
 432.49 340.724 419.948 305.611 412.88 270.459 c 5
 427.931 253.72 456.057 239.654 488.462 239.654 c 4
547.732 685.5 m 0
 792.264 685.5 959.553 494.491 917.5 256 c 0
 875.446 17.502 640.8 -173.5 396.268 -173.5 c 0
 151.736 -173.5 -15.5527 17.5088 26.5 256 c 0
 68.5537 494.498 303.2 685.5 547.732 685.5 c 0
117.5 256 m 0
 84.8008 70.5557 215.245 -82.5 412.313 -82.5 c 0
 609.38 -82.5 793.803 70.5625 826.5 256 c 0
 859.199 441.444 728.755 594.5 531.687 594.5 c 0
 334.62 594.5 150.197 441.438 117.5 256 c 0
EndSplineSet
EndChar

StartChar: yen
Encoding: 165 165 223
Width: 640
VWidth: -1282
Flags: W
HStem: -23 21G<67.7002 83.7002> 236.967 94.166<132.462 255.898 406.502 519.695> 625 87<614.776 682.409> 671 20G<111.009 138.618>
LayerCount: 2
Fore
SplineSet
123.098 691 m 1xd0
 125.098 691 l 2xd0
 152.139 691 249.872 627.088 308.943 537 c 0
 329.337 505.898 335.016 441 340.139 402 c 1
 349.312 420 376.154 469.988 387.303 488 c 0
 478.533 635.389 621.846 712 650.8 712 c 2
 651.8 712 l 2
 676.8 712 694.098 691 689.689 666 c 0
 687.044 651 672.694 632 657.46 625 c 0xe0
 579.936 588 510.118 524.863 464.779 451 c 0
 443.571 416.45 426.328 375.482 406.502 331.133 c 1
 422.619 331 l 1
 491.443 330 l 2
 517.443 330 533.564 308 528.979 282 c 0
 524.396 256 498.868 236 472.868 236 c 2
 360.434 236.967 l 1
 317.228 159.057 255.128 77.6113 145.313 6 c 0
 144.137 5 143.137 5 141.961 4 c 2
 105.435 -16 l 2
 98.7285 -20 87.2002 -23 80.2002 -23 c 0
 55.2002 -23 37.9023 -2 42.3105 23 c 0
 44.9561 38 58.1299 56 72.3643 63 c 2
 105.538 81 l 1
 144.021 105.989 223.441 168.768 255.898 237.865 c 1
 240.221 238 l 1
 161.397 239 l 2
 135.397 239 119.276 261 123.861 287 c 0
 128.445 313 154.012 333.214 179.973 333 c 2
 276.145 332.207 l 1
 275.736 389.16 253.183 438.049 227.54 478 c 0
 192.709 530 145.467 574 89.7568 604 c 0
 75.9912 611 68.165 629 70.9863 645 c 0
 75.2178 669 98.9209 690 123.098 691 c 1xd0
EndSplineSet
EndChar

StartChar: uni00AD
Encoding: 173 173 224
Width: 498
VWidth: 0
Flags: W
HStem: 114 95<95.0421 401.568>
VStem: 86.4404 325.119
LayerCount: 2
Fore
SplineSet
305.199 209 m 1
 374.022 208 l 2
 400.022 208 416.144 186 411.56 160 c 0
 406.975 134 381.448 114 355.448 114 c 2
 192.801 116 l 1
 123.978 117 l 2
 97.9775 117 81.8564 139 86.4404 165 c 0
 91.0254 191 116.552 211 142.552 211 c 2
 305.199 209 l 1
EndSplineSet
EndChar

StartChar: macron
Encoding: 175 175 225
Width: 498
VWidth: 0
Flags: W
HStem: 664 95<95.0421 401.568>
VStem: 86.4404 325.119
LayerCount: 2
Fore
SplineSet
305.199 759 m 5
 374.022 758 l 6
 400.022 758 416.144 736 411.56 710 c 4
 406.975 684 381.448 664 355.448 664 c 6
 192.801 666 l 5
 123.978 667 l 6
 97.9775 667 81.8564 689 86.4404 715 c 4
 91.0254 741 116.552 761 142.552 761 c 6
 305.199 759 l 5
EndSplineSet
EndChar

StartChar: cedilla
Encoding: 184 184 226
Width: 302
VWidth: -1282
Flags: W
HStem: -239 87.082<112.189 192.101> -20.3398 20G<114.945 128.368>
VStem: 109.229 86.9248<-42.5457 -1.03692>
LayerCount: 2
Fore
SplineSet
196.154 -2.35254 m 4
 185.396 -63.3486 297.696 -35.6143 279.688 -137.74 c 4
 268.976 -198.496 204.272 -239 141.959 -239 c 4
 67.3125 -239 18.8965 -179.606 24.9365 -145.349 c 4
 29.1689 -121.349 51.5186 -102.349 75.5186 -102.349 c 4
 115.911 -102.349 103.646 -151.918 157.443 -151.918 c 4
 178.802 -151.918 192.692 -141.062 193.171 -138.349 c 6
 193.348 -137.349 l 5
 187.11 -118.076 91.1094 -103.226 109.229 -0.461914 c 4
 109.244 -0.379883 112.396 -0.339844 117.494 -0.339844 c 0
 139.241 -0.339844 196.381 -1.06836 196.154 -2.35254 c 4
EndSplineSet
EndChar

StartChar: guillemotleft
Encoding: 171 171 229
Width: 638
VWidth: 0
Flags: W
HStem: 75 340
LayerCount: 2
Fore
SplineSet
580.976 415 m 4
 605.997 415 622.598 395.845 618.041 370 c 4
 615.396 355 605.928 341 591.341 332 c 6
 441.823 244 l 5
 560.659 158 l 6
 572.072 149 576.604 135 573.959 120 c 4
 569.562 95.0654 547.166 75 521.024 75 c 4
 513.024 75 504.377 77 497.259 82 c 6
 327.123 206 l 6
 314.71 215 310.002 228 312.823 244 c 4
 315.645 260 325.938 273 340.524 282 c 6
 554.741 408 l 6
 563.623 413 571.976 415 580.976 415 c 4
320.976 415 m 4
 345.996 415 362.598 395.845 358.041 370 c 4
 355.396 355 345.928 341 331.341 332 c 6
 181.823 244 l 5
 300.659 158 l 6
 312.072 149 316.604 135 313.959 120 c 4
 309.562 95.0654 287.166 75 261.024 75 c 4
 253.024 75 244.377 77 237.259 82 c 6
 67.123 206 l 6
 54.71 215 50.002 228 52.8232 244 c 4
 55.6445 260 65.9375 273 80.5244 282 c 6
 294.741 408 l 6
 303.623 413 311.976 415 320.976 415 c 4
EndSplineSet
EndChar

StartChar: guillemotright
Encoding: 187 187 230
Width: 638
VWidth: 0
Flags: W
HStem: 75 340
LayerCount: 2
Fore
SplineSet
58.0244 75 m 4
 33.0029 75 16.4023 94.1553 20.959 120 c 4
 23.6045 135 33.0723 149 47.6592 158 c 6
 197.177 246 l 5
 78.3408 332 l 6
 66.9277 341 62.3955 355 65.041 370 c 4
 69.4375 394.935 91.834 415 117.976 415 c 4
 125.976 415 134.623 413 141.741 408 c 6
 311.877 284 l 6
 324.29 275 328.998 262 326.177 246 c 4
 323.355 230 313.062 217 298.476 208 c 6
 84.2588 82 l 6
 75.377 77 67.0244 75 58.0244 75 c 4
318.024 75 m 4
 293.003 75 276.402 94.1553 280.959 120 c 4
 283.604 135 293.072 149 307.659 158 c 6
 457.177 246 l 5
 338.341 332 l 6
 326.928 341 322.396 355 325.041 370 c 4
 329.438 394.934 351.834 415 377.976 415 c 4
 385.976 415 394.623 413 401.741 408 c 6
 571.877 284 l 6
 584.29 275 588.998 262 586.177 246 c 4
 583.355 230 573.062 217 558.476 208 c 6
 344.259 82 l 6
 335.377 77 327.024 75 318.024 75 c 4
EndSplineSet
EndChar

StartChar: uni00B9
Encoding: 185 185 231
Width: 307
VWidth: 0
Flags: W
HStem: 297 352<144.391 196.297> 474 21G<76.5859 97.0024>
VStem: 50.4639 177.987
LayerCount: 2
Fore
SplineSet
89.1768 474 m 4x60
 63.9951 474 46.0332 495.873 50.4639 521 c 4
 52.7559 534 61.0479 547 73.8115 557 c 6
 107.043 581 l 5
 143.802 625 l 5
 154.623 641 172.033 649 189.033 649 c 4
 216.736 649 230.391 628.704 228.451 606 c 6
 206.959 348 l 6
 206.834 346.741 206.66 345.49 206.441 344.248 c 4
 202.135 319.823 180.044 298.903 154.967 297 c 5
 150.967 297 l 6xa0
 126.967 297 109.141 315 111.549 340 c 6
 124.469 487 l 5
 113.732 480.596 104.828 474 89.1768 474 c 4x60
EndSplineSet
EndChar

StartChar: Eth
Encoding: 208 208 232
Width: 758
VWidth: -1282
Flags: W
HStem: -0.103516 92.0674<226.63 445.986> 311.898 94.0762<98.1301 193.532 310.042 405.362> 559.449 91.623<332.406 563.996> 626 88<173.673 215.739> 703 20G<245.438 258.683>
LayerCount: 2
Fore
SplineSet
331.283 562.417 m 1xe0
 332.702 545.25 333.282 517.861 325.439 473.379 c 0
 321.353 450.203 315.834 427.696 310.042 405.975 c 1
 377.111 405 l 2
 403.111 405 419.231 383 414.647 357 c 0
 410.062 331 384.536 311 358.536 311 c 2
 285.459 311.898 l 1
 277.524 276.442 270.276 237.759 256.435 197 c 0
 244.392 162.299 230.494 133.329 225.047 110.089 c 1
 274.751 93.9375 309.502 91.9639 331.415 91.9639 c 0
 427.417 91.9639 568.598 140.586 602.892 335.075 c 0
 623.027 449.273 598.892 566.5 478.963 566.5 c 0
 443.242 566.5 408.053 559.449 369.908 559.449 c 0
 357.217 559.449 344.254 560.249 331.283 562.417 c 1xe0
77.3799 174 m 0
 91.3398 174 91.8877 170.643 142.07 145.033 c 1
 150.505 170.401 161.046 192.492 168.08 212 c 0
 179.169 242.756 185.595 276.788 193.532 313.034 c 1
 127.065 314 l 2
 101.065 314 84.9443 336 89.5293 362 c 0
 94.1133 388 119.64 408 145.64 408 c 2
 217.759 407.113 l 1
 224.33 431.379 230.253 454.537 234.141 476.587 c 0
 247.517 552.447 231.697 602.964 185.079 626 c 0
 170.313 633 160.487 651 163.485 668 c 0
 167.894 693 192.596 714 217.596 714 c 2
 218.596 714 l 2xd0
 219.938 714 221.47 713.856 223.083 713.607 c 1
 231.277 719.134 240.693 722.607 250.183 723 c 2
 252.183 723 l 2xc8
 265.183 723 279.744 714.982 285.833 704 c 0
 294.138 689.021 319.531 651.072 384.077 651.072 c 0
 419.098 651.072 459.901 658.53 498.134 658.53 c 0
 650.625 658.53 728.271 522.335 695.268 335.169 c 0
 657.932 123.423 496.31 -0.103516 317.257 -0.103516 c 0
 285.287 -0.103516 252.847 3.2998 213.107 13.2568 c 1
 202.397 2.23047 187.487 -5 172.817 -5 c 0
 143.686 -5 135.788 21.3799 132.312 40.627 c 1
 113.338 48.6396 75.5615 65.7373 41.0391 87 c 0
 28.2734 94 20.4473 112 23.2686 128 c 0
 27.6768 153 52.3799 174 77.3799 174 c 0
EndSplineSet
EndChar

StartChar: AE
Encoding: 198 198 233
Width: 1028
VWidth: -1282
Flags: W
HStem: -9 91.7812<149.873 235.283> 9.33789 91.5742<653.668 837.068> 196 92<408.611 516.863> 275 93<219.396 289.391> 350.423 89.8516<680.679 822.726> 459 120<195.878 243.967> 522 21G<339.212 377.448 903.767 922.267> 604.188 91.8125<195.344 288.202 472.294 525.944> 644.885 91.1152<671.126 826.847>
LayerCount: 2
Fore
SplineSet
677.17 81 m 2x00
 677.188 81 l 2
 677.227 81.2178 677.219 81.2002 677.17 81 c 2x00
542.35 505.13 m 1
 499.598 457.409 448.822 423.479 413.33 320 c 0
 411.271 314 410.037 307 407.979 301 c 0
 408.175 300.931 427.577 288 459.688 288 c 0x20
 472.836 288 508.469 293.954 532.811 329.584 c 1
 537.357 362.236 550.056 390.529 588.376 411 c 1
 564.256 437.113 547.606 468.874 542.35 505.13 c 1
522.717 199.605 m 1
 522.201 203.989 521.665 208.299 521.815 215 c 1
 497.876 204 471.642 197 446.465 196 c 0
 444.465 196 442.465 196 440.465 196 c 0x6880
 418.465 196 399.347 201 382.229 206 c 1
 382.052 205 380.699 203 380.523 202 c 0
 358.107 127.611 326.146 61.0537 261.432 20 c 0
 237.61 4 208.671 -7 180.318 -9 c 1
 170.318 -9 l 2
 94.6816 -9 49.7764 50.3105 56.5986 89 c 0
 61.0068 114 84.709 135 109.709 135 c 0
 125.709 135 142.594 123 147.125 109 c 0
 152.438 92.584 166.828 82.7812 184.854 82.7812 c 0
 204.774 82.7812 229.135 94.7529 250.594 123 c 0
 282.183 164.583 296.83 233.083 300.281 246 c 1
 240.742 277.098 227.926 273.535 219.396 275 c 1
 219.689 271 220.632 265 219.927 261 c 0
 219.574 259 218.221 257 217.868 255 c 0
 203.787 209.528 162.365 188 130.055 188 c 0
 100.088 188 58.998 210.363 68.9844 267 c 0
 79.6699 327.6 147.338 368 220.794 368 c 0
 265.594 368 309.191 351.171 328.209 342 c 1
 386.55 510.1 488.525 519.604 500.585 588 c 0
 502.725 600.132 496.89 604.188 495.252 604.188 c 0
 494.052 604.188 491.566 603.467 488.701 600 c 2
 472.175 580 l 2
 453.166 557.451 424.812 528.019 387.124 523 c 0
 383.124 523 378.948 522 375.948 522 c 0x93
 302.477 522 296.939 601.138 250.112 608 c 0
 248.112 608 245.288 609 243.288 609 c 0
 211.154 609 190.574 584.831 187.477 567.26 c 0
 186.191 559.974 187.912 553.823 193.062 551 c 1
 201.883 567 223.998 579 240.998 579 c 0
 265.998 579 283.296 558 278.888 533 c 0
 276.084 517.1 244.539 459 177.839 459 c 2
 170.839 459 l 1
 117.137 462.623 86.5342 513.981 96.4111 570 c 0
 108.075 636.15 175.776 701 255.511 701 c 0
 339.344 701 379.007 627.553 386.052 619 c 0
 387.699 617 389.522 616 390.347 615 c 1
 405.721 628.07 442.519 696 509.629 696 c 0x05
 552.693 696 575.058 671.062 584.064 653.224 c 1
 624.807 704.941 688.993 736 754.682 736 c 0
 887.882 736 944.44 651.856 957.991 630 c 0
 962.757 623 965.465 610 963.878 601 c 0
 959.47 576 934.767 555 909.767 555 c 0
 897.767 555 883.216 563.027 876.94 573 c 0
 840.515 630.891 775.383 644.885 742.188 644.885 c 0
 678.91 644.885 642.407 602.927 634.951 560.641 c 0
 624.279 500.12 679.505 440.274 757.604 440.274 c 0
 792.908 440.274 808.439 451 823.429 451 c 0
 848.429 451 865.726 430 861.317 405 c 0
 857.968 386 839.44 366 820.56 361 c 0
 793.749 352.794 766.514 348.484 740.171 348.484 c 0
 731.199 348.484 722.331 348.984 713.619 350 c 1
 705.619 350 l 2
 701.888 350.28 698.111 350.423 694.305 350.423 c 0
 616.008 350.423 630.247 287.989 617.685 216.744 c 0
 613.734 194.341 611.176 166 621.707 152 c 0
 651.341 112.606 707.491 100.912 760.297 100.912 c 0
 837.419 100.912 845.886 136 879.291 178 c 0
 887.435 188.238 904.112 194 916.112 194 c 0
 941.112 194 958.41 173 954.002 148 c 0
 952.238 138 942.592 125.816 936.535 117 c 0
 904.248 70 836.829 9.33789 741.013 9.33789 c 0x4880
 664.642 9.33789 593.842 28 544.246 87 c 0
 524.707 110.243 516.648 149.722 522.717 199.605 c 1
EndSplineSet
EndChar

StartChar: ae
Encoding: 230 230 234
Width: 553
VWidth: -1282
Flags: W
HStem: -1.32422 86.3242<96.388 152.273 286.03 372.009> 243 86.4443<144.407 224.321 315.935 377.962>
LayerCount: 2
Fore
SplineSet
95.2305 131 m 0
 91.0225 107.135 100.264 88.623 114.119 85 c 1
 139.79 85 167.96 118.485 216.511 213.76 c 0
 217.511 215.802 218.538 217.827 219.592 219.834 c 2
 224.687 230 l 1
 216.921 237 206.803 242 196.979 243 c 1
 185.979 243 l 1
 137.139 238.989 102.101 169.961 95.2305 131 c 0
9.58789 133.57 m 0
 20.5391 195.679 84.7666 329 207.143 329 c 0
 210.476 329 213.889 329.444 217.222 329.444 c 0
 222.564 328.962 263.368 316.818 291.054 302.159 c 1
 315.816 319.121 343.071 329 370.143 329 c 0
 424.793 329 459.632 286.4 454.624 258 c 1
 483.765 276.486 497.256 282 506.855 282 c 0
 530.855 282 546.506 263 542.273 239 c 0
 540.334 228 530.513 212 520.278 205 c 0
 439.459 148.094 357.231 124.938 282.291 120 c 1
 287.257 95.0059 301.143 84 317.943 84 c 0
 328.344 84 355.607 92.5225 374.704 111 c 0
 383.291 120 399.525 127 410.525 127 c 0
 434.525 127 450.175 108 445.943 84 c 0
 439.049 44.9004 361.47 -2 302.778 -2 c 0
 257.487 -2 226.166 19.2373 208.842 50.7529 c 1
 202.792 45.3477 156.324 -1.32422 103.778 -1.32422 c 0
 35.6611 -1.32422 -4.09668 55.9609 9.58789 133.57 c 0
378.452 223 m 1
 373.67 226.612 369.064 242.657 355.889 242.657 c 1
 327.231 238.956 325.249 229.875 306.808 208 c 1
 335.397 211.984 314.695 204.116 378.452 223 c 1
287.868 123.56 m 2
 287.819 123 l 2
 288.254 123.137 288.23 123.329 287.868 123.56 c 2
EndSplineSet
EndChar

StartChar: Thorn
Encoding: 222 222 235
Width: 383
VWidth: -1282
Flags: W
HStem: -255 21G<-13.9111 5.58887> -3.25 86.6943<127.863 229.386> 239 86.2549<213.352 294.018> 552 20G<122.911 161.411>
VStem: 79.0371 80.1523<274.849 536.378>
LayerCount: 2
Fore
SplineSet
67.7412 199.198 m 0
 85.4854 299.829 73.5303 484.77 79.0371 516 c 0
 83.2686 540 110.911 572 134.911 572 c 2
 135.911 572 l 2
 186.911 572 158.073 320.177 159.189 273 c 1
 182.175 297.812 222.815 325.255 272.257 325.255 c 0
 315.778 325.255 376.776 300.957 354.617 175.289 c 0
 347.298 133.776 327.745 35.0273 187.581 3 c 0
 166.847 -1.16699 146.479 -3.25 125.9 -3.25 c 0
 121.785 -3.25 117.661 -3.16699 113.523 -3 c 1
 111.502 -22.7656 108.661 -44.1387 104.748 -66.335 c 0
 96.0693 -115.553 80.2969 -171.07 42.4971 -230 c 0
 34.0283 -244 13.0889 -255 -1.91113 -255 c 0
 -25.9111 -255 -41.5605 -236 -37.3291 -212 c 0
 -33.3994 -189.715 2.85938 -155.347 17.1094 -74.5283 c 0
 21.8037 -47.9043 24.4385 -18.9434 28.3447 13 c 1
 23.3877 21.6396 21.4229 41.7998 22.6924 49 c 0
 25.9209 67.3096 34.3545 68.9111 42.2744 92 c 1
 52.6895 134.864 62.0742 167.059 67.7412 199.198 c 0
267.756 169.875 m 0
 273.092 200.138 275.395 239 257.194 239 c 0
 229.087 239 207.721 209.178 194.083 193 c 0
 167.088 159 144.74 123 127.863 84 c 1
 133.805 83.667 139.877 83.4443 146.024 83.4443 c 0
 213.93 83.4443 254.124 115.589 263.854 152 c 0
 265.323 157.5 266.632 163.5 267.756 169.875 c 0
EndSplineSet
EndChar

StartChar: divide
Encoding: 247 247 236
Width: 380
VWidth: 0
Flags: W
HStem: -54 138<121.103 208.175> 114 95<34.689 341.216> 245 138<173.825 260.897>
VStem: 26.0879 325.119
LayerCount: 2
Fore
SplineSet
244.847 209 m 1
 313.67 208 l 2
 339.67 208 355.791 186 351.207 160 c 0
 346.622 134 321.096 114 295.096 114 c 2
 132.448 116 l 1
 63.624 117 l 2
 37.624 117 21.5039 139 26.0879 165 c 0
 30.6729 191 56.1992 211 82.1992 211 c 2
 244.847 209 l 1
148.361 314 m 0
 155.062 352 191.527 383 229.527 383 c 0
 267.527 383 293.062 352 286.361 314 c 0
 279.66 276 243.194 245 205.194 245 c 0
 167.194 245 141.66 276 148.361 314 c 0
95.6387 15 m 0
 102.34 53 138.806 84 176.806 84 c 0
 214.806 84 240.34 53 233.639 15 c 0
 226.938 -23 190.473 -54 152.473 -54 c 0
 114.473 -54 88.9385 -23 95.6387 15 c 0
EndSplineSet
EndChar

StartChar: degree
Encoding: 176 176 237
Width: 450
VWidth: 0
Flags: W
HStem: 316 94<128.053 240.864> 574 94<149.136 261.947>
VStem: 19 352
LayerCount: 2
Fore
SplineSet
226.033 668 m 4
 323.033 668 388.104 589 371 492 c 4
 353.896 395 260.967 316 163.967 316 c 4
 66.9668 316 1.89648 395 19 492 c 4
 36.1035 589 129.033 668 226.033 668 c 4
113 492 m 4
 105.065 447 135.541 410 180.541 410 c 4
 225.541 410 269.065 447 277 492 c 4
 284.935 537 254.459 574 209.459 574 c 4
 164.459 574 120.935 537 113 492 c 4
EndSplineSet
EndChar
